<svg width="42" height="42" viewBox="0 0 42 42" fill="none" xmlns="http://www.w3.org/2000/svg">
<path d="M35.715 38.114C36.0577 38.1151 36.3972 38.0487 36.7143 37.9186C37.0322 37.7881 37.3213 37.5961 37.5649 37.3536C37.8084 37.1111 38.0017 36.8228 38.1336 36.5054C38.2655 36.188 38.3333 35.8477 38.3333 35.504V18.6667V17.6667H37.3333H33.6443H32.4394L32.6615 18.851C32.795 19.5633 32.8847 20.2579 32.8847 20.9627C32.8847 24.1248 31.6286 27.1575 29.3929 29.3937C27.1572 31.6298 24.1249 32.8863 20.9628 32.887L20.9627 33.887M35.715 38.114C35.714 38.114 35.713 38.114 35.712 38.114L35.7163 37.1144V38.114H35.715ZM35.715 38.114H6.28498M6.28498 38.114C6.28599 38.114 6.287 38.114 6.28801 38.114L6.28367 37.114M6.28498 38.114H6.28367V37.114M6.28498 38.114C5.9423 38.1151 5.60275 38.0487 5.28573 37.9186C4.96775 37.7881 4.67869 37.5961 4.43513 37.3536C4.19157 37.1111 3.9983 36.8228 3.86642 36.5054C3.73455 36.188 3.66666 35.8477 3.66667 35.504V18.6667V17.6667H4.66667H8.281H9.48963L9.26331 18.8539C9.12794 19.5641 9.03835 20.258 9.03833 20.9625L8.12186 19.6667M6.28367 37.114H35.7163C35.9283 37.1149 36.1385 37.074 36.3346 36.9935C36.5307 36.913 36.7091 36.7945 36.8593 36.6449C37.0095 36.4953 37.1288 36.3175 37.2101 36.1217C37.2915 35.926 37.3333 35.716 37.3333 35.504V19.6667V18.6667H36.3333H34.6609C34.6499 18.605 34.6387 18.5435 34.6272 18.4824L33.6443 18.6667V19.6667H33.8015C33.8535 20.0916 33.8847 20.5228 33.8847 20.9627C33.8847 24.39 32.5233 27.677 30.1 30.1007C27.6768 32.5244 24.39 33.8864 20.9627 33.887M6.28367 37.114C6.07165 37.1149 5.86154 37.074 5.6654 36.9935C5.46925 36.913 5.29094 36.7945 5.1407 36.6449C4.99045 36.4953 4.87123 36.3175 4.78989 36.1217C4.70854 35.926 4.66666 35.716 4.66667 35.504V19.6667V18.6667H5.66667H7.26391C7.27524 18.604 7.28684 18.5416 7.29869 18.4794L8.281 18.6667V19.6667H8.12186M20.9627 33.887C17.5351 33.8864 14.2481 32.5245 11.8245 30.1009C9.40082 27.6772 8.03895 24.3902 8.03833 20.9627C8.03833 20.5228 8.06955 20.0916 8.12186 19.6667M20.9627 33.887L20.9625 32.887M8.12186 19.6667L20.9625 32.887M20.9625 32.887C17.8002 32.8863 14.7676 31.6298 12.5316 29.3938C10.2955 27.1576 9.03895 24.125 9.03833 20.9627L20.9625 32.887ZM31.9451 12.6667H31.948H35.7163C37.1642 12.6667 38.3333 11.4891 38.3333 10.0497V6.279C38.3333 4.83162 37.1585 3.66667 35.714 3.66667H31.9457C30.5053 3.66667 29.3333 4.83444 29.3333 6.279L29.3333 10.052L29.3333 10.0549C29.3353 10.747 29.6111 11.4101 30.1005 11.8995C30.5899 12.3889 31.253 12.6647 31.9451 12.6667ZM4.66667 1H37.3333C39.3477 1 41 2.65228 41 4.66667V37.3333C41 39.3497 39.348 41 37.3333 41H4.66667C2.65196 41 1 39.3497 1 37.3333V4.66667C1 2.65228 2.65228 1 4.66667 1ZM12.5778 17.4896C12.1217 18.5907 11.887 19.7708 11.887 20.9627C11.887 23.3697 12.8432 25.6781 14.5452 27.3801C16.2472 29.0821 18.5556 30.0383 20.9627 30.0383C23.3697 30.0383 25.6781 29.0821 27.3801 27.3801C29.0821 25.6781 30.0383 23.3697 30.0383 20.9627C30.0383 19.7708 29.8036 18.5907 29.3475 17.4896C28.8914 16.3884 28.2229 15.388 27.3801 14.5452C26.5374 13.7024 25.5369 13.0339 24.4358 12.5778C23.3347 12.1217 22.1545 11.887 20.9627 11.887C19.7708 11.887 18.5907 12.1217 17.4896 12.5778C16.3884 13.0339 15.388 13.7024 14.5452 14.5452C13.7024 15.388 13.0339 16.3884 12.5778 17.4896Z" fill="#87B900" stroke="black" stroke-width="2"/>
</svg>
