<svg width="31" height="31" viewBox="0 0 31 31" fill="none" xmlns="http://www.w3.org/2000/svg">
<path d="M12.059 8.55517L12.0568 8.54823L12.0545 8.54132C11.5327 6.96186 11.25 5.26773 11.25 3.5C11.25 2.12272 10.1273 1 8.75 1H3.5C2.12272 1 1 2.12272 1 3.5C1 18.1373 12.8627 30 27.5 30C28.8773 30 30 28.8773 30 27.5V22.265C30 20.8877 28.8773 19.765 27.5 19.765C25.7485 19.765 24.041 19.4827 22.4632 18.962C21.5773 18.6609 20.5805 18.8903 19.9079 19.5629L17.1318 22.339C13.5728 20.3636 10.6226 17.4233 8.65968 13.8695L11.4371 11.0921C12.1321 10.3971 12.3307 9.41979 12.059 8.55517Z" fill="#87B900" stroke="black" stroke-width="2"/>
</svg>
