<svg width="42" height="38" viewBox="0 0 42 38" fill="none" xmlns="http://www.w3.org/2000/svg">
<path d="M29 16.9132V14.3625C29 13.8249 29.1641 13.3241 29.478 12.9714C29.7718 12.6412 30.2842 12.3412 31.2013 12.3412H33.9943H34.9943V11.3412V5.86811V4.86911L33.9953 4.86811L29.7883 4.86391H29.7873C26.635 4.86391 24.1631 5.71039 22.4735 7.30085C20.7774 8.89742 20 11.121 20 13.604V16.9111H16.3333H15.3333V17.9111V23.1111V24.1111H16.3333H20V36.8181H4.66667C2.55071 36.8181 1 35.2807 1 33.6161V4.20201C1 2.53927 2.55105 1 4.66667 1H37.3333C39.449 1 41 2.53927 41 4.20201V33.6161C41 35.2807 39.4493 36.8181 37.3333 36.8181H29V24.1111H32.6667H33.4437L33.6357 23.3582L34.961 18.1603L35.279 16.9132H33.992H29Z" fill="#87B900" stroke="black" stroke-width="2"/>
</svg>
