<svg width="42" height="42" viewBox="0 0 42 42" fill="none" xmlns="http://www.w3.org/2000/svg">
<path d="M29 18.894V15.9507C29 15.3079 29.1779 14.7089 29.5113 14.2928C29.8176 13.9106 30.3214 13.5953 31.2013 13.5953H33.9943H34.9943V12.5953V6.517V5.51811L33.9954 5.517L29.7884 5.51233H29.7873C26.6064 5.51233 24.1212 6.46417 22.4363 8.22559C20.7593 9.97875 20 12.4034 20 15.1083V18.8917H16.3333H15.3333V19.8917V25.6667V26.6667H16.3333H20V41H4.66667C2.65196 41 1 39.3497 1 37.3333V4.66667C1 2.65228 2.65228 1 4.66667 1H37.3333C39.3477 1 41 2.65229 41 4.66667V37.3333C41 39.3497 39.348 41 37.3333 41H29V26.6667H32.6667H33.4631L33.6413 25.8904L34.9666 20.1178L35.2476 18.894H33.992H29Z" fill="#87B900" stroke="black" stroke-width="2"/>
</svg>
