<svg width="42" height="38" viewBox="0 0 42 38" fill="none" xmlns="http://www.w3.org/2000/svg">
<path d="M35.7146 34.4186C36.0438 34.4197 36.372 34.3624 36.6812 34.2481C36.9912 34.1335 37.2794 33.9627 37.5268 33.7408C37.7745 33.5188 37.9774 33.2491 38.1181 32.9441C38.259 32.6388 38.3333 32.307 38.3333 31.9689V16.8081V15.8081H37.3333H33.6443H32.4146L35.7163 33.4186M35.7146 34.4186C35.7139 34.4186 35.7131 34.4186 35.7124 34.4186L35.7163 33.4186M35.7146 34.4186H35.7163V33.4186M35.7146 34.4186H6.28542M35.7163 33.4186H6.28367M6.28542 34.4186C6.28614 34.4186 6.28686 34.4186 6.28758 34.4186L6.28367 33.4186M6.28542 34.4186H6.28367V33.4186M6.28542 34.4186C5.95621 34.4197 5.62801 34.3624 5.31877 34.2481C5.00879 34.1335 4.72063 33.9627 4.47316 33.7408C4.22548 33.5188 4.02261 33.2491 3.88189 32.9441C3.74099 32.6388 3.66666 32.307 3.66667 31.9689V16.8081V15.8081H4.66667H8.281H9.51487L9.25932 17.0152C9.12544 17.6476 9.03835 18.2587 9.03833 18.8752L6.28367 33.4186M33.6443 16.8081H34.6645C34.6511 16.7397 34.6374 16.6717 34.6233 16.6042L33.6443 16.8081ZM33.6443 16.8081V17.8081H33.8146C33.7721 17.4707 33.713 17.1379 33.6443 16.8081ZM20.9627 30.5129L20.9628 29.5129L20.9627 30.5129ZM20.9627 30.5129L20.9625 29.5129L20.9627 30.5129ZM8.281 16.8081C8.21118 17.1379 8.15146 17.4707 8.10874 17.8081H8.281V16.8081ZM8.281 16.8081L7.30268 16.6009C7.28816 16.6696 7.27398 16.7386 7.26021 16.8081H8.281ZM31.9454 11.505H31.948H35.7163C37.063 11.505 38.3333 10.4961 38.3333 9.04904V5.65381C38.3333 4.19932 37.0571 3.20201 35.714 3.20201H31.9457C30.6066 3.20201 29.3333 4.20198 29.3333 5.65381L29.3333 9.05114L29.3333 9.05433C29.3355 9.73946 29.6396 10.3719 30.1385 10.8211C30.634 11.2673 31.2851 11.5033 31.9454 11.505ZM4.66667 1H37.3333C39.449 1 41 2.53926 41 4.20201V33.6161C41 35.2807 39.4493 36.8181 37.3333 36.8181H4.66667C2.55071 36.8181 1 35.2807 1 33.6161V4.20201C1 2.53927 2.55105 1 4.66667 1ZM12.5932 15.6748C12.1282 16.6858 11.887 17.7738 11.887 18.8754C11.887 21.1051 12.8716 23.2192 14.5832 24.7604C16.2913 26.2984 18.5875 27.147 20.9627 27.147C23.3378 27.147 25.634 26.2984 27.3422 24.7604C29.0538 23.2192 30.0383 21.1051 30.0383 18.8754C30.0383 17.7738 29.7972 16.6858 29.3321 15.6748C28.8672 14.6642 28.1891 13.7531 27.3422 12.9905C26.4955 12.2281 25.4958 11.6282 24.4025 11.2204C23.3094 10.8127 22.1408 10.6039 20.9627 10.6039C19.7846 10.6039 18.616 10.8127 17.5228 11.2204C16.4296 11.6282 15.4299 12.2281 14.5832 12.9905C13.7362 13.7531 13.0581 14.6642 12.5932 15.6748Z" fill="#87B900" stroke="black" stroke-width="2"/>
</svg>
