<svg width="52" height="38" viewBox="0 0 52 38" fill="none" xmlns="http://www.w3.org/2000/svg">
<path d="M45.8489 8.5752L45.363 8.89048L45.3947 9.46884C45.416 9.85592 45.4241 10.2518 45.4241 10.6484C45.4241 22.7376 35.186 36.8181 16.2556 36.8181C12.0599 36.8181 8.08128 36.0195 4.48425 34.5889C5.84881 34.4816 7.20291 34.2605 8.52902 33.9268C11.3381 33.2197 13.9702 32.0199 16.2738 30.3918L18.7703 28.6273L15.7136 28.5753C13.6864 28.5408 11.731 27.9364 10.1208 26.8586C9.00907 26.1146 8.10375 25.1733 7.45209 24.1079C8.58276 24.1367 9.71555 24.0183 10.8154 23.7537L10.7611 21.7977C8.56371 21.3965 6.60735 20.3267 5.21373 18.7921C4.16723 17.6398 3.48577 16.2791 3.21207 14.8482C4.37671 15.2383 5.60513 15.4565 6.85034 15.4925L10.6712 15.6029L7.39389 13.6355C5.35386 12.4109 3.93864 10.55 3.39939 8.4544C2.96734 6.77534 3.11722 5.0246 3.81979 3.43028C6.39827 6.02471 9.48864 8.16254 12.9327 9.73482C16.8171 11.5081 21.068 12.5241 25.41 12.7198L26.7578 12.7805L26.4239 11.4733C26.2622 10.8401 26.1814 10.1932 26.1826 9.54493V9.54307C26.1826 8.43644 26.4245 7.33768 26.898 6.3085C27.3717 5.27893 28.0694 4.33626 28.9568 3.53744C29.8444 2.73843 30.9036 2.09986 32.0763 1.66273C33.2491 1.22557 34.509 0.999709 35.7834 1.00001L35.7851 1.00001C37.1133 0.998061 38.4254 1.24197 39.6392 1.7143C40.853 2.1866 41.939 2.87573 42.8327 3.73377L43.1998 4.08619L43.7007 3.99689C45.1329 3.74162 46.5322 3.36039 47.8788 2.85955C47.1409 3.74683 46.2088 4.51018 45.121 5.09648L45.7016 6.9711C46.6534 6.86951 47.5958 6.71241 48.5231 6.50115C47.7027 7.25826 46.8084 7.9526 45.8489 8.5752Z" fill="#87B900" stroke="black" stroke-width="2"/>
</svg>
