<svg width="52" height="42" viewBox="0 0 52 42" fill="none" xmlns="http://www.w3.org/2000/svg">
<path d="M45.8086 9.64378L45.3677 9.96154L45.3945 10.5044C45.4159 10.939 45.4241 11.3827 45.4241 11.8259C45.4241 25.4128 35.0912 41 16.2556 41C11.9063 41 7.78762 40.0436 4.08404 38.3346C5.59276 38.2308 7.09065 37.9735 8.55414 37.5644C11.374 36.7762 14.0109 35.44 16.3141 33.6321L18.5224 31.8987L15.7155 31.8457C13.7116 31.8078 11.7697 31.1447 10.1611 29.949C8.98534 29.075 8.03068 27.9484 7.36238 26.6603C8.53131 26.702 9.70327 26.5703 10.8396 26.2667L10.7802 24.3205C8.60631 23.8797 6.6517 22.7009 5.24758 20.9837C4.1586 19.652 3.45269 18.06 3.19051 16.3778C4.35907 16.8114 5.59368 17.0548 6.84715 17.095L10.3498 17.2074L7.43391 15.2635C5.39832 13.9064 3.95736 11.8237 3.40514 9.44031C2.96287 7.53152 3.11737 5.54518 3.82898 3.74386C6.39327 6.59682 9.46642 8.95423 12.8958 10.6929C16.7864 12.6655 21.0484 13.7976 25.4051 14.0156L26.7261 14.0817L26.4296 12.7927C26.2642 12.0736 26.1813 11.3379 26.1826 10.6V10.5983C26.1826 9.33764 26.4309 8.08931 26.9134 6.92462C27.396 5.75994 28.1032 4.70171 28.9948 3.8104C29.8863 2.91908 30.9447 2.21212 32.1095 1.72991C33.2743 1.2477 34.5227 0.99968 35.7834 1.00002L35.7853 1.00001C37.0991 0.99787 38.3992 1.26568 39.6052 1.78683C40.8111 2.30798 41.8972 3.07135 42.7959 4.0296L43.1753 4.4342L43.7195 4.32648C45.208 4.03181 46.6601 3.58685 48.0538 2.99997C47.2782 4.11867 46.2683 5.06945 45.0819 5.77963L45.7132 7.6307C46.7423 7.5087 47.7601 7.315 48.7594 7.05159C47.8632 8.0066 46.8754 8.87504 45.8086 9.64378Z" fill="#87B900" stroke="black" stroke-width="2"/>
</svg>
