<svg width="55" height="38" viewBox="0 0 55 38" fill="none" xmlns="http://www.w3.org/2000/svg">
<path d="M36.4011 20.6511L36.4021 20.6507C37.0111 20.394 37.8175 19.8544 37.8175 18.9091C37.8175 17.9637 37.0111 17.4241 36.4021 17.1674L36.4011 17.167L24.1557 12.0198L24.153 12.0187C23.4158 11.7113 22.5879 11.6693 21.8935 12.0679C21.1732 12.4813 20.8182 13.2414 20.8182 14.0615V23.7567C20.8182 24.5772 21.1727 25.3381 21.894 25.7515C22.5889 26.1497 23.4168 26.1065 24.153 25.7994L24.1557 25.7983L36.4011 20.6511ZM1 18.9091C1 14.6919 1.0326 11.5128 1.47613 9.06073C1.91209 6.65056 2.72246 5.07855 4.18956 3.96505C5.70723 2.81318 8.06058 2.04708 11.8241 1.58998C15.5711 1.1349 20.5719 1 27.2727 1C33.9736 1 38.9743 1.1349 42.7213 1.58998C46.4849 2.04708 48.8382 2.81318 50.3559 3.96505C51.823 5.07855 52.6334 6.65056 53.0693 9.06073C53.5128 11.5128 53.5454 14.6919 53.5454 18.9091C53.5454 23.1262 53.5128 26.3053 53.0693 28.7574C52.6334 31.1676 51.823 32.7396 50.3559 33.8531C48.8382 35.0049 46.4849 35.771 42.7213 36.2281C38.9743 36.6832 33.9736 36.8181 27.2727 36.8181C20.5719 36.8181 15.5711 36.6832 11.8241 36.2281C8.06058 35.771 5.70723 35.0049 4.18956 33.8531C2.72246 32.7396 1.91209 31.1676 1.47613 28.7574C1.0326 26.3053 1 23.1262 1 18.9091Z" fill="#87B900" stroke="black" stroke-width="2"/>
</svg>
