<svg xmlns="http://www.w3.org/2000/svg" viewBox="0 0 130 125.02"><defs><style>.cls-1{fill:#9bc961;}</style></defs><g id="Layer_2" data-name="Layer 2"><g id="Layer_8" data-name="Layer 8"><path class="cls-1" d="M74.25,116.82c-4.06-7.6-5.43-17.39.82-23.82,7.18-7.38,18.15-10.23,24.1-19,5.14-7.57,13.62-17.26,15.14-26.25,1-6.2,1.83-8.94,0-16.84-11.23,4.11-10,8.93-25,11.28-8.67,1.36-13.07,13-16.12,21.73C70.38,72,70,79.08,70,87.59c0,4.4.43,8.91-1,13a173,173,0,0,1-4.85-17.68c-1.39-7,.74-13.79.87-20.83.12-6.39-2.66-12.34-3.47-18.76-.89-7-2-9.12-1-16-1.85,4.86.1,4.4-.88,9.43-.87,4.48-4.38,8.07-4.94,12.64-.84,6.87-3.5,6.45-1.71,13.14-2.18-2.79-2.48-1.28-5.13-3.66-3.37-3-7.3-2.31-11.55-3.71a54.75,54.75,0,0,0-11.58-2.68c-2.7-.2-5.05,1.19-7.43-.89,5.35,1.54,7.49,9,10.76,13.44,4,5.44,10.17,13.1,16.89,14.59,5.66,1.24,10.59.6,15.43,4.62s5.64,10.47,7.7,16.61c2.39,7.13,3.23,13.9,4,21.34a17.35,17.35,0,0,1,5.55-.75,18.82,18.82,0,0,1-4.15-7.88"/><path d="M77.55,115.92a32.59,32.59,0,0,1-4.07-11.41c-.06-.36,0-.15,0-.08,0-.11,0-.23,0-.35s0-.48-.07-.72c0-.54-.07-1.08-.08-1.62a21.68,21.68,0,0,1,.15-3s0-.34,0-.06c0-.11,0-.23,0-.35s.08-.46.13-.69c.1-.48.21-1,.35-1.45s.28-.89.44-1.33a7.88,7.88,0,0,1,.49-1.13,16.08,16.08,0,0,1,3.59-4.87,50.46,50.46,0,0,1,4.88-4.06c3.5-2.57,7.23-4.79,10.86-7.18a58.59,58.59,0,0,0,10.3-8.26,42.48,42.48,0,0,0,7.88-12c3.7-8.31,5.29-17.4,6.74-26.33a51.51,51.51,0,0,1,2.29-9.82l.21-.56s.14-.33.06-.13,0-.09,0-.13c.17-.38.35-.76.54-1.12a18.28,18.28,0,0,1,1.28-2.07c.05-.06.21-.25,0,0l.18-.22.36-.42a9.62,9.62,0,0,1,.85-.84l.48-.41c-.29.24.14-.09.22-.15a11.22,11.22,0,0,1,1-.63l.52-.26.14-.06.14-.05c.42-.15.84-.28,1.27-.39a1.74,1.74,0,0,0-.47-3.41c-7.62.07-14.69,2.78-21.26,6.49-3.2,1.81-6.29,3.81-9.41,5.75a71.89,71.89,0,0,0-9.15,6.32A54.17,54.17,0,0,0,75.31,46.39a65.43,65.43,0,0,0-6.13,23c-.35,4-.42,8.11-.41,12.17s.38,8.16-.44,12.06a19.77,19.77,0,0,1-.85,2.91h3.34c-2-6-4-12.06-5.56-18.24A37.07,37.07,0,0,1,64,69.12a75,75,0,0,1,.81-9.33,90.66,90.66,0,0,0,.93-9.3,35.5,35.5,0,0,0-1-9.06c-.67-2.92-1.55-5.79-2.3-8.69a50.49,50.49,0,0,1-1.53-8.8c-.56-7.27.26-14.56,1.35-21.74a1.74,1.74,0,0,0-3.35-.92,45.29,45.29,0,0,0-2.52,10.91,92.68,92.68,0,0,1-2.11,11,97,97,0,0,0-2.56,11.51c-.51,3.81-1.17,7.6-1.5,11.43a36.48,36.48,0,0,0,1,13.08l2.9-1.69c-2.39-2.82-5.71-4.7-8.73-6.76-1.56-1.07-2.76-2.11-4.29-3.3A53.37,53.37,0,0,0,35.91,44,45.58,45.58,0,0,0,25,39.33a77.23,77.23,0,0,0-11.14-2.48,24.18,24.18,0,0,0-3.06-.29,23.44,23.44,0,0,0-2.9.22,13.7,13.7,0,0,1-2.86.1c-.2,0,0,0,0,0l-.36-.07L4,36.61s.16.07,0,0l-.36-.19A4.12,4.12,0,0,1,3,36l-1.69,2.9a12,12,0,0,1,1.2.39,6.09,6.09,0,0,1,.94.4,20.22,20.22,0,0,1,2.43,1.41,21,21,0,0,1,2.09,1.55c.78.64,1.54,1.33,2.27,2a83.81,83.81,0,0,1,7.58,8.61c.25.32.51.64.76,1l.17.22.43.6c.5.68,1,1.37,1.44,2.06,1,1.46,1.94,2.93,2.93,4.39a36.8,36.8,0,0,0,6.81,8A18.18,18.18,0,0,0,35,72.38a23.7,23.7,0,0,0,5.59,1.25c4,.57,7.74.73,11.62,2.17a17.24,17.24,0,0,1,8.5,7A26,26,0,0,1,63,87.72c.67,1.84,1.24,3.73,1.81,5.61,1.31,4.26,2.88,8.42,3.9,12.78a125.67,125.67,0,0,1,2.31,13.64c.15,1.18.28,2.36.42,3.54a1.76,1.76,0,0,0,2.2,1.67,23.47,23.47,0,0,1,6.77-.85,1.75,1.75,0,0,0,1.23-3,20.66,20.66,0,0,1-5-8.84,1.73,1.73,0,1,0-3.34.92,24.24,24.24,0,0,0,5.85,10.37l1.23-3a26.72,26.72,0,0,0-7.7,1l2.2,1.68c-.56-4.85-1.15-9.71-2.08-14.51-.45-2.34-1-4.67-1.64-7s-1.41-4.39-2.14-6.59a114,114,0,0,0-4-11.55,21.06,21.06,0,0,0-7.93-9.26c-3.64-2.29-7.78-3.11-12-3.66-2.11-.27-3.85-.45-5.91-.82a19.68,19.68,0,0,1-2.65-.64L36,69.06c-.05,0-.3-.13,0,0l-.22-.1c-.39-.19-.78-.38-1.15-.6s-.7-.41-1-.64l-.53-.38L33,67.27l-.21-.17a20.49,20.49,0,0,1-1.88-1.73c-.61-.62-1.19-1.28-1.74-2s-.87-1.09-1.45-1.9c-2.06-2.85-3.85-5.88-6-8.69a97,97,0,0,0-7.41-8.89A32.67,32.67,0,0,0,4.93,36.6a18.11,18.11,0,0,0-2.74-1,1.76,1.76,0,0,0-2,.8,1.74,1.74,0,0,0,.27,2.1,8.38,8.38,0,0,0,5.55,1.92c1.76,0,3.5-.43,5.26-.34a34.35,34.35,0,0,1,5,.7c1.91.38,3.79.83,5.67,1.33A47.26,47.26,0,0,1,32.4,46a47.53,47.53,0,0,1,5.21,3.28c1.56,1.11,3,2.38,4.52,3.52C45.39,55.19,49,57,51.63,60c1.15,1.36,3.35-.1,2.9-1.69-2.07-7.34-.61-14.78.39-22.16a88.49,88.49,0,0,1,2.34-10.9,89,89,0,0,0,2.25-11.07,50.1,50.1,0,0,1,2.67-12l-3.35-.92a110.07,110.07,0,0,0-1.62,19.93,54.3,54.3,0,0,0,1.13,9.68c.64,2.94,1.52,5.81,2.29,8.72a41.7,41.7,0,0,1,1.57,8.6,53.43,53.43,0,0,1-.63,9.45c-.4,3.14-.87,6.28-1,9.46a35.38,35.38,0,0,0,.79,9.57,210.45,210.45,0,0,0,6.15,20.72,1.75,1.75,0,0,0,3.34,0c1.48-3.84,1.55-8,1.48-12.09s-.08-8.1.11-12.15a65.49,65.49,0,0,1,4.76-22.52A53.12,53.12,0,0,1,88.66,33.48a42.68,42.68,0,0,1,8.16-6.31c3.11-1.88,6.15-3.86,9.27-5.74,1.52-.92,3.07-1.81,4.65-2.65.79-.42,1.6-.83,2.41-1.21l1.18-.55,1-.41a40.8,40.8,0,0,1,5-1.71,31.67,31.67,0,0,1,5.2-.94c.93-.08,1.85-.12,2.78-.13l-.46-3.41a13.35,13.35,0,0,0-8.24,6.5,32.1,32.1,0,0,0-3.27,10c-1.6,8.56-2.69,17.26-5.68,25.5a43.29,43.29,0,0,1-6.74,12.34,45,45,0,0,1-9.77,8.69c-3.65,2.5-7.47,4.75-11.09,7.28S75.46,86.24,73,90.08c-4.88,7.49-3.46,17.08.13,24.77q.67,1.44,1.47,2.82a1.74,1.74,0,0,0,3-1.75Z"/></g></g></svg>