<svg xmlns="http://www.w3.org/2000/svg" viewBox="0 0 198.62 191.01"><defs><style>.cls-1{fill:#9bc961;}</style></defs><g id="Layer_2" data-name="Layer 2"><g id="Layer_8" data-name="Layer 8"><path class="cls-1" d="M113.44,178.48c-6.2-11.61-8.3-26.57,1.25-36.39,11-11.28,27.74-15.63,36.82-29,7.85-11.57,20.82-26.38,23.14-40.11,1.6-9.47,2.79-13.66,0-25.72-17.16,6.28-15.36,13.63-38.21,17.22-13.25,2.08-20,19.81-24.63,33.2C107.53,110,107,120.83,107,133.83c0,6.72.66,13.61-1.59,19.77-2.77-9-5.57-17.74-7.41-27C95.84,116,99.1,105.53,99.3,94.77,99.48,85,95.23,75.92,94,66.11c-1.35-10.63-3.06-13.94-1.56-24.43-2.82,7.42.15,6.72-1.34,14.41-1.33,6.84-6.69,12.32-7.55,19.31-1.28,10.49-5.34,9.85-2.61,20.08-3.34-4.28-3.79-2-7.85-5.6-5.14-4.62-11.15-3.52-17.63-5.67C50.32,82.52,43,80.5,37.74,80.11c-4.11-.29-7.7,1.83-11.34-1.35,8.17,2.35,11.44,13.71,16.43,20.53,6.1,8.32,15.55,20,25.82,22.29,8.64,1.9,16.17.91,23.57,7.06s8.61,16,11.76,25.38c3.65,10.89,4.93,21.24,6.15,32.6a26.3,26.3,0,0,1,8.47-1.14,28.76,28.76,0,0,1-6.33-12"/><path d="M118.48,177.1a49.69,49.69,0,0,1-6.22-17.42c-.08-.55,0-.24,0-.12l-.06-.55c0-.37-.08-.73-.11-1.1-.07-.82-.11-1.64-.13-2.46a33.59,33.59,0,0,1,.23-4.6c0-.07.07-.52,0-.1,0-.17.06-.35.08-.53.06-.35.13-.7.2-1.05q.23-1.12.54-2.22c.2-.69.42-1.37.67-2a13.42,13.42,0,0,1,.74-1.73,24.57,24.57,0,0,1,5.5-7.43,74.38,74.38,0,0,1,7.45-6.2c5.35-3.93,11-7.33,16.58-11A89.06,89.06,0,0,0,159.68,106a64.87,64.87,0,0,0,12-18.36C177.38,74.9,179.81,61,182,47.37a78.45,78.45,0,0,1,3.49-15c.1-.29.21-.57.33-.85,0-.08.21-.52.08-.21s.06-.13.09-.2c.26-.58.53-1.15.82-1.71a24.46,24.46,0,0,1,2-3.16c.06-.09.31-.39,0,0,.09-.11.18-.23.28-.34s.37-.43.56-.64A17.3,17.3,0,0,1,190.9,24c.24-.22.49-.43.74-.63-.45.36.2-.13.33-.22a15.49,15.49,0,0,1,1.6-1q.39-.21.81-.39c.07,0,.51-.22.2-.1s.15-.05.22-.08c.64-.23,1.28-.43,1.93-.6,2.9-.74,2.3-5.24-.7-5.21-11.66.11-22.46,4.25-32.49,9.92-4.89,2.77-9.61,5.82-14.38,8.79a107.47,107.47,0,0,0-14,9.66,82.47,82.47,0,0,0-20.13,26.68A100,100,0,0,0,105.7,106c-.53,6.18-.65,12.39-.63,18.59s.58,12.47-.67,18.44a30.11,30.11,0,0,1-1.31,4.44h5.12c-3-9.22-6.17-18.43-8.5-27.86a56.35,56.35,0,0,1-2-14A111.7,111.7,0,0,1,99,91.35c.62-4.72,1.27-9.44,1.42-14.21a54.84,54.84,0,0,0-1.58-13.85c-1-4.46-2.37-8.83-3.52-13.26a76.9,76.9,0,0,1-2.33-13.46c-.85-11.1.39-22.23,2.06-33.21A2.66,2.66,0,0,0,89.88,2C87.74,7.3,86.8,12.94,86,18.62a144.76,144.76,0,0,1-3.23,16.89,147.63,147.63,0,0,0-3.92,17.58c-.77,5.82-1.79,11.62-2.29,17.47a56.05,56.05,0,0,0,1.59,20L82.63,88C79,83.64,73.9,80.78,69.28,77.62c-2.38-1.62-4.22-3.22-6.55-5a82.51,82.51,0,0,0-7.87-5.41,69.62,69.62,0,0,0-16.64-7.09,119.93,119.93,0,0,0-17-3.79,38.62,38.62,0,0,0-4.67-.44,38.84,38.84,0,0,0-4.44.33,21.19,21.19,0,0,1-4.36.16c-.32,0,0,0,0,0l-.55-.11a8.62,8.62,0,0,1-1.1-.32l0,0c-.18-.08-.36-.18-.54-.28a6.83,6.83,0,0,1-1-.6L1.94,59.46c.62.17,1.23.37,1.84.59a14.44,14.44,0,0,1,1.43.62,31.24,31.24,0,0,1,3.72,2.15,35.26,35.26,0,0,1,3.19,2.37c1.19,1,2.35,2,3.46,3.1A126.91,126.91,0,0,1,27.16,81.45c.39.49.78,1,1.16,1.48l.26.34.67.91q1.13,1.56,2.19,3.15c1.51,2.22,3,4.48,4.48,6.7,3,4.41,6.24,8.86,10.41,12.24a27.43,27.43,0,0,0,7.2,4.31,36.42,36.42,0,0,0,8.52,1.92c6.11.86,11.84,1.11,17.76,3.31a26.28,26.28,0,0,1,13,10.69A39.82,39.82,0,0,1,96.31,134c1,2.83,1.89,5.7,2.77,8.57,2,6.52,4.4,12.88,6,19.53A193.47,193.47,0,0,1,108.57,183q.33,2.7.64,5.4a2.69,2.69,0,0,0,3.35,2.56,35.9,35.9,0,0,1,10.35-1.3,2.68,2.68,0,0,0,1.88-4.53,31.73,31.73,0,0,1-7.59-13.5,2.68,2.68,0,0,0-3.26-1.86,2.71,2.71,0,0,0-1.85,3.27,31.45,31.45,0,0,0,3.5,8.51,30.85,30.85,0,0,0,5.45,7.34l1.87-4.53a41,41,0,0,0-11.76,1.48l3.36,2.56c-.85-7.41-1.75-14.83-3.17-22.16-.7-3.58-1.52-7.14-2.51-10.65s-2.16-6.71-3.27-10.07c-2-5.91-3.48-12-6.07-17.64a32.2,32.2,0,0,0-12.11-14.16c-5.56-3.5-11.89-4.75-18.3-5.58-3.23-.42-5.89-.7-9-1.27a26.82,26.82,0,0,1-4-1l-.94-.35c-.07,0-.46-.2,0,0l-.34-.15c-.6-.29-1.19-.58-1.76-.91s-1.06-.64-1.57-1l-.8-.58s-.35-.26-.13-.09l-.32-.26a34.25,34.25,0,0,1-2.88-2.64c-.93-1-1.81-2-2.65-3S43.22,95.21,42.33,94c-3.14-4.35-5.88-9-9.09-13.28A150,150,0,0,0,21.91,67.12C17.75,62.76,13,58.48,7.53,55.92a27,27,0,0,0-4.18-1.58,2.72,2.72,0,0,0-3,1.22,2.67,2.67,0,0,0,.42,3.22,12.83,12.83,0,0,0,8.48,2.93c2.69,0,5.34-.67,8-.51a50.35,50.35,0,0,1,7.6,1.07c2.9.57,5.79,1.26,8.65,2a72.34,72.34,0,0,1,16,5.94,74,74,0,0,1,8,5c2.37,1.71,4.55,3.64,6.9,5.38,5,3.69,10.52,6.39,14.5,11.09,1.77,2.08,5.12-.15,4.44-2.58-3.16-11.22-.94-22.57.6-33.85a137.58,137.58,0,0,1,3.57-16.66A139,139,0,0,0,90.93,21.7C91.76,15.58,92.64,9.25,95,3.36L89.88,2C88.35,12,87.08,22.2,87.41,32.41a82.59,82.59,0,0,0,1.73,14.78c1,4.49,2.31,8.89,3.49,13.32A64.05,64.05,0,0,1,95,73.65a81.2,81.2,0,0,1-1,14.44c-.62,4.8-1.34,9.61-1.58,14.45a54.55,54.55,0,0,0,1.21,14.64c2.39,10.75,5.93,21.2,9.39,31.65a2.68,2.68,0,0,0,5.12,0c2.24-5.87,2.36-12.27,2.26-18.47s-.14-12.38.15-18.56a100.07,100.07,0,0,1,7.28-34.42,81.36,81.36,0,0,1,17.56-26.23,65,65,0,0,1,12.46-9.64c4.76-2.87,9.41-5.9,14.16-8.77,2.33-1.4,4.7-2.77,7.11-4.05,1.21-.64,2.44-1.26,3.69-1.85q.88-.43,1.8-.84c.6-.26,1-.44,1.47-.63a61.25,61.25,0,0,1,7.67-2.6,48,48,0,0,1,8-1.44c1.42-.13,2.84-.19,4.26-.2l-.71-5.21a20.36,20.36,0,0,0-12.59,9.94c-2.67,4.69-4,10-5,15.31-2.44,13.09-4.11,26.38-8.67,39A66.38,66.38,0,0,1,158.76,99a69,69,0,0,1-14.93,13.27c-5.57,3.83-11.41,7.26-17,11.13s-11.6,8.37-15.42,14.24c-7.46,11.44-5.29,26.09.2,37.85q1,2.19,2.23,4.3a2.66,2.66,0,0,0,4.59-2.68Z"/></g></g></svg>