<svg xmlns="http://www.w3.org/2000/svg" viewBox="0 0 130 185.96"><defs><style>.cls-1{fill:#a8974e;}.cls-2{fill:#fbe98e;}.cls-3{fill:#ffd217;}</style></defs><g id="Layer_2" data-name="Layer 2"><g id="Layer_7" data-name="Layer 7"><ellipse class="cls-1" cx="36.11" cy="161.11" rx="33.1" ry="23.45"/><path class="cls-2" d="M69.77,142.73c5.49,34.93-27.52,26.83-40.72,29.14-17.13,3-30.81-8.06-26-26.34,2.39-9.19,19.69-18,33.1-18S68.29,133.35,69.77,142.73Z"/><path class="cls-2" d="M27.26,79.88s3.17,13.64,4.14,19,5,12.38,7,9.29-.11-11.9,1-17.26,4-11.43,5-12.54,4.1-6,5.7-7.91S35.53,60.06,31.4,61.65s-13.53,4.18-13.66,6.5,5.13,9.6,6.91,9.9A3.88,3.88,0,0,1,27.26,79.88Z"/><path class="cls-3" d="M35.53,54.46S17.92,59.63,23.62,71.52s20.74,4.2,21.43-4.72-1.79-14.87-3.73-14.69-5.79,2.35-5.79,2.35"/><path class="cls-3" d="M38.36,109.76s-21.5,6.31-14.54,20.83,25.32,5.13,26.16-5.76-2.19-18.16-4.55-18-7.07,2.88-7.07,2.88"/><path class="cls-1" d="M80.41,43.18c-2.85,1.27-16.74,8.39-16.74,8.39s-9,7.6-6.9,7.74,5.14,2.76,9.52,0S82.57,48.83,83.12,47.24s-2.71-4.06-2.71-4.06"/><path d="M50.33,60.34A6.83,6.83,0,0,0,55,63.66,12.22,12.22,0,0,0,60.91,63c3.73-1.27,7-3.42,10.52-5.22,1.87-1,3.73-2,5.53-3.06,1.31-.79,2.59-1.62,3.82-2.52a26.5,26.5,0,0,0,3.53-3,8.31,8.31,0,0,0,2.11-3.32,3.81,3.81,0,0,0-.89-3.67c-2-2.15-5.29-.56-7.43.42a81.54,81.54,0,0,0-8.66,4.85,43.39,43.39,0,0,1-5.66,3.22l-.08,0,.21-.09a2,2,0,0,1-.22.09l-.44.19-.93.38-2.12.86c-1.62.67-3.23,1.35-4.8,2.09a25.92,25.92,0,0,0-3.79,2.1c-1,.73-2.2,1.68-2.27,3.06a2.33,2.33,0,0,0,.7,1.74,1.42,1.42,0,0,0,2-2c-.22-.24.22.33.06.07s.12.41,0,.12,0,.32,0,.25,0-.07,0-.1c0-.22,0,.25,0,.26a.35.35,0,0,0,0-.14.36.36,0,0,0,0-.11s-.2.41-.09.22l.15-.24c.15-.22-.24.28-.11.15l.09-.11.24-.24a2.73,2.73,0,0,1,.25-.23l.15-.12c.25-.21-.26.19-.08.06s.49-.35.74-.51c.57-.37,1.16-.7,1.76-1,1.39-.72,2.82-1.36,4.26-2l.28-.11.12,0c.16-.08-.36.15-.13,0l.55-.23,1.07-.44,2-.81c1-.43,2.09-.83,3.09-1.34s1.68-1,2.51-1.5c2.66-1.65,5.33-3.31,8.09-4.78q1-.56,2.1-1.05l1-.46-.07,0,.21-.08.51-.2A10.75,10.75,0,0,1,82.54,44l.34-.06c-.51.09-.19,0,0,0h.49c.17,0-.41-.08-.25,0l.25.06c.14,0,.21.16-.22-.1a.67.67,0,0,0,.12.06c.31.18-.33-.29,0,0a3.19,3.19,0,0,1,.26.26l.12.13s-.24-.34-.1-.12a2.61,2.61,0,0,1,.17.28c0,.06.12.28,0,0s0-.08,0,0,0,.2.08.3,0-.41,0-.2c0,.05,0,.1,0,.15s0,.22,0,.33c0-.49,0-.26,0-.05s-.06.22-.1.33l-.06.16c-.06.18.18-.39.07-.15s-.11.23-.18.34a4.59,4.59,0,0,1-.42.66l-.12.17c-.12.16.26-.32.08-.1s-.21.25-.31.37-.42.46-.64.68c-.48.48-1,.93-1.5,1.36l-.39.31-.22.17.15-.11-.15.11c-.29.22-.58.44-.88.65-.61.43-1.22.85-1.85,1.26-2.06,1.34-4.21,2.55-6.4,3.69-2.65,1.39-5.21,2.93-7.91,4.22-.45.21-.91.4-1.35.61.42-.2,0,0-.12,0a1.88,1.88,0,0,1-.3.12c-.23.1-.47.19-.71.27a16.11,16.11,0,0,1-2.64.72l-.32,0,.17,0h-.14c-.22,0-.44,0-.66.05h-.57a1.79,1.79,0,0,1-.66-.05s.4.06.18,0l-.12,0-.25,0a4.4,4.4,0,0,1-.62-.18,2.18,2.18,0,0,1-.23-.09c.45.17.13.06,0,0a2.78,2.78,0,0,1-.53-.3l-.22-.14c-.17-.12.13.1.13.1l-.12-.11a5.22,5.22,0,0,1-.43-.39l-.21-.24c-.09-.1-.24-.39,0,0-.12-.2-.27-.38-.39-.57a1.42,1.42,0,0,0-2.45,1.43Z"/><path d="M41.42,56.85a12,12,0,0,0-6.28-1.36,14.15,14.15,0,0,0-5.88,1.76,15,15,0,0,0-4.36,3.57,11.73,11.73,0,0,0-2.49,4.73,6.84,6.84,0,0,0,.64,5A8.07,8.07,0,0,0,27.7,73.9a17.37,17.37,0,0,0,3.78.7,26.19,26.19,0,0,0,3.86.08A11.76,11.76,0,0,0,43,71.79a9.79,9.79,0,0,0,2.68-7.41,12.89,12.89,0,0,0-.68-3.9,7.32,7.32,0,0,0-2.12-3.28,5.27,5.27,0,0,0-1.84-1,1.44,1.44,0,0,0-1.75,1,1.46,1.46,0,0,0,1,1.75c.14,0,.52.24.07,0l.33.17c.11.06.2.13.31.2s-.28-.24-.09-.07l.16.14a6.14,6.14,0,0,1,.5.52c.16.2-.22-.29-.07-.08a.91.91,0,0,1,.11.16c.08.11.16.24.23.36s.24.46.35.69-.13-.33,0-.08c0,.07.05.13.07.2s.11.31.16.46a11.25,11.25,0,0,1,.38,1.7c0,.23,0-.15,0-.16l0,.22c0,.15,0,.29,0,.44,0,.31,0,.62,0,.94s0,.51,0,.77l0,.41c0,.07,0,.13,0,.2,0,.37,0-.29,0-.05a8.63,8.63,0,0,1-.34,1.42c0,.13-.09.25-.14.38-.11.29.14-.3,0,0l-.11.23a6.77,6.77,0,0,1-.52.9l-.22.32c.21-.35.11-.14,0-.05l-.14.17a6.25,6.25,0,0,1-.69.67l-.16.14c-.17.15.1-.08.11-.08s-.23.17-.35.25a8.28,8.28,0,0,1-.82.47,3.18,3.18,0,0,1-.32.16l-.2.09c.4-.19.16-.07.06,0a8.85,8.85,0,0,1-.91.31c-.58.16-1.17.26-1.77.37.51-.1,0,0-.15,0l-.38,0c-.34,0-.67,0-1,0-.61,0-1.23,0-1.85,0s-1.22-.06-1.82-.13l-.46,0c.5,0,0,0-.07,0-.3,0-.6-.1-.9-.17a12.46,12.46,0,0,1-1.48-.41L27.89,71c-.12,0-.44-.22,0,0-.21-.1-.42-.19-.63-.3l-.49-.28-.24-.17-.12-.08c-.24-.18.27.21.1.08a6.06,6.06,0,0,1-.77-.75l-.08-.09c-.14-.16.24.32.12.15l-.14-.19c-.09-.14-.18-.29-.26-.44l-.11-.21c-.15-.31.12.32,0,.1s-.11-.32-.16-.48-.07-.31-.1-.46,0-.42,0,.14c0-.1,0-.19,0-.28a5.46,5.46,0,0,1,0-1s0-.08,0-.12c0-.21-.07.42,0,.21a2.17,2.17,0,0,1,0-.25c0-.17.07-.34.11-.51a9.22,9.22,0,0,1,.34-1c.11-.28-.17.39,0,0l.12-.25c.08-.17.17-.34.26-.5.19-.34.4-.67.62-1l.17-.24c.08-.11.34-.42,0,0,.13-.16.25-.32.39-.47a12.2,12.2,0,0,1,.85-.91c.3-.29.62-.57.94-.84.1-.08.45-.33,0,0l.26-.19c.17-.13.35-.25.53-.37a11.43,11.43,0,0,1,1.12-.67,6.36,6.36,0,0,1,.58-.3l.3-.14c.12-.06.51-.2,0,0a15.89,15.89,0,0,1,2.52-.76l.33,0,.16,0c-.5.09-.27,0-.16,0l.67-.06a10,10,0,0,1,1.34,0l.67.06c-.56,0-.11,0,0,0l.34.06a10.39,10.39,0,0,1,1.35.38l.34.12.17.07L39.31,59l.67.32a1.42,1.42,0,1,0,1.44-2.45Z"/><path d="M26,64a36.61,36.61,0,0,1,2.81,4.55l.27.57c.15.34-.08-.2,0,.07l.1.27a10.71,10.71,0,0,1,.4,1.21c.11.42.19.84.27,1.27,0,.16,0,.13,0-.08a1.23,1.23,0,0,0,0,.2l0,.31,0,.74a1.43,1.43,0,0,0,1.42,1.42,1.45,1.45,0,0,0,1.42-1.42,14,14,0,0,0-1.44-5.82,37.25,37.25,0,0,0-2.89-4.72A1.42,1.42,0,0,0,26,64Z"/><path d="M31.58,61.55c1.44,3.94,2.85,7.9,4.13,11.89a1.44,1.44,0,0,0,1.75,1,1.42,1.42,0,0,0,1-1.74c-1.29-4-2.69-8-4.13-11.89a1.45,1.45,0,0,0-1.75-1,1.43,1.43,0,0,0-1,1.74Z"/><path d="M36.89,60.86c.4.76.76,1.55,1.1,2.34l.11.26c0,.09,0,.07,0-.08l.06.16.24.57c.16.4.32.8.49,1.2A47.81,47.81,0,0,0,41,70.16a1.42,1.42,0,0,0,1.94.51,1.45,1.45,0,0,0,.51-1.94c-.4-.75-.76-1.52-1.1-2.29l-.24-.57c-.07-.16.09.23,0,0L42,65.54l-.49-1.2c-.67-1.66-1.35-3.32-2.17-4.92a1.42,1.42,0,0,0-1.94-.5,1.46,1.46,0,0,0-.51,1.94Z"/><path d="M44.7,51.53a37.12,37.12,0,0,0-14.18-1.08A18.34,18.34,0,0,0,19,56.6a21.5,21.5,0,0,0-3.87,6.95,10.67,10.67,0,0,0-.35,6.2c1,3.64,4.25,5.93,7.14,8l1.08.79.57.43.25.19.11.08,0,0A24.78,24.78,0,0,1,25.94,81c.33.32.64.64.94,1l.4.48-.07-.09.08.1.22.31a10.72,10.72,0,0,1,.84,1.43l.09.2,0,.08,0-.09a1.74,1.74,0,0,0,.16.41c.11.3.2.6.28.91s.14.57.2.86.05.28.07.43,0,.38,0,0a2.6,2.6,0,0,0,0,.26,18.19,18.19,0,0,1,.1,1.95A37.27,37.27,0,0,1,29.06,93a39.09,39.09,0,0,0-.4,7.64,10.46,10.46,0,0,0,3.25,7,7.37,7.37,0,0,0,3.4,1.82,4.48,4.48,0,0,0,3.88-1c1.68-1.48,1.88-4,1.89-6.14,0-2.25-.26-4.49-.43-6.73a21.5,21.5,0,0,1,0-2.78c0-.71.09-1.42.17-2.13l.06-.47,0-.23c0-.22-.06.37,0,0s.1-.67.16-1a23.62,23.62,0,0,1,1-3.72c.1-.28.2-.56.31-.83a1.86,1.86,0,0,0,.1-.25c0-.1.12-.16,0,.1a4.31,4.31,0,0,0,.22-.49c.27-.58.56-1.16.88-1.71s.69-1.14,1.07-1.69c.18-.26.37-.52.56-.77,0-.07.27-.29,0,0a1.83,1.83,0,0,0,.13-.16c.12-.15.24-.31.37-.46.77-.93,1.62-1.78,2.48-2.64,1.82-1.79,3.67-3.67,4.58-6.1a7.07,7.07,0,0,0,.29-3.84,1.43,1.43,0,0,0-1.75-1,1.46,1.46,0,0,0-1,1.75,2.17,2.17,0,0,0,0,.25c-.1-.3,0-.26,0-.14s0,.27,0,.41v.4c0,.07,0,.15,0,.23s-.09.33,0-.07c-.06.26-.09.51-.16.77l-.12.37-.09.22c-.09.24.14-.3,0-.05A9.77,9.77,0,0,1,49,71.1a4.15,4.15,0,0,1-.24.34l-.12.17c-.12.16.22-.28,0-.06s-.39.49-.6.72c-1.56,1.78-3.38,3.31-4.86,5.17a24.23,24.23,0,0,0-4,7.14,29.3,29.3,0,0,0-1.44,7.76,24,24,0,0,0,0,2.94c.08,1,.18,2.08.27,3.12s.18,2.27.19,3.4q0,.8,0,1.59c0,.24,0,.48-.06.73a1.11,1.11,0,0,1,0,.17c0,.27,0-.32,0-.13l-.06.37c-.08.43-.24.83-.36,1.26.12-.46.08-.17,0,0l-.13.24-.15.22c-.12.18.23-.27,0-.06l-.16.17c-.08.09-.18.16-.27.25.3-.31.07-.06-.06,0s-.45.14,0,0c-.13,0-.25.09-.38.12l-.17,0c-.17,0,.41,0,.15,0h-.34l-.34,0c.5,0,0,0-.11,0l-.35-.1c-.13,0-.47-.25-.08,0-.24-.14-.51-.25-.75-.4l-.33-.22-.13-.1c-.25-.17.26.22,0,0a7.68,7.68,0,0,1-.67-.61c-.2-.2-.38-.42-.56-.63s0-.12.07.08a1.49,1.49,0,0,0-.15-.2l-.26-.39a7.58,7.58,0,0,1-.4-.74l-.09-.19c-.12-.26.11.26,0,.08S32,103,32,102.87a9.83,9.83,0,0,1-.42-1.68c0-.08,0-.16,0-.25s0,.11,0,.13,0-.27-.05-.41c0-.31-.05-.62-.06-.94a30.53,30.53,0,0,1,.15-3.7,59.29,59.29,0,0,0,.52-7.53,13.19,13.19,0,0,0-2.22-7.23,19.94,19.94,0,0,0-3.89-4c-.78-.61-1.58-1.21-2.39-1.79l-1.08-.79-.5-.37-.25-.19c-.09-.07-.47-.37-.06,0a24.82,24.82,0,0,1-1.92-1.64c-.28-.28-.56-.56-.82-.86l-.36-.43c-.1-.14.24.31.1.13l-.08-.12L18.46,71a9.05,9.05,0,0,1-.59-1,2.72,2.72,0,0,1-.11-.25c-.15-.3.12.33,0,0a5.71,5.71,0,0,1-.21-.58c0-.18-.1-.37-.14-.55a2.93,2.93,0,0,1-.05-.29,1,1,0,0,1,0-.17c0-.23,0,.39,0,.14a8,8,0,0,1-.05-1.3c0-.22,0-.44.05-.66s-.05.32,0,.14l0-.18c0-.14.05-.28.08-.42a12.55,12.55,0,0,1,.42-1.57c.09-.26.19-.53.29-.79a2.89,2.89,0,0,1,.18-.44s-.13.3,0,.08l.13-.3c.25-.56.53-1.11.82-1.65s.61-1,.94-1.52l.48-.67c.18-.24-.21.27,0,0l.1-.12.3-.37a16.37,16.37,0,0,1,2.32-2.24c.17-.14-.1.07-.11.08l.18-.13.3-.22c.22-.16.44-.31.67-.45.44-.28.89-.53,1.34-.76l.67-.32c.11,0,.22-.09.33-.15l-.14.06.24-.09a15.08,15.08,0,0,1,1.43-.49,21.09,21.09,0,0,1,3.06-.66c.29,0-.37,0-.08,0l.15,0,.38,0,.84-.08c.54,0,1.08-.06,1.63-.06,1.11,0,2.22,0,3.33.14l.8.09.4.05.16,0c.29,0-.36,0,0,0,.57.08,1.14.17,1.7.27,1.11.2,2.2.44,3.29.71a1.42,1.42,0,1,0,.76-2.74Z"/><path d="M14.66,125.48l.1.24.18.47q.17.42.3.84c.21.59.4,1.19.59,1.78.37,1.17.74,2.33,1.21,3.46l.65-1.6-.55.26c-.08,0-.59.28-.22.1a10.45,10.45,0,0,1-1.1.43c-.7.25-1.41.46-2.12.68a26.19,26.19,0,0,0-4.2,1.57,11.26,11.26,0,0,0-3.7,3,21.47,21.47,0,0,0-2.61,4.34,35.6,35.6,0,0,0-2.8,9.75,32.18,32.18,0,0,0,0,9.65A26.11,26.11,0,0,0,8.21,175a40.67,40.67,0,0,0,15.91,9.11,37.6,37.6,0,0,0,20.55.81,34.56,34.56,0,0,0,9.48-4.05,45.45,45.45,0,0,0,7.66-6.09A34.58,34.58,0,0,0,71,160.14,34.2,34.2,0,0,0,71,142a21,21,0,0,0-2.76-7,11.69,11.69,0,0,0-5.78-4.21,13.61,13.61,0,0,0-4.11-.92c-.47,0-.93,0-1.4,0h-.54c-.29,0,.41.11.12,0l-.09,0c-.26,0,.33.17.17.07s.3.28.12.1.24.34.13.18-.06-.1,0-.1.13.39.09.22a.74.74,0,0,0,0-.14,1,1,0,0,0,0-.15c.13.42,0,.3,0,.15s0-.56,0-.84l0-.28c0-.35-.07.31,0,0a3.43,3.43,0,0,1,.11-.46,1.36,1.36,0,0,0,.09-.23c0,.24-.11.23,0,.1s.15-.3.23-.45c.19-.32.4-.62.61-.91.07-.09.06-.17,0,.06a.76.76,0,0,1,.18-.22l.31-.38c.25-.3.51-.59.77-.89a11.77,11.77,0,0,0,2.51-3.7,1.41,1.41,0,0,0-.37-1.38,29.35,29.35,0,0,0-12.91-8,35.23,35.23,0,0,0-14.38-.9,61.1,61.1,0,0,0-8.58,1.69,25.68,25.68,0,0,0-9.26,4.24,8.45,8.45,0,0,0-2.67,3.55,6.51,6.51,0,0,0,0,4.44,12.68,12.68,0,0,0,.59,1.36,1.44,1.44,0,0,0,1.95.51,1.46,1.46,0,0,0,.51-1.94c-.1-.18-.18-.37-.27-.55s.14.36,0,0c0-.1-.07-.2-.1-.3a6.71,6.71,0,0,1-.25-1c-.05-.28,0,.41,0,.07a1.49,1.49,0,0,1,0-.21,3.73,3.73,0,0,1,0-.47c0-.15,0-.29,0-.44s-.07.42,0,.2a.3.3,0,0,0,0-.1c0-.08,0-.16.05-.24s.07-.26.11-.39l.07-.21,0-.09c.09-.25-.14.28-.07.15a7.37,7.37,0,0,1,.43-.78l.25-.36c.09-.13-.23.28-.12.16l.08-.1.15-.19a7.27,7.27,0,0,1,.68-.68c.13-.12.25-.23.39-.34l.18-.15-.15.12.14-.11c.29-.21.58-.41.88-.6a19.28,19.28,0,0,1,2-1.08l.49-.22.28-.12c.05,0,.21-.09,0,0s0,0,.05,0c.37-.15.74-.3,1.12-.43.76-.28,1.53-.54,2.3-.77a57.59,57.59,0,0,1,8.42-1.79c.15,0,.65-.09,0,0l.36,0c.42-.06.83-.1,1.25-.14a36.43,36.43,0,0,1,3.76-.2c1.21,0,2.42.05,3.62.17l.46.06c.08,0,.61.06.18,0,.29,0,.6.09.89.14.58.1,1.15.21,1.72.34a26.43,26.43,0,0,1,3.36,1l.74.28.18.08c.31.12-.22-.1,0,0l.45.2c.53.24,1.05.49,1.56.76a27.24,27.24,0,0,1,3,1.86,4.7,4.7,0,0,0,.74.55l0,0,.16.13.41.32c.48.4.94.8,1.39,1.23s.92.88,1.35,1.34l-.36-1.39c0,.12-.17.28,0,0a1.36,1.36,0,0,0-.1.21c-.07.13-.13.25-.21.37s-.15.24-.23.36l-.15.22-.11.15,0-.07c0,.13-.21.27-.29.37s-.21.25-.31.37l-.78.88a11.54,11.54,0,0,0-2.51,3.8,6.52,6.52,0,0,0-.28,2.15,3.1,3.1,0,0,0,.45,1.68c.68,1,1.79,1,2.89,1a9.62,9.62,0,0,1,1.52,0c.14,0,.32.1,0,0l.25,0,.43.1c.37.08.73.18,1.09.29.6.17,1.17.4,1.75.61-.44-.16,0,0,.1,0l.37.18c.25.13.5.26.74.4s.43.27.64.42l.11.08c.12.09.17.22-.07-.05.09.09.22.17.31.25a9.19,9.19,0,0,1,1,1l.12.16c.17.2-.21-.3-.06-.08l.2.27c.16.23.3.46.44.7a12.68,12.68,0,0,1,.71,1.43c.11.25-.11-.28,0-.1l.08.18.15.41c.11.29.22.59.31.89.21.62.39,1.25.56,1.88a42.86,42.86,0,0,1,1,4.6c0,.17,0,.35.08.52,0,.36,0-.32,0,0l0,.21c0,.4.09.81.13,1.22q.09,1.09.12,2.19a31.18,31.18,0,0,1-.21,4.32,1.11,1.11,0,0,0,0,.19c0,.33,0-.34,0,0,0,.15,0,.31-.07.46-.06.37-.13.74-.2,1.1-.13.66-.28,1.32-.46,2s-.38,1.29-.6,1.92c-.11.32-.22.63-.34.94-.06.14-.12.29-.17.43a1.12,1.12,0,0,0-.11.25l0-.09-.06.13a29.45,29.45,0,0,1-1.88,3.61q-.52.87-1.11,1.71l-.6.84c-.1.12-.19.25-.28.37-.2.27.19-.25,0,0l-.18.22A41.5,41.5,0,0,1,57,175.24c-.29.25-.58.48-.88.72l-.4.32c-.29.22.24-.18,0,0l-.29.22c-.69.52-1.39,1-2.11,1.49a33.41,33.41,0,0,1-4.39,2.41l-.56.24h0l-.31.13-1.15.44q-1.17.42-2.37.75c-.79.22-1.6.41-2.41.57l-1.08.19-.66.1c-.26,0,0,0,0,0-.14,0-.29,0-.43.06a32.88,32.88,0,0,1-4.86.21c-.85,0-1.71-.07-2.56-.15l-1.12-.13h-.07l-.34-.05-.67-.1a39.92,39.92,0,0,1-4.92-1.16c-.84-.25-1.67-.53-2.5-.84-.39-.14-.77-.29-1.16-.45l-.54-.22c-.2-.08.32.14,0,0l-.37-.16a39.71,39.71,0,0,1-7.46-4.21c-.26-.18-.51-.37-.75-.56s.25.2,0,0l-.22-.18c-.15-.11-.29-.23-.43-.35-.52-.43-1-.87-1.52-1.33a28.32,28.32,0,0,1-2.74-2.95l-.14-.18L7.55,170l.06.08c0-.11-.21-.28-.27-.36-.21-.29-.42-.58-.62-.88-.36-.54-.71-1.1-1-1.67s-.62-1.15-.9-1.74l-.2-.45a1.33,1.33,0,0,0-.09-.21c.2.33,0,.11,0,0-.13-.31-.24-.62-.36-.93a23.64,23.64,0,0,1-1-4c0-.15,0-.31-.07-.46a1.18,1.18,0,0,0,0-.28c.1.13,0,.27,0,0s-.09-.73-.12-1.1c-.05-.72-.08-1.43-.07-2.15s0-1.49.09-2.23c0-.38.06-.77.1-1.15l.06-.53a3.11,3.11,0,0,0,0-.32c0-.16,0-.14,0,.06l0-.21a38.11,38.11,0,0,1,1-4.75c.22-.79.46-1.56.73-2.33.14-.38.28-.76.43-1.14,0-.1.08-.2.13-.3s.09-.25,0,0c.08-.22.19-.44.29-.65a21.52,21.52,0,0,1,1.11-2.13c.17-.3.36-.6.55-.89l.35-.51.14-.19c.09-.13.09-.13,0,0l.15-.18a10.84,10.84,0,0,1,.8-.87l.38-.34.23-.2c.22-.18-.23.16,0,0a12.62,12.62,0,0,1,1.8-1.08c.1,0,.41-.25.51-.23-.07,0-.26.11-.08,0l.26-.1c.35-.14.7-.26,1.06-.38.66-.22,1.32-.42,2-.62a27.4,27.4,0,0,0,4.2-1.62,1.43,1.43,0,0,0,.65-1.61c-1-2.44-1.61-5-2.66-7.47a1.42,1.42,0,0,0-1.94-.5,1.46,1.46,0,0,0-.51,1.94Z"/><path d="M24.71,125.25a8.61,8.61,0,0,0,4.38,2,22.53,22.53,0,0,0,5.74.25,42.18,42.18,0,0,0,12-2.67,19.44,19.44,0,0,0,4.89-2.49,1.62,1.62,0,0,0,.65-.85,1.48,1.48,0,0,0-.14-1.09,1.44,1.44,0,0,0-2-.51A13.1,13.1,0,0,1,48.65,121c-.34.18-.68.34-1,.51l-.57.25-.23.1c-.24.11.34-.14.1,0l-.18.08a40.74,40.74,0,0,1-5.39,1.73c-1,.24-2,.46-3,.63-.48.09-1,.17-1.44.23-.1,0-.39,0,.07,0h-.15l-.38,0-.75.08a25.1,25.1,0,0,1-5.48,0l.16,0-.19,0-.33,0-.64-.14a8.16,8.16,0,0,1-1.19-.36c-.13,0-.46-.22,0,0l-.26-.12c-.17-.08-.33-.17-.49-.26s-.3-.19-.45-.3-.18-.18.16.13a.48.48,0,0,0-.11-.09l-.21-.19a1.42,1.42,0,0,0-2,2Z"/><path d="M8.51,157.15c2.08-.34,3.8-1.87,5.26-3.28.76-.74,1.48-1.5,2.24-2.23.35-.34.71-.68,1.09-1l.26-.22c.27-.22-.27.2,0,0s.38-.27.58-.39a5.54,5.54,0,0,1,.53-.3c.09-.05.19-.08.27-.13-.35.21-.26.1-.13,0l.17-.06a3.29,3.29,0,0,1,.54-.14l.17,0c-.43.1-.31,0-.19,0h.62c.15,0,.17.09-.18,0l.17,0a3.23,3.23,0,0,1,.66.2s-.35-.17-.17-.07l.16.08.25.15.1.07c.13.08.13.19-.11-.09a2.85,2.85,0,0,0,.26.23l.19.21.09.11c.12.12-.23-.33-.1-.13a6.06,6.06,0,0,1,.35.53l.13.27c.07.13.14.45,0,0,.07.22.17.43.24.64a18.67,18.67,0,0,1,.58,2.77c.27,1.7.41,3.65,1.43,5.1a8.59,8.59,0,0,0,4.12,3.36c2.88,1,5.45-1.13,7.19-3.2,1-1.23,1.94-2.55,2.85-3.87.42-.62.84-1.24,1.27-1.85l.63-.88.32-.43.07-.09c.14-.18-.24.3-.1.13l.17-.21A13.24,13.24,0,0,1,41.78,151c.2-.2.42-.37.63-.55-.45.38-.08.06.05,0s.22-.14.33-.21l.32-.16c-.48.25-.15.06,0,0l.3-.07c.25-.05-.44,0-.19,0h.5c-.54,0-.18,0,0,0a2.47,2.47,0,0,1,.36.11c.34.12-.31-.16,0,0l.28.15.26.18c.21.14-.28-.23-.08-.07l.15.13c.16.14.32.3.47.46l.24.28.11.13c.15.19,0,0,0-.07.29.43.6.84.88,1.28a23,23,0,0,0,1.81,2.58,6,6,0,0,0,2.86,1.8,4.23,4.23,0,0,0,3.31-.19c1.64-.91,2.14-2.95,3-4.47.11-.2.23-.39.35-.58l.19-.29a1.71,1.71,0,0,0,.11-.14c0-.08-.24.3,0,0a11.54,11.54,0,0,1,1-1.07c.15-.14.3-.28.46-.41a1.92,1.92,0,0,0,.22-.18c-.4.35-.09.08,0,0a5,5,0,0,1,.84-.49c-.47.23-.13.05.06,0l.17-.05h.06c.25-.05-.41,0-.21,0h.3c.28,0-.36-.07-.21,0l.17,0,.13,0c.15,0-.42-.21-.18-.07l.27.16c.12.08-.35-.29-.15-.11l.11.1c.08.08.15.17.23.26s-.27-.37-.1-.13c0,.05.07.1.1.16a3.87,3.87,0,0,1,.21.34q.2.36.36.75c.08.17-.1-.26-.09-.23a.61.61,0,0,0,0,.12c0,.06,0,.13.07.2s.12.29.17.44c.11.3.21.61.31.91.41,1.28.76,2.57,1.27,3.82a7.8,7.8,0,0,0,2.47,3.57,4.19,4.19,0,0,0,2,.71,1.43,1.43,0,0,0,1.42-1.42,1.42,1.42,0,0,0-.42-1,1.59,1.59,0,0,0-1-.42c.63.08.13,0,0,0l-.19-.06c-.24-.08.4.19.12,0a1.87,1.87,0,0,1-.31-.17l-.14-.1c-.12-.07.2.15.2.16a.48.48,0,0,0-.11-.09,7,7,0,0,1-.53-.57c.38.43.06.07,0-.07a3,3,0,0,1-.24-.38c-.15-.27-.29-.55-.42-.83a.67.67,0,0,0-.1-.23s.16.39.1.22l-.06-.13-.18-.47c-.23-.63-.44-1.27-.64-1.9A28.13,28.13,0,0,0,64.15,149a4.18,4.18,0,0,0-2.63-2.47c-1.65-.38-3.16.63-4.34,1.68a10.92,10.92,0,0,0-2.08,2.42c-.48.79-.83,1.64-1.24,2.47a7.7,7.7,0,0,1-.57,1,1.46,1.46,0,0,1-.09.13s.26-.32.13-.17l-.17.18c0,.06-.12.11-.17.16s.32-.22.14-.1l-.12.08-.21.11c-.19.1.38-.13.17-.07l-.12,0c-.17.05-.43,0,0,0h-.3a1.15,1.15,0,0,1-.32,0s.41.06.19,0l-.2,0a5.41,5.41,0,0,1-.81-.24.77.77,0,0,0-.16-.07l.17.08-.17-.08L51,154c-.08,0-.16-.1-.24-.15s-.17-.2.1.09a1.5,1.5,0,0,0-.13-.11c-.15-.13-.29-.28-.43-.42l-.2-.24L50,153c-.17-.2.21.29.06.08-.59-.81-1.1-1.67-1.66-2.49-1.15-1.68-2.8-3.49-5-3.37a5.65,5.65,0,0,0-3.48,1.72,22.08,22.08,0,0,0-2.75,3.35c-.87,1.23-1.7,2.5-2.58,3.73-.22.31-.45.63-.69.94-.07.1-.29.37,0,0l-.15.2-.36.44A14.63,14.63,0,0,1,32,159l-.35.32-.19.15c-.27.22.26-.19.07-.05a7.2,7.2,0,0,1-.74.48l-.35.18c-.25.12.39-.15.13-.06l-.22.08a2,2,0,0,1-.35.1l-.19,0c-.32.07.4,0,.13,0l-.37,0h-.21c-.08,0-.38,0-.05,0s.06,0,0,0l-.21-.05a3.45,3.45,0,0,1-.42-.14c-.26-.09.37.17.11.05l-.2-.1-.43-.25-.2-.14c-.11-.08-.35-.3,0,0l-.45-.38a10.77,10.77,0,0,1-.87-.92l-.23-.28-.11-.14c.29.35.16.22.11.14a4.85,4.85,0,0,1-.29-.49,1.28,1.28,0,0,1-.11-.24s.15.38.08.19l-.06-.15q-.11-.3-.18-.6c-.12-.41-.2-.83-.28-1.25a25,25,0,0,0-1.28-5.69,5.17,5.17,0,0,0-4.86-3.26c-2.14.1-3.88,1.52-5.36,2.94-.74.71-1.45,1.46-2.18,2.17-.37.37-.75.73-1.14,1.07l-.57.47.12-.09-.16.12-.33.24a7,7,0,0,1-1.13.64c-.32.15.32-.12,0,0l-.29.1a6.38,6.38,0,0,1-.66.15,1.43,1.43,0,0,0-1,1.75,1.47,1.47,0,0,0,1.75,1Z"/><path d="M71.76,10.27c2,0,3.93-.18,5.89-.07l.72.05.37.05.16,0a12.55,12.55,0,0,1,1.38.31c.23.07.45.14.67.23l.17.07c-.09,0-.08,0,0,0l.3.14c.21.11.42.22.62.35l.33.21s.31.23.2.14a1,1,0,1,0,1.4-1.4,10.86,10.86,0,0,0-6.06-2.14c-2.06-.16-4.12,0-6.18,0a1,1,0,0,0-1,1,1,1,0,0,0,1,1Z"/><path d="M80.15,1.94a10.94,10.94,0,0,1,1.38.41l.28.1.17.07c.1,0,.12,0,.06,0l.22.1.25.12a16.24,16.24,0,0,1,2,1.23c1.35,1,2.62,2,4,2.9a1,1,0,0,0,1-1.71c-1.42-.9-2.71-2-4.09-2.95A14.25,14.25,0,0,0,80.68,0a1,1,0,0,0-1.22.69,1,1,0,0,0,.69,1.22Z"/><path d="M112.78,13.61A12.3,12.3,0,0,0,110.86,6a12.4,12.4,0,0,0-5.93-4.48A20,20,0,0,0,97,.37a27,27,0,0,0-8.26,1.49A20.51,20.51,0,0,0,81.89,6a22.86,22.86,0,0,0-5.12,7.16c-2.71,5.93-3,13.22,0,19.11a12.6,12.6,0,0,0,5.52,5.88A32.11,32.11,0,0,0,89.07,40c.64.15,1.27.31,1.9.5a1,1,0,0,0,.53-1.91c-2.28-.67-4.65-.94-6.91-1.64-.23-.08-.46-.15-.68-.24s-.32-.07-.37-.14l.12,0-.12,0-.21-.1A9.29,9.29,0,0,1,82,35.72l-.33-.25-.19-.15c-.23-.2-.45-.4-.66-.62a8,8,0,0,1-.61-.68,1.83,1.83,0,0,1-.13-.16s-.19-.24-.06-.07l-.36-.5a17.56,17.56,0,0,1-1.19-2c-.16-.31-.3-.63-.44-.95.08.18,0-.11,0-.12L77.83,30l-.21-.58a20.86,20.86,0,0,1-.6-2.19q-.12-.57-.21-1.14a2.89,2.89,0,0,1,0-.29c0,.17,0,0,0,0,0-.22-.05-.45-.07-.68a22.87,22.87,0,0,1,.07-4.68c0-.1,0-.2,0-.3,0,.17,0,0,0,0,0-.2.06-.39.1-.58.07-.42.15-.83.24-1.24.17-.73.37-1.44.6-2.15q.18-.54.39-1.08l.18-.44c-.08.19,0-.1,0-.11l.16-.34a20.79,20.79,0,0,1,1-2,21.49,21.49,0,0,1,1.17-1.81L81,10l.15-.21c-.13.18,0-.05.06-.07.23-.28.46-.57.71-.84a16.9,16.9,0,0,1,1.32-1.36c.23-.22.47-.43.72-.64l.34-.28.16-.13c.08-.06.08-.06,0,0l.13-.09A18.62,18.62,0,0,1,87.8,4.4l.39-.18.18-.08s.28-.12,0,0l1-.37c.58-.21,1.17-.39,1.76-.55s1.27-.31,1.92-.43l1-.16.17,0h.07l.59-.07A30.32,30.32,0,0,1,99,2.34c.62,0,1.23.07,1.85.15.27,0-.22,0,0,0l.23,0,.47.08.91.19a15.63,15.63,0,0,1,1.73.53l.41.16s.28.12,0,0l.13.06c.29.13.57.26.85.41a12,12,0,0,1,1.44.91l.14.1c.12.09-.18-.15,0,0l.32.26c.21.18.41.37.61.57s.38.41.56.62l.13.16c.15.19-.13-.17,0,0l.24.34A10.26,10.26,0,0,1,110,8.43c0,.06.05.13.08.2-.1-.24,0,0,0,0l.12.34c.11.31.21.62.29.94s.13.55.18.83l0,.23s0,.31,0,.06a5.32,5.32,0,0,1,.06.56,13.22,13.22,0,0,1,0,2,1,1,0,0,0,1,1,1,1,0,0,0,1-1Z"/><path d="M80.41,28.3a1,1,0,1,0-1-1,1,1,0,0,0,1,1Z"/><path d="M89.07,22.89a1,1,0,1,0-1-1,1,1,0,0,0,1,1Z"/><path d="M119.14,33.21a31.66,31.66,0,0,0,7.44-4.88c2.1-1.92,4.17-4.79,3.15-7.79a8,8,0,0,0-3.26-3.95,8.23,8.23,0,0,0-4.16-1.16,15.65,15.65,0,0,0-8.9,2.88C111,20,108.58,22.37,108,25.36a7.37,7.37,0,0,0-.13,1.14,1,1,0,0,0,.86,1,1,1,0,0,0,1.08-.71,13.79,13.79,0,0,0,.56-4.14,19.64,19.64,0,0,0-.57-4.77,11.6,11.6,0,0,0-2-4.26,7.85,7.85,0,0,0-3.51-2.4A5.22,5.22,0,0,0,101,11a4.89,4.89,0,0,0-2.52,1.88,12.9,12.9,0,0,0-2,6.37,22.9,22.9,0,0,0,.17,6.35c0,.19.07.37.11.55a1,1,0,0,0,1.22.69,1,1,0,0,0,.69-1.22c0-.17-.08-.35-.11-.52s0-.19,0-.28,0-.48,0-.09c0-.45-.1-.89-.12-1.34a24.51,24.51,0,0,1,0-3.09c0-.55.14-1.1.16-1.65,0,.16,0,.18,0,0l0-.19c0-.14,0-.28.07-.42s.1-.53.16-.79a13.06,13.06,0,0,1,.42-1.48l.12-.34.07-.16c0-.13-.1.22,0,0s.2-.43.31-.64a6.42,6.42,0,0,1,.34-.56l.09-.13,0,0c-.11.15,0,0,0,0l.11-.13a3.64,3.64,0,0,1,.45-.43l0,0c.11-.1-.1.08-.1.08l.12-.09.26-.17.26-.13c.14-.07-.23.09-.08,0l.15-.06.29-.08.14,0s.27,0,.07,0,0,0,0,0h.63a1.51,1.51,0,0,0,.38.06,5.81,5.81,0,0,1,.78.24l.16.06c.16.06-.05,0-.06,0a.54.54,0,0,0,.11.05l.42.2c.3.16.6.33.89.52l.19.12.1.07L105.5,14l.36.31.31.32.14.18a.46.46,0,0,1,.07.07c.11.14-.09-.12,0,0,.19.28.37.54.54.83s.3.59.44.89,0,0,0,0a.3.3,0,0,1,0,.1,2.44,2.44,0,0,1,.1.24l.18.53a14.49,14.49,0,0,1,.53,2.16c0,.17.06.33.08.5l0,.16s0-.19,0-.07,0,.23,0,.34c0,.36.06.72.08,1.08a17.13,17.13,0,0,1,0,2.15c0,.16,0,.33,0,.49a1.5,1.5,0,0,0,0,.2c0,.05,0,.09,0,.14s0-.16,0,0c0,.29-.1.58-.16.87a8.12,8.12,0,0,1-.22.81l1.95.26c0-.14,0-.29,0-.44s0,.18,0,0,0-.17,0-.26a6.2,6.2,0,0,1,.24-.87c0-.07,0-.13.07-.2a1.17,1.17,0,0,1,0-.11c.06-.16,0,.05,0,.06a3.68,3.68,0,0,0,.21-.45,6.87,6.87,0,0,1,.48-.83c.08-.14.18-.27.27-.41l.14-.18s.11-.15,0,0l.11-.13a10,10,0,0,1,.67-.77,14.74,14.74,0,0,1,1.61-1.45l.08-.06.21-.15.48-.33c.3-.21.62-.4.93-.58s.67-.37,1-.54l.47-.22.26-.12s.14-.06,0,0,.06,0,.09,0a14.91,14.91,0,0,1,2.08-.69c.36-.09.71-.17,1.07-.23l.24,0c.23,0-.14,0,0,0l.54-.06q.5,0,1,0l.48,0H123s.35.05.18,0l.12,0,.24.05.48.11.41.12.23.09.08,0c.17.06,0,0,0,0a1.38,1.38,0,0,1,.41.19l.38.23.37.25c.11.07-.18-.14,0,0l.1.08.31.27a7.65,7.65,0,0,1,.89.91l.08.09c.09.1-.1-.14,0,0l.15.21c.1.15.2.31.29.47s.22.41.21.41-.08-.2,0-.06l0,.12a2.25,2.25,0,0,1,.08.24c0,.14.08.29.11.44s0,0,0,0,0,.25,0,.26a3.09,3.09,0,0,1,0,.43c0,.07,0,.14,0,.21a.22.22,0,0,0,0,.08c0,.21,0-.24,0,0s-.12.57-.21.86c0,.06,0,.13-.08.19-.08.23.07-.14,0,0s-.14.3-.22.44A6.66,6.66,0,0,1,127,25l-.13.19c0,.05-.22.28,0,.07l-.32.39c-.24.27-.48.54-.74.79a17.8,17.8,0,0,1-1.66,1.47c-.07.05-.22.17-.06.05l-.24.18-.44.33-.94.64a36.12,36.12,0,0,1-3.51,2.05l-.73.37a1,1,0,0,0,1,1.71Z"/><path d="M94.7,33.66a16,16,0,0,0-2.71,7,14.19,14.19,0,0,0,.7,6.49,16.16,16.16,0,0,0,9,9.41,16.33,16.33,0,0,0,6.77,1.22,19,19,0,0,0,7.35-1.87,16.33,16.33,0,0,0,6-4.52A9.79,9.79,0,0,0,123.61,48a13.53,13.53,0,0,0,.38-2.68,17.21,17.21,0,0,0-.48-5.72,6.06,6.06,0,0,0-3.45-4.38,4.88,4.88,0,0,0-1.42-.26,1,1,0,0,0-1,1,1,1,0,0,0,1,1,.8.8,0,0,1,.31,0c-.21-.1-.14,0,0,0l.12,0,.28.07c.05,0,.26.13.31.11s-.2-.1-.06,0l.12.06.24.14c.06,0,.19.09.22.15s-.16-.14-.07,0l.16.14a3.24,3.24,0,0,1,.36.38l.09.11s-.14-.2,0-.05l.18.26c.11.17.2.34.29.51s.08.18.13.27,0,.21,0,0a1.22,1.22,0,0,0,.07.17,9.45,9.45,0,0,1,.39,1.28c0,.2.09.4.13.6s0,.22,0,.33l0,.16c0,.25,0,0,0,0a3.28,3.28,0,0,1,.07.67c0,.24,0,.48,0,.72,0,.45,0,.91,0,1.36s0,.8,0,1.2l-.06.55,0,.26c0,.09-.06.25,0-.06,0,0,0,.1,0,.15a8.25,8.25,0,0,1-.28,1.29l-.13.37-.08.18c.08-.2,0,0,0,0-.12.25-.24.5-.38.74a7.82,7.82,0,0,1-.43.68,2.85,2.85,0,0,1-.25.33c.13-.16,0,0,0,0l-.18.22a12.88,12.88,0,0,1-1.22,1.23c-.21.19-.44.37-.66.55s.18-.13,0,0a1.09,1.09,0,0,0-.17.13l-.39.27a17.11,17.11,0,0,1-1.57,1c-.53.28-1.06.55-1.61.79l-.2.09c-.25.11.12,0,0,0l-.39.15-.84.31c-.54.18-1.09.34-1.64.47l-.84.18-.41.07-.17,0c-.2,0,.15,0-.11,0a15,15,0,0,1-3.35,0l-.39,0-.16,0c.26,0,0,0,0,0l-.8-.14c-.51-.11-1-.24-1.52-.4l-.72-.25-.36-.13-.17-.07.06,0-.14-.06a15.37,15.37,0,0,1-2.66-1.51l-.3-.21-.14-.11c-.13-.09.18.14,0,0s-.42-.34-.62-.52c-.38-.33-.74-.68-1.08-1-.16-.17-.31-.35-.46-.52l-.24-.28-.13-.17c-.16-.2.12.17,0,0A15.71,15.71,0,0,1,95,47.64l-.15-.33s-.11-.27,0,0l-.06-.13c-.09-.25-.19-.5-.27-.75a12.3,12.3,0,0,1-.41-1.47c0-.24-.1-.48-.14-.72,0-.07-.06-.45,0-.17,0-.12,0-.24,0-.37a13.3,13.3,0,0,1-.06-1.55c0-.25,0-.5,0-.75l0-.38c0-.05,0-.1,0-.15a.77.77,0,0,1,0-.15c0,.14,0,.15,0,0,.08-.52.18-1,.31-1.53a15.77,15.77,0,0,1,.53-1.6c0-.06,0-.12.08-.19s-.1.22,0,0l.17-.38c.14-.28.28-.56.43-.83a15.7,15.7,0,0,1,.93-1.51,1,1,0,0,0-.36-1.35,1,1,0,0,0-1.36.35Z"/><path d="M102.91,39a51.38,51.38,0,0,1,4.65-2.58l.72-.32.19-.08.44-.16a14.61,14.61,0,0,1,1.46-.47q.36-.09.72-.15a1.13,1.13,0,0,0,.32-.06c-.15.09-.16,0,0,0l.25,0c.21,0,.42,0,.64,0l.32,0c.1,0,.22,0,0,0a1,1,0,0,1,.17,0,5.45,5.45,0,0,1,.69.2c.16.06-.09,0-.09,0s.17.08.2.1a2.61,2.61,0,0,1,.28.17c.1.06.17,0,0,0a1,1,0,0,1,.17.14l.24.25s.19.18,0,0a.78.78,0,0,1,.1.15,2.85,2.85,0,0,1,.23.37,1,1,0,1,0,1.71-1,4.23,4.23,0,0,0-2.49-2.09,6.54,6.54,0,0,0-3.2-.07,20.7,20.7,0,0,0-6.26,2.55c-.81.45-1.6.94-2.39,1.41a1,1,0,0,0-.35,1.36,1,1,0,0,0,1.35.35Z"/><path d="M104.19,48.93a34,34,0,0,1,4.55-4.67L109,44l.19-.15s-.13.1,0,0l.69-.5c.44-.31.89-.59,1.36-.86a15.29,15.29,0,0,1,1.46-.73c.14-.07-.13.05,0,0l.17-.07.39-.15c.26-.09.52-.18.79-.25s.57-.15.85-.21l.41-.07.18,0a1.08,1.08,0,1,0,.11,0,10.72,10.72,0,0,1,1.88,0,1,1,0,0,0,1-1,1,1,0,0,0-1-1c-4.79-.33-9,2.54-12.27,5.79-.88.89-1.7,1.83-2.5,2.8a1,1,0,0,0,0,1.4,1,1,0,0,0,1.4,0Z"/><path d="M111.05,50c.42-.43.84-.86,1.28-1.27l.82-.76.41-.35.24-.19.14-.11.14-.11a2.2,2.2,0,0,1,.25-.17l.42-.29.48-.28.18-.09s.32-.17,0,0a2.58,2.58,0,0,1,.39-.14l.22,0c.26-.06-.17,0,0,0a.75.75,0,0,1,.15,0h.1c.1,0,.06,0-.12,0a1,1,0,0,0,.18.05c.15,0-.24-.12,0,0a1,1,0,0,0,1-1.71,3.43,3.43,0,0,0-3.41.45,17,17,0,0,0-3.08,2.47q-.61.59-1.2,1.2a1,1,0,1,0,1.4,1.4Z"/><path d="M118.5,53.41a17.55,17.55,0,0,0,6,3.35,1,1,0,0,0,.53-1.92,6.65,6.65,0,0,1-.76-.23l-.41-.15-.1,0-.11-.05c-.49-.23-1-.48-1.44-.76a28.29,28.29,0,0,1-2.72-1.91,1,1,0,0,0-1.35.35,1,1,0,0,0,.35,1.36Z"/></g></g></svg>