<svg xmlns="http://www.w3.org/2000/svg" viewBox="0 0 175.99 251.75"><defs><style>.cls-1{fill:#a8974e;}.cls-2{fill:#fbe98e;}.cls-3{fill:#ffd217;}</style></defs><g id="Layer_2" data-name="Layer 2"><g id="Layer_7" data-name="Layer 7"><ellipse class="cls-1" cx="48.88" cy="218.1" rx="44.81" ry="31.74"/><path class="cls-2" d="M94.45,193.22c7.43,47.29-37.25,36.32-55.13,39.45C16.13,236.72-2.38,221.76,4.07,197c3.24-12.44,26.66-24.34,44.81-24.34S92.45,180.52,94.45,193.22Z"/><path class="cls-2" d="M36.9,108.14s4.3,18.46,5.6,25.74,6.76,16.77,9.45,12.59-.16-16.12,1.29-23.37,5.48-15.48,6.74-17S65.54,98,67.71,95.41s-19.61-14.1-25.21-12S24.2,89.11,24,92.26s7,13,9.36,13.4A5.3,5.3,0,0,1,36.9,108.14Z"/><path class="cls-3" d="M48.1,73.72s-23.84,7-16.12,23.1,28.07,5.68,29-6.39-2.42-20.13-5-19.89-7.84,3.18-7.84,3.18"/><path class="cls-3" d="M51.93,148.58s-29.11,8.55-19.68,28.21,34.27,6.94,35.41-7.81-3-24.57-6.15-24.28-9.58,3.88-9.58,3.88"/><path class="cls-1" d="M108.86,58.45C105,60.18,86.19,69.81,86.19,69.81S74.06,80.1,76.86,80.29s7,3.74,12.88,0,22-14.19,22.78-16.34-3.66-5.5-3.66-5.5"/><path d="M68.14,81.69a9.21,9.21,0,0,0,6.34,4.49,16.54,16.54,0,0,0,8-.93c5-1.73,9.54-4.63,14.25-7.07,2.53-1.31,5-2.67,7.49-4.15,1.76-1.07,3.5-2.19,5.17-3.41a34,34,0,0,0,4.77-4A11.25,11.25,0,0,0,117,62.1a5.17,5.17,0,0,0-1.2-5c-2.65-2.91-7.16-.75-10.06.58A112.2,112.2,0,0,0,94,64.26a59.8,59.8,0,0,1-7.66,4.37l-.11.05.29-.12-.3.12-.6.25-1.26.51-2.87,1.18c-2.18.9-4.36,1.82-6.5,2.83a34.5,34.5,0,0,0-5.12,2.83c-1.4,1-3,2.28-3.08,4.14a3.19,3.19,0,0,0,.95,2.36,1.92,1.92,0,0,0,2.72-2.72c-.31-.32.28.45.07.1s.17.55.07.16,0,.43,0,.34,0-.1,0-.14c0-.3,0,.33-.06.35a.39.39,0,0,0,0-.18s.06-.11.06-.15-.28.56-.12.29c.06-.11.13-.21.2-.32.2-.3-.32.38-.16.2l.12-.14.33-.34.34-.31.2-.16c.35-.28-.35.26-.1.08s.66-.47,1-.69c.77-.49,1.58-.94,2.39-1.36,1.88-1,3.81-1.85,5.76-2.68L81,75l.17-.07L81,75l.74-.31,1.45-.59L85.88,73c1.4-.57,2.84-1.11,4.18-1.81,1.17-.61,2.28-1.34,3.4-2,3.61-2.23,7.21-4.48,11-6.47.93-.5,1.88-1,2.83-1.43l1.38-.62c.27-.11-.5.21-.1,0l.28-.12.69-.26a16,16,0,0,1,2.24-.67l.46-.08c-.7.12-.26,0,0,0h.68c.22,0-.56-.11-.35,0l.33.09c.19.05.29.22-.29-.13l.16.08c.43.24-.44-.39-.06-.06a4,4,0,0,1,.36.35l.16.18s-.33-.46-.13-.16a2.77,2.77,0,0,1,.22.37c0,.09.17.38,0,0s0-.11,0,0,.07.26.1.4c.07.33,0-.55,0-.27,0,.07,0,.14,0,.21a3.1,3.1,0,0,1,0,.43c0-.66.06-.35,0-.06a3.33,3.33,0,0,1-.13.45c0,.08-.06.15-.08.22-.09.25.25-.54.09-.21-.08.15-.15.31-.23.46a10.5,10.5,0,0,1-.57.9l-.17.23c-.16.22.35-.44.11-.14l-.43.51c-.27.31-.56.62-.86.92-.64.64-1.33,1.25-2,1.83l-.53.43-.29.22.2-.15-.2.15c-.39.3-.79.6-1.2.89-.82.58-1.65,1.15-2.5,1.69-2.8,1.82-5.7,3.46-8.66,5-3.59,1.87-7.06,4-10.72,5.71-.6.28-1.22.54-1.83.82.58-.27,0,0-.15.06l-.4.17-1,.36a21.89,21.89,0,0,1-3.57,1l-.43.07.22,0-.19,0c-.29,0-.59,0-.89.06h-.78a2.64,2.64,0,0,1-.89-.07s.55.08.25,0l-.17,0L75,82.38c-.28-.07-.56-.15-.83-.24a3,3,0,0,0-.32-.12c.62.21.19.07,0,0a6.37,6.37,0,0,1-.72-.41l-.29-.2c-.23-.16.18.14.18.14l-.17-.14a7.27,7.27,0,0,1-.57-.54c-.1-.1-.2-.21-.29-.32s-.33-.53,0,0c-.16-.27-.35-.51-.51-.77a1.92,1.92,0,1,0-3.32,1.94Z"/><path d="M56.07,77a16.3,16.3,0,0,0-8.5-1.84,18.92,18.92,0,0,0-8,2.38,20.42,20.42,0,0,0-5.9,4.84,15.75,15.75,0,0,0-3.37,6.4,9.24,9.24,0,0,0,.86,6.72A11,11,0,0,0,37.49,100a23,23,0,0,0,5.13.95,36.51,36.51,0,0,0,5.23.11c3.76-.22,7.64-1.2,10.41-3.91a13.27,13.27,0,0,0,3.63-10A17.23,17.23,0,0,0,61,81.87a9.89,9.89,0,0,0-2.87-4.44,7.58,7.58,0,0,0-2.49-1.37,1.94,1.94,0,0,0-2.36,1.35,2,2,0,0,0,1.34,2.36c.19.06.7.33.09,0,.15.08.3.14.44.23s.28.18.42.27-.38-.32-.12-.1l.22.19a7.5,7.5,0,0,1,.67.71c.22.26-.29-.4-.09-.12l.15.22c.11.16.21.32.31.49s.33.62.48.94-.18-.46,0-.11c0,.09.07.17.1.26s.15.42.22.64A16.48,16.48,0,0,1,58,85.69c0,.31,0-.2,0-.21l0,.29.06.59c0,.43.05.85.05,1.28s0,.69,0,1c0,.19,0,.37-.05.56l0,.27c-.05.5.07-.39,0-.07a11.51,11.51,0,0,1-.45,1.93l-.19.51c-.15.39.19-.41,0,0,0,.11-.09.21-.14.31a9.93,9.93,0,0,1-.71,1.22c-.09.14-.21.28-.3.43.29-.47.14-.19,0-.07s-.13.16-.2.23a8.87,8.87,0,0,1-.93.91l-.22.19c-.23.2.14-.11.15-.11-.16.1-.31.23-.48.34a9.27,9.27,0,0,1-1.1.64c-.14.08-.29.15-.44.22l-.27.12c.54-.26.22-.1.09,0-.4.16-.82.3-1.23.42a21.75,21.75,0,0,1-2.4.5c.69-.12,0,0-.21,0l-.52,0c-.45,0-.9.06-1.35.08-.84,0-1.67,0-2.51,0s-1.65-.09-2.47-.17L41.52,97h-.09c-.41-.07-.82-.14-1.23-.23a15.45,15.45,0,0,1-2-.55l-.45-.17c-.17-.06-.59-.29,0,0-.29-.14-.58-.26-.86-.41s-.44-.25-.66-.38l-.33-.23L35.78,95c-.33-.24.36.29.14.11a8.36,8.36,0,0,1-1.05-1l-.11-.13c-.18-.22.33.44.16.21l-.18-.26a5.08,5.08,0,0,1-.35-.59c-.06-.1-.1-.2-.15-.3-.2-.41.16.44,0,.14s-.15-.42-.21-.64a4.75,4.75,0,0,1-.14-.63c0-.2,0-.57,0,.19,0-.13,0-.26,0-.38a8.42,8.42,0,0,1,0-1.33,1,1,0,0,0,0-.17c0-.29-.08.57,0,.28L34,90.1c0-.23.09-.45.15-.68a11,11,0,0,1,.46-1.37c.15-.38-.23.52,0,.06a3.54,3.54,0,0,1,.16-.34c.11-.23.22-.46.35-.68a14.22,14.22,0,0,1,.83-1.34l.24-.33c.1-.14.45-.56,0,0,.18-.21.35-.43.52-.64.37-.42.75-.83,1.16-1.22s.83-.78,1.28-1.14c.13-.11.6-.45,0,0l.35-.26c.23-.18.47-.34.71-.51.49-.32,1-.63,1.52-.91l.79-.4.4-.19c.17-.07.7-.27,0,0a20.65,20.65,0,0,1,3.42-1l.44-.08L47,79c-.68.12-.38,0-.22,0l.9-.08a13.67,13.67,0,0,1,1.81,0c.31,0,.61.06.92.09-.76-.07-.16,0,0,0l.46.09a13,13,0,0,1,1.83.5l.46.17.23.09c.32.12-.47-.21-.16-.06s.61.27.91.43A1.92,1.92,0,0,0,56.07,77Z"/><path d="M35.24,86.59A49.86,49.86,0,0,1,39,92.74q.2.39.36.78c.21.46-.1-.27,0,.09l.15.37c.2.54.38,1.08.53,1.64a14,14,0,0,1,.36,1.71c0,.22,0,.18,0-.1l0,.27c0,.14,0,.28,0,.42,0,.33,0,.66,0,1a1.92,1.92,0,0,0,3.84,0A18.76,18.76,0,0,0,42.48,91a48.62,48.62,0,0,0-3.92-6.39,1.92,1.92,0,0,0-3.32,1.94Z"/><path d="M42.75,83.33c2,5.33,3.85,10.69,5.6,16.09a1.92,1.92,0,1,0,3.7-1c-1.74-5.4-3.64-10.76-5.59-16.09a1.92,1.92,0,1,0-3.71,1Z"/><path d="M49.94,82.39c.54,1,1,2.1,1.49,3.17l.15.35c.05.13,0,.09,0-.11l.09.21c.11.26.22.52.32.78l.66,1.62A71.51,71.51,0,0,0,55.54,95a1.93,1.93,0,0,0,2.63.69A2,2,0,0,0,58.86,93c-.54-1-1-2.05-1.49-3.1L57,89.17c-.09-.21.13.32,0,0l-.17-.42c-.23-.53-.44-1.07-.66-1.61-.92-2.25-1.83-4.51-2.94-6.66a1.93,1.93,0,0,0-2.63-.69,2,2,0,0,0-.69,2.63Z"/><path d="M60.51,69.77a50,50,0,0,0-19.19-1.48,24.83,24.83,0,0,0-15.59,8.33A29.17,29.17,0,0,0,20.48,86a14.43,14.43,0,0,0-.47,8.4c1.36,4.92,5.75,8,9.66,10.87l1.47,1.07.77.57.34.26.14.11c-.53-.4-.16-.12,0,0a33.33,33.33,0,0,1,2.78,2.39c.44.43.86.87,1.27,1.33l.54.66c.22.27-.3-.4-.09-.12a1.13,1.13,0,0,0,.1.13l.3.42A13.89,13.89,0,0,1,38.38,114c0,.09.08.18.13.27l0,.11c.09.19.07.14,0-.13a2.87,2.87,0,0,0,.22.55c.14.41.27.83.38,1.25s.19.76.26,1.15c0,.19.07.39.1.58s0,.53,0,0c0,.12,0,.24,0,.36a23.23,23.23,0,0,1,.14,2.64c0,1.72-.14,3.44-.31,5.16a53.34,53.34,0,0,0-.53,10.33,14.17,14.17,0,0,0,4.4,9.52,9.84,9.84,0,0,0,4.61,2.47,6,6,0,0,0,5.24-1.38c2.28-2,2.55-5.48,2.57-8.31,0-3.05-.36-6.08-.59-9.12a27.76,27.76,0,0,1-.06-3.76c.05-1,.12-1.93.22-2.88,0-.22.05-.43.08-.64s0-.21,0-.32c0-.28-.07.51,0,.08s.14-.91.22-1.36a32,32,0,0,1,1.3-5c.13-.38.27-.75.42-1.12a3.45,3.45,0,0,1,.14-.34c0-.13.16-.22-.06.13a5.51,5.51,0,0,0,.29-.66,25.44,25.44,0,0,1,1.2-2.32c.44-.78.93-1.54,1.44-2.28l.76-1c.07-.09.37-.39,0,0,.06-.06.11-.14.17-.2s.33-.42.51-.63a47.14,47.14,0,0,1,3.36-3.57c2.45-2.43,5-5,6.2-8.26a9.69,9.69,0,0,0,.38-5.2,1.94,1.94,0,0,0-2.37-1.34A2,2,0,0,0,67.94,91c0,.1,0,.23.06.33-.13-.4,0-.34,0-.18a4.91,4.91,0,0,1,0,.55c0,.18,0,.36,0,.54l0,.31c0,.17-.11.45,0-.09-.08.35-.12.69-.22,1,0,.17-.11.34-.17.51s-.07.2-.11.3c-.12.33.19-.41,0-.07a14.12,14.12,0,0,1-1.14,2l-.32.45-.17.23c-.16.21.3-.38,0-.07s-.53.65-.81,1c-2.11,2.41-4.57,4.48-6.58,7a33.11,33.11,0,0,0-5.45,9.67,39.57,39.57,0,0,0-2,10.51,31.09,31.09,0,0,0,0,4c.1,1.41.24,2.81.36,4.22s.24,3.07.26,4.6c0,.72,0,1.44,0,2.15,0,.33,0,.66-.08,1l0,.24c0,.35.07-.44,0-.19s0,.34-.08.5c-.11.59-.33,1.13-.48,1.71.17-.62.1-.23,0,0l-.18.32-.2.3c-.15.25.32-.35.06-.08l-.21.24c-.12.11-.26.21-.38.33.41-.42.09-.08-.08,0s-.61.19,0,0c-.17.05-.34.12-.52.16l-.22.05c-.24.06.55-.05.2,0a3.57,3.57,0,0,1-.46,0l-.46,0c.67,0,0,0-.15,0l-.47-.14c-.17-.06-.64-.33-.11,0-.33-.19-.69-.33-1-.54a4.53,4.53,0,0,1-.46-.3l-.17-.12c-.33-.24.35.28,0,0s-.62-.54-.91-.84a10.38,10.38,0,0,1-.76-.86c-.12-.14,0-.16.09.12a1.31,1.31,0,0,0-.2-.28c-.12-.17-.24-.34-.35-.52a10.78,10.78,0,0,1-.54-1,2.72,2.72,0,0,1-.11-.25c-.17-.36.13.34,0,.1l-.22-.57a14.75,14.75,0,0,1-.56-2.27l-.06-.34c0-.32,0,.15,0,.18,0-.19-.05-.38-.07-.57,0-.41-.06-.84-.08-1.26a40,40,0,0,1,.2-5,80.9,80.9,0,0,0,.71-10.19,17.79,17.79,0,0,0-3-9.79,26.41,26.41,0,0,0-5.26-5.35c-1.06-.83-2.15-1.63-3.24-2.43l-1.45-1.06-.69-.51-.33-.25c-.13-.1-.65-.5-.08-.06a32.23,32.23,0,0,1-2.61-2.22c-.38-.37-.75-.75-1.1-1.16-.17-.19-.33-.39-.49-.59s.32.43.14.18l-.11-.15a3.53,3.53,0,0,1-.24-.34,11,11,0,0,1-.8-1.36c-.06-.11-.11-.23-.16-.34-.2-.41.17.45,0,0q-.15-.39-.27-.78c-.08-.25-.14-.5-.2-.75s0-.26-.07-.39a1.85,1.85,0,0,1,0-.23c-.06-.31.06.52,0,.19a13,13,0,0,1-.07-1.76c0-.3.05-.6.08-.9s-.07.44,0,.19l0-.23c0-.2.07-.39.11-.58a18,18,0,0,1,.57-2.12c.12-.36.26-.72.4-1.08a2.81,2.81,0,0,1,.24-.59s-.18.41,0,.1c.06-.13.11-.26.17-.4.34-.76.72-1.5,1.12-2.23s.82-1.39,1.27-2.06l.65-.9c.24-.33-.28.36,0,0l.13-.17.41-.5a23.06,23.06,0,0,1,3.14-3c.24-.19-.14.1-.15.11l.24-.18.41-.3.91-.61c.59-.37,1.2-.71,1.82-1,.29-.15.59-.29.89-.42l.46-.2-.19.08.33-.13c.63-.25,1.27-.47,1.92-.67A29.48,29.48,0,0,1,42.44,72c.39-.06-.5.06-.11,0l.21,0,.51-.06,1.14-.1c.73,0,1.46-.08,2.2-.09,1.5,0,3,.06,4.51.2L52,72l.55.07.22,0c.38,0-.5-.07,0,0,.77.1,1.54.23,2.3.37,1.5.27,3,.59,4.46,1a1.92,1.92,0,0,0,1-3.7Z"/><path d="M19.85,169.87c-.17-.39.1.26.13.33s.17.42.25.64c.14.37.27.74.4,1.12.28.8.54,1.61.8,2.42.5,1.58,1,3.15,1.63,4.68l.89-2.17-.75.36c-.1.05-.79.37-.29.14a16,16,0,0,1-1.5.57c-.94.34-1.9.63-2.86.92A33.91,33.91,0,0,0,12.86,181a15.09,15.09,0,0,0-5,4.07A28,28,0,0,0,4.32,191a48.12,48.12,0,0,0-3.79,13.2,43.65,43.65,0,0,0-.07,13.06,35.44,35.44,0,0,0,10.66,19.67,55.11,55.11,0,0,0,21.54,12.32,50.79,50.79,0,0,0,27.81,1.09,45.81,45.81,0,0,0,12.83-5.48,61.48,61.48,0,0,0,10.38-8.23,46.85,46.85,0,0,0,12.46-19.8c2.41-8,2.07-16.54,0-24.61-.82-3.24-1.79-6.65-3.73-9.42a15.77,15.77,0,0,0-7.84-5.7A18.32,18.32,0,0,0,79,175.81c-.63,0-1.26,0-1.89,0-.24,0-.48,0-.73,0s.56.15.16,0l-.13,0c-.34-.06.45.23.24.11s.41.37.17.13.31.46.17.24c0,0-.08-.13-.07-.14s.17.53.13.3l-.06-.18a1.42,1.42,0,0,0,0-.2c.18.56,0,.39,0,.19a8.53,8.53,0,0,1,0-1.13l0-.38c0-.47-.09.42,0,0a6.45,6.45,0,0,1,.16-.63c0-.1.1-.22.12-.31-.05.33-.15.31-.06.14s.2-.41.32-.62a12.48,12.48,0,0,1,.83-1.22c.09-.13.08-.24-.07.08a1.76,1.76,0,0,1,.24-.3l.43-.51c.34-.41.69-.81,1-1.21a15.91,15.91,0,0,0,3.39-5,1.94,1.94,0,0,0-.5-1.87A39.76,39.76,0,0,0,65.53,152.5a47.56,47.56,0,0,0-19.47-1.22,83.47,83.47,0,0,0-11.62,2.29c-4.42,1.22-8.91,2.86-12.53,5.74a11.5,11.5,0,0,0-3.62,4.8,8.83,8.83,0,0,0,.05,6,15.81,15.81,0,0,0,.81,1.84,1.94,1.94,0,0,0,2.63.69,2,2,0,0,0,.69-2.63c-.13-.25-.24-.49-.36-.74s.19.49,0,.06c-.05-.13-.1-.26-.14-.4a8.65,8.65,0,0,1-.34-1.33c-.07-.37.05.56,0,.1l0-.29c0-.21,0-.43,0-.64s0-.39.05-.59-.1.57,0,.27c0,0,0-.09,0-.13s0-.22.07-.33a5.26,5.26,0,0,1,.15-.53c0-.09.06-.19.1-.28s0-.09,0-.13c.12-.33-.18.39-.08.21a10.81,10.81,0,0,1,.57-1.06c.11-.17.23-.32.34-.49s-.3.39-.17.22a.76.76,0,0,0,.11-.14l.21-.25c.29-.32.6-.63.92-.93l.52-.45.25-.2-.2.16.19-.15c.39-.28.78-.55,1.19-.81a25.23,25.23,0,0,1,2.71-1.46l.66-.3.37-.17c.08,0,.29-.12,0,0s0,0,.06,0c.5-.21,1-.4,1.51-.59,1-.38,2.07-.72,3.12-1a77.73,77.73,0,0,1,11.39-2.43c.21,0,.89-.12,0,0l.49-.06c.56-.07,1.12-.14,1.69-.19,1.69-.17,3.39-.26,5.09-.27a47.34,47.34,0,0,1,4.91.24l.61.07c.12,0,.82.08.24,0,.41,0,.81.12,1.21.19.78.13,1.56.28,2.33.46A36.49,36.49,0,0,1,66.85,157c.33.12.67.25,1,.39l.24.1c.42.16-.29-.13,0,0l.61.27c.71.33,1.42.67,2.11,1a37.42,37.42,0,0,1,4,2.51,8.17,8.17,0,0,0,1,.75s-.36-.29,0-.05l.22.18.55.44c.64.53,1.27,1.09,1.88,1.66s1.24,1.19,1.83,1.81l-.49-1.87c-.06.16-.23.38,0-.07-.06.1-.09.2-.14.3l-.27.49c-.1.17-.21.34-.32.5l-.21.29c0,.07-.09.14-.14.2s-.1.14.07-.09a2.38,2.38,0,0,1-.4.5l-.42.5L77,168a15.4,15.4,0,0,0-3.41,5.14,8.65,8.65,0,0,0-.36,2.91,4.11,4.11,0,0,0,.59,2.27c.93,1.35,2.44,1.4,3.92,1.34a14.31,14.31,0,0,1,2.07,0c.17,0,.43.14-.08,0a1.86,1.86,0,0,0,.34.06l.59.13q.73.18,1.47.39c.81.24,1.58.55,2.37.83-.6-.21,0,0,.13.06l.51.24c.33.17.67.35,1,.55s.59.37.87.57a1.53,1.53,0,0,1,.16.11c.16.11.22.28-.1-.08a3.47,3.47,0,0,0,.42.34,11.49,11.49,0,0,1,1.38,1.41l.17.21c.23.28-.28-.39-.08-.1l.27.37c.21.3.41.62.6.94a19.26,19.26,0,0,1,1,1.93c.15.34-.14-.37,0-.12a2.44,2.44,0,0,0,.1.24l.21.55c.15.39.29.8.42,1.2.28.84.52,1.69.75,2.55a57.63,57.63,0,0,1,1.36,6.23c0,.23.06.47.1.7.07.48-.06-.44,0,.05l0,.27c.07.55.13,1.1.18,1.66.08,1,.14,2,.16,3a42.23,42.23,0,0,1-.28,5.84l0,.25h0c0,.2-.06.41-.1.62-.07.5-.16,1-.26,1.49-.18.9-.38,1.79-.62,2.67s-.51,1.74-.81,2.6c-.15.42-.31.85-.47,1.27-.08.19-.16.38-.23.57a1.63,1.63,0,0,0-.14.34c.11-.27.13-.3,0-.11s0,.11-.07.17a41.2,41.2,0,0,1-2.54,4.89c-.48.79-1,1.56-1.51,2.31L86.16,228c-.12.17-.25.34-.38.5-.27.36.27-.33,0,0l-.24.3a57.59,57.59,0,0,1-8.32,8.42c-.39.32-.79.65-1.19,1l-.55.44c-.39.3.32-.25-.06,0l-.4.3c-.93.71-1.88,1.38-2.86,2a44.39,44.39,0,0,1-5.94,3.25l-.76.34c-.1,0-.42.19,0,0a3.07,3.07,0,0,1-.42.17c-.51.21-1,.41-1.54.6-1.06.38-2.13.72-3.22,1s-2.16.56-3.26.77c-.49.1-1,.18-1.47.26l-.88.14h.07l-.59.07a46.62,46.62,0,0,1-6.58.3c-1.16,0-2.31-.11-3.47-.22l-1.51-.17c-.52-.06.42.06-.1,0l-.45-.07-.91-.14a54.53,54.53,0,0,1-6.66-1.56q-1.71-.53-3.39-1.14L29.47,244l-.73-.3c-.27-.11.43.19,0,0l-.49-.21a54.67,54.67,0,0,1-10.11-5.7c-.34-.25-.68-.5-1-.76s.34.27,0,0l-.3-.23-.59-.47c-.7-.58-1.39-1.19-2.06-1.81a38.87,38.87,0,0,1-3.7-4l-.19-.23-.08-.1.08.1c0-.14-.28-.37-.36-.48-.29-.39-.57-.79-.84-1.19-.5-.73-1-1.49-1.4-2.26s-.84-1.56-1.21-2.36c-.09-.2-.19-.41-.27-.61l-.12-.28c.26.45.06.14,0,0-.17-.41-.33-.83-.48-1.25a31.65,31.65,0,0,1-1.41-5.41c0-.21-.07-.42-.1-.62a1.46,1.46,0,0,0-.05-.38c.14.17.05.37,0,.06C4,215,4,214.52,3.92,214c-.08-1-.11-1.94-.11-2.92s0-2,.13-3c0-.52.08-1,.14-1.56,0-.24,0-.47.08-.71s0-.29,0-.44,0-.19,0,.08c0-.09,0-.19,0-.29a52.24,52.24,0,0,1,1.33-6.42c.29-1.07.62-2.12,1-3.16.18-.51.37-1,.58-1.53.05-.14.11-.28.17-.42s.12-.34,0,0c.11-.29.26-.58.39-.87a31.73,31.73,0,0,1,1.51-2.89c.24-.41.48-.81.74-1.2l.48-.69.18-.26c.13-.17.13-.17,0,0l.19-.24a15.1,15.1,0,0,1,1.08-1.18c.17-.16.34-.32.52-.47l.31-.26c.29-.25-.31.22,0,0a15.44,15.44,0,0,1,2.44-1.46c.13-.06.55-.35.69-.32-.11,0-.36.15-.11.05l.35-.14c.47-.19.95-.36,1.43-.52.89-.3,1.79-.56,2.69-.84a36.05,36.05,0,0,0,5.7-2.19,1.93,1.93,0,0,0,.88-2.17c-1.37-3.31-2.19-6.82-3.6-10.11a1.92,1.92,0,0,0-2.63-.69,2,2,0,0,0-.69,2.63Z"/><path d="M33.44,169.56a11.67,11.67,0,0,0,6,2.75,30.56,30.56,0,0,0,7.76.33A57,57,0,0,0,63.45,169a26.49,26.49,0,0,0,6.62-3.37,2.19,2.19,0,0,0,.88-1.15,2,2,0,0,0-.19-1.48,1.93,1.93,0,0,0-2.63-.69,17.41,17.41,0,0,1-2.28,1.43q-.67.36-1.38.69l-.77.35-.32.14c-.33.14.46-.19.13-.06l-.24.1a53.51,53.51,0,0,1-7.3,2.35c-1.33.33-2.67.62-4,.86-.65.11-1.3.22-1.95.31h.1l-.2,0-.52.07-1,.11a34.73,34.73,0,0,1-7.42,0l.21,0-.25,0-.45-.07-.87-.19a12.94,12.94,0,0,1-1.61-.48c-.17-.07-.61-.3,0,0l-.35-.16c-.23-.11-.45-.23-.67-.36l-.6-.39c-.13-.09-.25-.26.21.16l-.15-.12-.28-.25a1.92,1.92,0,1,0-2.72,2.72Z"/><path d="M11.52,212.74c2.81-.46,5.15-2.53,7.12-4.44,1-1,2-2,3-3,.48-.46,1-.91,1.47-1.34l.35-.29c.38-.3-.35.26,0,0a8.23,8.23,0,0,1,.78-.53c.24-.15.48-.29.72-.41l.36-.17c-.46.28-.34.13-.16.07l.22-.08a6.05,6.05,0,0,1,.73-.2l.23,0c-.58.14-.42,0-.25,0h.41l.42,0c.2,0,.23.12-.24,0a1.89,1.89,0,0,0,.23,0,4.58,4.58,0,0,1,.9.27s-.48-.23-.24-.09l.22.11a3.79,3.79,0,0,1,.34.2l.13.09c.18.11.18.25-.14-.12.1.12.24.21.34.31a3.57,3.57,0,0,1,.27.28l.12.15c.16.17-.31-.44-.13-.18s.32.48.46.73l.18.36c.09.18.19.61,0,0,.08.29.22.57.31.87a23.68,23.68,0,0,1,.79,3.74c.36,2.3.56,4.94,1.93,6.91a11.68,11.68,0,0,0,5.58,4.55c3.9,1.3,7.38-1.54,9.73-4.34a63.63,63.63,0,0,0,3.86-5.24c.57-.83,1.14-1.67,1.73-2.5l.85-1.2.43-.57.1-.13-.14.18.23-.28a18.63,18.63,0,0,1,1.72-1.94c.27-.26.57-.5.86-.75-.62.52-.12.09.06,0l.45-.27.43-.22c-.66.33-.2.08.06,0l.42-.09c.33-.07-.6,0-.26,0h.25l.42,0c-.73,0-.25,0,0,0l.5.14c.45.17-.42-.2,0,0,.13.07.25.13.37.21s.24.16.36.24c.29.19-.38-.32-.11-.09l.2.17a7.36,7.36,0,0,1,.63.62c.12.12.23.25.34.38l.14.18c.21.26,0,0-.07-.1.4.58.81,1.14,1.19,1.73a31.86,31.86,0,0,0,2.46,3.5,8.18,8.18,0,0,0,3.87,2.43,5.63,5.63,0,0,0,4.48-.26c2.22-1.23,2.89-4,4-6.05.15-.27.3-.53.47-.78l.26-.39a1.33,1.33,0,0,0,.14-.19c.08-.1-.32.4,0,.06a15.86,15.86,0,0,1,1.4-1.44,8.27,8.27,0,0,1,.63-.55l.3-.25c-.54.47-.14.11,0,0a8.2,8.2,0,0,1,1.14-.66c-.62.31-.18.07.09,0l.23-.05.08,0c.34-.07-.55.05-.29,0h.41c.38,0-.48-.09-.28,0l.23.06a1.27,1.27,0,0,1,.18.06c.19,0-.58-.29-.25-.11l.36.23c.17.11-.47-.4-.2-.15l.15.14c.11.11.21.23.31.35s-.36-.5-.14-.18l.15.21c.1.15.19.31.27.46.19.33.34.68.5,1l-.13-.3.06.15.11.27c.08.2.15.4.22.61.15.4.29.81.42,1.22.56,1.73,1,3.49,1.73,5.17a10.47,10.47,0,0,0,3.34,4.84,5.78,5.78,0,0,0,2.69,1,1.91,1.91,0,0,0,1.36-.57,2,2,0,0,0,.56-1.35,1.9,1.9,0,0,0-.56-1.36,2.25,2.25,0,0,0-1.36-.57c.86.11.17,0,0,0L91.9,213c-.33-.11.54.26.15.06l-.41-.23-.2-.14c-.15-.1.28.21.28.21l-.15-.12a8.86,8.86,0,0,1-.73-.77c.52.59.09.1,0-.09s-.21-.34-.31-.52a11.78,11.78,0,0,1-.57-1.12,1.07,1.07,0,0,0-.13-.31s.21.52.12.29c0-.06,0-.11-.07-.17-.09-.21-.17-.43-.25-.64-.31-.85-.59-1.71-.86-2.57a37.44,37.44,0,0,0-1.89-5.26,5.69,5.69,0,0,0-3.55-3.35c-2.25-.51-4.29.86-5.88,2.28a14.75,14.75,0,0,0-2.82,3.28c-.65,1.06-1.12,2.22-1.67,3.34a12.38,12.38,0,0,1-.78,1.37s-.08.13-.12.16.35-.42.17-.23-.14.17-.22.25l-.24.22c-.21.21.44-.3.19-.14l-.16.11-.28.15c-.26.14.51-.17.22-.1l-.15.05c-.24.07-.59,0,.07,0l-.41,0a1.61,1.61,0,0,1-.44,0s.55.09.26,0l-.27,0a8.21,8.21,0,0,1-1.1-.33.91.91,0,0,0-.22-.09l.24.1-.23-.1-.39-.19-.32-.2c-.15-.11-.23-.27.15.12l-.19-.16a7.76,7.76,0,0,1-.58-.57l-.27-.32-.17-.2c-.22-.27.3.39.09.11-.8-1.1-1.49-2.26-2.25-3.38-1.55-2.27-3.79-4.72-6.81-4.55A7.61,7.61,0,0,0,54,201.62a28.87,28.87,0,0,0-3.71,4.53c-1.18,1.67-2.3,3.38-3.49,5-.31.42-.62.85-.94,1.27-.1.13-.4.5,0-.06-.08.09-.15.19-.22.28l-.48.59a20.68,20.68,0,0,1-1.86,2,6.14,6.14,0,0,1-.47.42l-.25.21c-.37.29.34-.25.09-.07a10.68,10.68,0,0,1-1,.65c-.16.09-.32.16-.48.24-.34.17.52-.2.17-.07l-.28.11-.49.14-.25.05c-.44.09.54-.05.17,0l-.5,0h-.27c-.11,0-.53-.06-.08,0s.08,0,0,0l-.29-.07-.57-.18c-.36-.14.5.23.15.06l-.27-.13-.59-.35-.27-.18c-.14-.11-.47-.41.06,0-.2-.17-.41-.34-.6-.52a12.7,12.7,0,0,1-1.19-1.24l-.31-.38-.15-.18c.39.47.22.29.15.18a5.57,5.57,0,0,1-.39-.67,1.87,1.87,0,0,1-.15-.32s.2.52.11.26a1.8,1.8,0,0,0-.08-.21c-.09-.26-.18-.53-.25-.8-.15-.56-.27-1.13-.37-1.7-.47-2.6-.68-5.24-1.74-7.7a7,7,0,0,0-6.57-4.41c-2.9.13-5.25,2.06-7.26,4-1,1-2,2-2.95,2.94-.51.49-1,1-1.55,1.44l-.77.65c-.09.07-.28.2.17-.13l-.22.17-.45.31a11,11,0,0,1-1.53.88c-.44.2.43-.17,0,0l-.4.14a6.59,6.59,0,0,1-.88.2,1.93,1.93,0,0,0-1.34,2.37,2,2,0,0,0,2.36,1.34Z"/><path d="M97.14,13.9c2.66,0,5.32-.25,8-.09l1,.07.51.06.22,0a16.69,16.69,0,0,1,1.86.42,8.67,8.67,0,0,1,.9.31l.24.09c-.12,0-.11,0,0,0l.41.19c.29.14.57.3.85.47l.44.29.27.19a1.37,1.37,0,0,0,1.89,0,1.34,1.34,0,0,0,0-1.9,14.69,14.69,0,0,0-8.2-2.9c-2.79-.21-5.58.06-8.37.07a1.34,1.34,0,0,0,0,2.68Z"/><path d="M108.5,2.62a19.23,19.23,0,0,1,1.87.56l.37.14.25.09.07,0,.3.14.34.16a20.88,20.88,0,0,1,2.76,1.67c1.83,1.28,3.55,2.72,5.44,3.91a1.35,1.35,0,0,0,1.84-.48A1.37,1.37,0,0,0,121.25,7c-1.92-1.22-3.66-2.69-5.53-4a19.11,19.11,0,0,0-6.5-3,1.35,1.35,0,0,0-1.65.93,1.35,1.35,0,0,0,.93,1.65Z"/><path d="M152.68,18.42a16.68,16.68,0,0,0-2.6-10.37A16.83,16.83,0,0,0,142,2,27.25,27.25,0,0,0,131.36.5a36.64,36.64,0,0,0-11.17,2,27.5,27.5,0,0,0-9.32,5.65,30.52,30.52,0,0,0-7,9.69c-3.66,8-4.09,17.89-.06,25.87a17,17,0,0,0,7.47,8c2.91,1.4,6.13,1.81,9.25,2.53.86.19,1.72.41,2.57.66a1.36,1.36,0,0,0,1.65-.93,1.37,1.37,0,0,0-.94-1.65c-3.07-.9-6.28-1.27-9.34-2.22l-.93-.32c-.11,0-.42-.1-.49-.19l.15.06-.16-.07-.28-.13a12.43,12.43,0,0,1-1.85-1L110.5,48c.3.23-.18-.15-.25-.21a11.65,11.65,0,0,1-.89-.83,12.09,12.09,0,0,1-.83-.92l-.18-.22-.07-.09c-.17-.23-.34-.45-.5-.69a22.82,22.82,0,0,1-1.6-2.7q-.33-.63-.6-1.29c.1.25-.06-.15-.07-.16l-.14-.36c-.1-.26-.2-.53-.29-.79a27.6,27.6,0,0,1-.82-3c-.11-.51-.2-1-.28-1.55l-.06-.39c0,.23,0,0,0,0,0-.3-.07-.61-.1-.92a30.53,30.53,0,0,1,.1-6.34c0-.14,0-.27,0-.4,0,.23,0,0,0,0,0-.26.08-.52.13-.78.09-.56.21-1.12.33-1.68.23-1,.5-1.95.81-2.9.17-.49.34-1,.53-1.46.08-.2.16-.4.25-.6-.11.25.06-.13.06-.15l.21-.46c.43-.92.91-1.82,1.42-2.69s1-1.65,1.59-2.44l.35-.48.21-.28c-.18.24.06-.06.08-.09q.47-.58,1-1.14c.56-.64,1.16-1.26,1.78-1.84.32-.3.65-.59,1-.87l.46-.38.21-.17c.12-.09.12-.09,0,0l.17-.13A25.52,25.52,0,0,1,118.86,6l.53-.24.24-.11.07,0c.43-.18.87-.35,1.3-.51.78-.28,1.58-.53,2.38-.74s1.72-.42,2.59-.58l1.34-.22.23,0c-.34,0,0,0,.09,0l.8-.09a39.08,39.08,0,0,1,5.62-.22c.83,0,1.67.1,2.5.2.36,0-.29-.05.07,0l.32,0,.62.11,1.24.26a24.22,24.22,0,0,1,2.34.71l.56.22c.06,0,.37.16.05,0l.18.08c.39.17.77.36,1.15.56A15.15,15.15,0,0,1,145,6.6l.19.14c.17.12-.25-.2,0,0s.3.23.44.36.56.5.82.77.52.54.76.83l.18.22c.21.25-.17-.23,0,0s.23.3.33.46a11.94,11.94,0,0,1,1.13,2l.12.27c-.14-.33,0,0,0,0s.12.31.17.47a13.15,13.15,0,0,1,.39,1.26c.09.37.17.75.24,1.13,0,.1,0,.21,0,.31s.05.42,0,.08c0,.25.06.51.08.77a20,20,0,0,1,0,2.68,1.35,1.35,0,0,0,1.34,1.34,1.38,1.38,0,0,0,1.35-1.34Z"/><path d="M108.86,38.31A1.34,1.34,0,1,0,107.52,37a1.36,1.36,0,0,0,1.34,1.34Z"/><path d="M120.58,31a1.34,1.34,0,1,0-1.34-1.34A1.36,1.36,0,0,0,120.58,31Z"/><path d="M161.29,45a42.86,42.86,0,0,0,10.06-6.6c2.86-2.61,5.65-6.49,4.28-10.55a10.79,10.79,0,0,0-4.42-5.35,11.07,11.07,0,0,0-5.64-1.57,21.26,21.26,0,0,0-12,3.89c-3.29,2.22-6.55,5.5-7.29,9.55a10.07,10.07,0,0,0-.17,1.55,1.31,1.31,0,0,0,1.16,1.31,1.33,1.33,0,0,0,1.47-1,18.49,18.49,0,0,0,.75-5.59,26.07,26.07,0,0,0-.77-6.46A15.34,15.34,0,0,0,146,18.42a10.64,10.64,0,0,0-4.75-3.26,7.12,7.12,0,0,0-4.51-.3,6.77,6.77,0,0,0-3.41,2.55c-1.81,2.43-2.41,5.68-2.72,8.62a31.44,31.44,0,0,0,.23,8.61l.15.73a1.35,1.35,0,0,0,1.65.94,1.38,1.38,0,0,0,.94-1.65c-.06-.24-.1-.47-.15-.71l-.06-.38c0-.14-.07-.64,0-.13-.06-.6-.13-1.19-.17-1.8a32.55,32.55,0,0,1,0-4.19c0-.74.19-1.49.21-2.22,0,.21,0,.23,0,0s0-.18,0-.27l.09-.56c.07-.36.14-.72.22-1.07a16.94,16.94,0,0,1,.57-2c.05-.16.11-.31.17-.46s.06-.15.08-.23-.13.31,0,0,.27-.58.43-.86a7.31,7.31,0,0,1,.46-.76l.12-.18s.2-.26,0-.06,0,0,0-.05l.16-.18a6.55,6.55,0,0,1,.6-.58l.07-.06c.14-.12-.14.11-.14.11a1,1,0,0,0,.16-.12l.36-.22a3.84,3.84,0,0,1,.35-.18c.18-.1-.31.12-.11.05l.21-.08.38-.11.2,0c.06,0,.36-.06.09,0s0,0,.06,0l.21,0h.8c.2,0-.15,0-.16,0a2.18,2.18,0,0,0,.51.09,9.08,9.08,0,0,1,1.05.31l.23.09c.21.08-.07,0-.09,0a.56.56,0,0,0,.16.07l.56.27c.41.21.82.45,1.21.7a2.2,2.2,0,0,1,.25.17s.13.1.14.09-.21-.17-.1-.08.32.27.47.42a5.77,5.77,0,0,1,.42.44,2.2,2.2,0,0,1,.2.23l.09.1c.15.19-.11-.16,0,0,.25.37.5.73.72,1.12s.42.8.6,1.21c.1.22,0,0,0-.05a.58.58,0,0,1,.05.14,3.05,3.05,0,0,1,.13.32c.09.24.17.48.25.72a20.55,20.55,0,0,1,.72,2.93c0,.22.08.45.11.67l0,.21s0-.25,0-.09,0,.31.05.47c0,.48.09,1,.12,1.46a25.68,25.68,0,0,1,0,2.91l-.06.66,0,.27a1.11,1.11,0,0,1,0,.19c0,.25,0-.22,0,0-.06.4-.13.8-.21,1.19s-.18.73-.29,1.09l2.63.36c0-.2,0-.4,0-.6s0,.24,0,0l.06-.35a9.32,9.32,0,0,1,.32-1.18c0-.09.06-.18.1-.27l.06-.16c.08-.21,0,.07,0,.09a4.22,4.22,0,0,0,.28-.61c.2-.39.42-.76.65-1.12.12-.19.24-.37.37-.55l.19-.26c0-.05.15-.19-.05.06l.14-.18c.29-.36.6-.71.92-1a19.2,19.2,0,0,1,2.17-2c-.24.19,0,0,.11-.08l.28-.21L155,27c.42-.28.84-.54,1.27-.79s.9-.5,1.36-.73l.63-.3.37-.16h0c-.19.08.07,0,.11,0a20.4,20.4,0,0,1,2.83-.94c.47-.12,1-.22,1.44-.3l.32-.05c.32-.05-.19,0,.06,0l.73-.08c.45,0,.89,0,1.34,0l.66,0,.3,0c.06,0,.48.05.25,0s.1,0,.16,0l.33.06c.22,0,.44.09.65.15l.55.17.31.11.11,0c.22.08,0,0-.05,0a1.92,1.92,0,0,1,.54.26c.18.1.36.2.53.31s.33.23.5.34-.24-.2-.06-.05l.14.12.42.36A11.71,11.71,0,0,1,172,26.76a1.25,1.25,0,0,0,.09.12c.13.14-.12-.18,0,0s.14.18.2.28.28.42.4.64c0,0,.29.55.28.56s-.11-.28,0-.09l.06.16.11.32c0,.2.1.4.14.6.07.36,0,0,0,0s0,.34,0,.35c0,.2,0,.4,0,.59s0,.18,0,.28a.41.41,0,0,0,0,.11c0,.29.06-.32,0,0a9.37,9.37,0,0,1-.29,1.16c0,.09-.07.18-.1.26-.11.31.09-.19,0,0s-.19.4-.29.6a10.85,10.85,0,0,1-.7,1.14,2.48,2.48,0,0,1-.19.26c0,.06-.29.38-.06.09-.14.18-.29.36-.44.53-.31.37-.65.73-1,1.08a26.4,26.4,0,0,1-2.24,2l-.09.07-.32.24-.6.44c-.42.3-.84.6-1.27.88a53.57,53.57,0,0,1-4.75,2.78l-1,.5a1.35,1.35,0,0,0-.48,1.83,1.37,1.37,0,0,0,1.84.48Z"/><path d="M128.21,45.57A21.49,21.49,0,0,0,124.54,55a19.25,19.25,0,0,0,.93,8.78,22,22,0,0,0,21.4,14.39,25.94,25.94,0,0,0,9.95-2.53A22.09,22.09,0,0,0,165,69.5,12.87,12.87,0,0,0,167.33,65a17.67,17.67,0,0,0,.53-3.62,23.72,23.72,0,0,0-.65-7.74c-.69-2.55-2.11-5-4.68-5.94a6.57,6.57,0,0,0-1.92-.34,1.34,1.34,0,0,0,0,2.68,1.18,1.18,0,0,1,.42,0c-.29-.13-.19,0,0,0l.16,0,.37.09a2.3,2.3,0,0,0,.43.16c-.12,0-.28-.14-.08,0l.17.08.32.18c.07,0,.26.13.3.21,0-.08-.22-.19-.1-.07l.22.19a5.9,5.9,0,0,1,.49.51,1,1,0,0,0,.12.15s-.2-.27,0-.06l.24.35a7.87,7.87,0,0,1,.38.69c.07.12.12.25.18.37s0,.27,0,0a.94.94,0,0,0,.1.23,14.39,14.39,0,0,1,.52,1.73c.07.27.12.55.17.82s.06.3.08.44l0,.23c.05.33,0,0,0,0a4.69,4.69,0,0,1,.09.89c0,.33.06.66.07,1q0,.91,0,1.83c0,.54,0,1.09-.08,1.63,0,.25,0,.5-.07.75s0,.23,0,.35-.08.33,0-.08c0,.06,0,.13,0,.19a11.64,11.64,0,0,1-.39,1.75c-.06.17-.11.34-.18.5a1.86,1.86,0,0,1-.1.25c.11-.27,0,0,0,0-.16.35-.33.68-.52,1s-.38.62-.59.92l-.32.45c.16-.22,0,0,0,0l-.25.3A16.16,16.16,0,0,1,161,69.79c-.29.26-.59.5-.89.75s.24-.19-.06,0l-.23.17-.53.38c-.69.48-1.4.91-2.13,1.32s-1.43.75-2.17,1.08l-.27.11c-.34.15.16-.06-.05,0l-.54.21c-.37.15-.75.28-1.13.41-.73.25-1.47.46-2.23.64-.37.09-.75.17-1.13.24l-.56.1-.23,0c-.27,0,.21,0-.14,0a20.89,20.89,0,0,1-4.54.07l-.53,0-.21,0c.35,0,0,0-.06,0-.37-.06-.73-.12-1.09-.2a20.93,20.93,0,0,1-2.07-.53l-1-.34-.48-.18-.24-.1.09,0-.19-.09q-.94-.42-1.86-.93a19.71,19.71,0,0,1-1.74-1.11c-.14-.09-.27-.19-.4-.29l-.2-.15c-.17-.12.25.2,0,0s-.57-.46-.84-.7a19.57,19.57,0,0,1-1.46-1.42c-.22-.23-.43-.46-.63-.7s-.21-.25-.32-.38l-.18-.23c-.21-.26.17.23,0,0a21.18,21.18,0,0,1-2.09-3.44l-.2-.45c0-.06-.16-.37,0,0l-.07-.18c-.14-.34-.26-.67-.38-1a16.71,16.71,0,0,1-.55-2c-.07-.32-.13-.64-.19-1,0-.1-.08-.61,0-.23l-.06-.5a18.34,18.34,0,0,1-.09-2.1c0-.34,0-.68,0-1,0-.17,0-.34,0-.51s0-.13,0-.2l0-.21c0,.19,0,.21,0,.05a20.89,20.89,0,0,1,.42-2.06,21.21,21.21,0,0,1,.72-2.17l.1-.25c.08-.21-.13.29,0,0s.15-.35.23-.52c.18-.38.37-.76.57-1.13q.59-1.05,1.26-2a1.34,1.34,0,0,0-.48-1.83,1.37,1.37,0,0,0-1.83.48Z"/><path d="M139.32,52.77a71.36,71.36,0,0,1,6.29-3.49l1-.43c-.34.15.18-.07.27-.11l.58-.23a19.73,19.73,0,0,1,2-.62c.32-.08.65-.16,1-.22a1.55,1.55,0,0,0,.43-.07c-.21.12-.21,0,0,0l.33,0a6.33,6.33,0,0,1,.87,0l.44,0c.14,0,.29,0,0,0a.91.91,0,0,1,.23,0,6.28,6.28,0,0,1,.94.27c.22.07-.12,0-.12,0s.23.11.27.13l.38.23c.13.08.23.06,0,0,.07,0,.17.14.23.19l.32.34c.06.06.26.24,0,0a1.21,1.21,0,0,1,.14.2,4.63,4.63,0,0,1,.31.51,1.35,1.35,0,0,0,1.83.49,1.37,1.37,0,0,0,.48-1.84A5.76,5.76,0,0,0,154,45.18a8.93,8.93,0,0,0-4.33-.09,28.08,28.08,0,0,0-8.48,3.46c-1.09.61-2.15,1.26-3.23,1.91a1.34,1.34,0,1,0,1.36,2.31Z"/><path d="M141.05,66.24a45.38,45.38,0,0,1,6.15-6.32l.41-.33.25-.2c-.05,0-.18.14,0,0s.62-.46.93-.69c.6-.41,1.21-.8,1.84-1.16a20.31,20.31,0,0,1,2-1c.2-.09-.18.07,0,0l.24-.1.52-.2c.36-.12.71-.24,1.08-.34s.76-.2,1.15-.28l.55-.1.25,0c-.28,0,.08,0,.14,0a13.58,13.58,0,0,1,2.55-.05,1.35,1.35,0,0,0,1.34-1.34,1.37,1.37,0,0,0-1.34-1.34c-6.49-.45-12.23,3.43-16.61,7.84-1.19,1.2-2.31,2.47-3.38,3.78a1.37,1.37,0,0,0,0,1.9,1.35,1.35,0,0,0,1.89,0Z"/><path d="M150.33,67.7c.57-.58,1.14-1.16,1.73-1.72.37-.35.74-.69,1.12-1l.55-.47.33-.27.19-.15.19-.14.33-.24.57-.39.65-.38.24-.12c.08,0,.44-.23.07,0a2.81,2.81,0,0,1,.53-.19l.3-.07c.35-.08-.23,0,0,0h.33l-.16,0s.2.05.24.06c.21.05-.32-.16,0,0a1.34,1.34,0,0,0,1.36-2.32c-1.5-.85-3.25-.19-4.61.62a24,24,0,0,0-4.18,3.34c-.55.53-1.09,1.08-1.63,1.62a1.34,1.34,0,1,0,1.9,1.9Z"/><path d="M160.42,72.3a23.62,23.62,0,0,0,8.13,4.53,1.34,1.34,0,0,0,.72-2.58c-.35-.1-.68-.2-1-.32-.19-.06-.37-.13-.56-.21l-.14-.06c.1,0-.12,0-.15-.06a19,19,0,0,1-1.94-1A39.17,39.17,0,0,1,161.78,70a1.34,1.34,0,0,0-1.84.48,1.39,1.39,0,0,0,.48,1.83Z"/></g></g></svg>