<svg xmlns="http://www.w3.org/2000/svg" viewBox="0 0 171.6 196.63"><defs><style>.cls-1{fill:#9bc961;}.cls-2{fill:#fbe98e;}.cls-3{fill:#020202;}</style></defs><g id="Layer_2" data-name="Layer 2"><g id="Layer_4" data-name="Layer 4"><path class="cls-1" d="M142.15,48.32c-5.33-3.5-8.78-11.22-7.88-17.38,1-6.8,8.24-10.79,14-13.93,3.93-2.13,18.79-13,17.37-2.25-.55,4.09-2.52,7.4-2.62,11.8-.09,3.83-.1,7.1-1.82,10.66-2.5,5.17-6.45,7-11.81,8.51-2.9.82-6.22,1.44-7.72,4.25"/><path class="cls-2" d="M159.79,84.2c-10.15,2.23-20.17-1.69-29.45-4.64-12.27-3.9-25.54-4.34-38.39-3.87-23.33.86-40.67,10.44-58.28,23.9-14.15,10.81-21.25,29.09-22.08,45.78-.44,8.92,3.79,18.7-2.83,26.45,1.68,2,2.93.71,5.07,1.41,3.18,1,4.94,2.67,7.72,4.44C29.93,183,39.78,187.24,49,191c23.18,9.31,49.12,6.78,70.88-4.74,9.34-5,17.7-12.73,25.42-19.65,8.17-7.32,11-16.32,15.71-25.58,7-13.78,6.87-26.33,5.21-40.82a26.77,26.77,0,0,1,.76-9.47c.49-1.86,2.76-4,1.66-6-2.71-5.12-8.9,1.85-12.88,0"/><path d="M158.73,65.35a30.34,30.34,0,0,1-11.55.12,79.1,79.1,0,0,1-12-3.33c-3.92-1.35-7.8-2.77-11.84-3.76a95.64,95.64,0,0,0-12.83-2.13A139.7,139.7,0,0,0,85.65,56a84.47,84.47,0,0,0-21.44,4.46c-13.68,4.82-25.69,13-36.87,22.1S9.18,104.42,5.6,118.09a86,86,0,0,0-2,10.66A61.77,61.77,0,0,0,2.89,139c.13,3.57.65,7.12.87,10.68a38.33,38.33,0,0,1,0,5.14q0,.63-.12,1.26c-.09.81.11-.52,0,.29l-.09.49a18.85,18.85,0,0,1-.7,2.68c0,.16-.11.32-.17.48s-.34.79-.12.31c-.18.4-.37.79-.58,1.17s-.39.69-.61,1c-.12.19-.24.38-.37.56,0,0-.52.7-.25.36a2.75,2.75,0,0,0,0,3.75,5.6,5.6,0,0,0,2.86,1.91,12.61,12.61,0,0,0,2.81.17c.17,0,.72.15.1,0,.22.06.44.11.66.18,0,0,.86.33.44.16.26.1.5.22.75.34a20,20,0,0,1,2.86,1.77,123.79,123.79,0,0,0,12,7.7c4.34,2.4,8.8,4.56,13.31,6.6a132.27,132.27,0,0,0,13.92,5.68c18,5.81,37.7,4.87,55.31-1.74a95.69,95.69,0,0,0,13.08-6.06A83.25,83.25,0,0,0,131,175.4c3.71-3.06,7.24-6.34,10.71-9.66a79.27,79.27,0,0,0,9.75-10.4A66.68,66.68,0,0,0,158,143.67c1.87-4.13,3.68-8.3,5.54-12.44a71.73,71.73,0,0,0,6.2-28.46,128.08,128.08,0,0,0-.65-14.12,52.29,52.29,0,0,1-.41-7.4,27.65,27.65,0,0,1,.29-2.87c.09-.58.2-1.15.32-1.72.06-.28.12-.56.19-.84,0-.12.35-.95.1-.38,1-2.25,2.4-4.28,1.91-6.86a6.35,6.35,0,0,0-4.05-4.68c-3-1-6,.83-8.74,1.8-.32.11-.65.21-1,.29-.16,0-.33.06-.48.11-.54.17.62,0,.08,0-.14,0-.84.11-.91,0,.07.11.68.1.12,0-.19,0-.64-.28.08.06A2.65,2.65,0,1,0,154,70.72c3.24,1.5,6.17.07,9.22-1.13A15,15,0,0,1,165,69a1.66,1.66,0,0,1,.46-.1c-.15-.08-.64,0-.11,0,.14,0,.3,0,.44,0,.42,0-.68-.17,0,0L166,69c0,.09-.64-.37-.13,0s-.37-.48-.06,0c.09.12.23.25.33.36-.47-.52-.09-.09,0,.06l.1.18c.12.24.12.24,0,0l.06.22c0-.33,0-.34,0,0s0,.3,0,0a3.28,3.28,0,0,1-.11.45c0,.15-.09.3-.14.44.18-.54-.09.19-.12.25-.21.44-.44.87-.66,1.3a13.6,13.6,0,0,0-1.19,3.4,36.46,36.46,0,0,0-.77,7.51c0,2.37.37,4.73.58,7.09s.36,4.64.45,7c.36,9.26-.41,17.66-3.43,26.42-1.48,4.3-3.49,8.24-5.34,12.52a125,125,0,0,1-5.52,11.64,41.56,41.56,0,0,1-7.75,10.13c-3.35,3.23-6.69,6.47-10.15,9.59a103.14,103.14,0,0,1-10.66,8.6,79.26,79.26,0,0,1-12,6.71c-2,.92-3.71,1.62-6,2.44s-4.29,1.47-6.47,2.08-4.37,1.13-6.58,1.57c-1.1.21-2.21.41-3.32.58l-1.39.21-.41,0-1.11.13a80.34,80.34,0,0,1-13.43.38c-1.12-.06-2.24-.14-3.35-.25L66,189.73l-.7-.09c-.33,0-.37,0-.13,0l-.56-.08c-2.23-.33-4.46-.75-6.66-1.27-9.19-2.16-17.34-6-25.81-10.19A132.58,132.58,0,0,1,19.46,171c-1.91-1.22-3.72-2.56-5.56-3.88a16.62,16.62,0,0,0-6-3A15.16,15.16,0,0,0,5.15,164c-.62,0,0-.1,0,0L5,164c-.26-.09-.22-.06.14.08C5,164,4.63,163.65,5,164c-.18-.18-.35-.37-.52-.57v3.75A21.48,21.48,0,0,0,9,156.34a47.83,47.83,0,0,0-.21-10.56,69,69,0,0,1-.51-10.46c.09-1.7.24-3.39.43-5.08.05-.41.1-.83.16-1.24,0,.11-.07.49,0,0,0-.25.07-.5.1-.75.13-.83.27-1.67.42-2.49a82.15,82.15,0,0,1,2.5-10.15q.78-2.44,1.71-4.83c.16-.4.31-.79.48-1.19,0,0,.33-.8.12-.31l.21-.47q.56-1.29,1.17-2.55a66,66,0,0,1,5.16-8.88c.46-.65.93-1.3,1.41-1.94a2.56,2.56,0,0,1,.2-.26l.31-.39,1-1.17c1.08-1.27,2.22-2.5,3.41-3.67A90.89,90.89,0,0,1,35.24,83l.1-.08.64-.49,1.06-.8c.71-.53,1.42-1.06,2.14-1.57q2.22-1.62,4.5-3.16c2.85-1.9,5.76-3.7,8.76-5.36,1.55-.86,3.13-1.67,4.72-2.45.72-.35,1.45-.69,2.18-1l1-.47.7-.3a2.68,2.68,0,0,1,.3-.12,85.38,85.38,0,0,1,9.85-3.38c1.67-.45,3.35-.86,5-1.2.86-.18,1.72-.34,2.58-.49l1.31-.21.53-.08.53-.08.18,0,.45-.06.67-.08,1.22-.13c1-.1,2-.18,3-.25,2-.13,4-.18,5.92-.23,4.21-.1,8.43-.07,12.64.16a87.51,87.51,0,0,1,24.1,4.59c7.83,2.71,15.85,5.75,24.27,5.55a32.72,32.72,0,0,0,6.46-.81A2.68,2.68,0,0,0,162,67.2a2.71,2.71,0,0,0-3.26-1.85Z"/><path class="cls-3" d="M138.68,48.06l-.36-.26c-.08,0-.42-.32-.16-.11s-.14-.12-.19-.16l-.39-.33c-.45-.39-.87-.8-1.28-1.23s-.82-.9-1.2-1.37c0-.07-.33-.42-.13-.17l-.17-.22c-.19-.26-.37-.52-.55-.79a26.54,26.54,0,0,1-1.89-3.32c-.13-.26-.24-.52-.36-.78a1.47,1.47,0,0,0-.1-.22c.24.4.11.26.06.13s-.14-.34-.2-.51c-.23-.59-.44-1.19-.62-1.79a25.09,25.09,0,0,1-.84-3.65l0-.23s.06.51,0,.17c0-.13,0-.27,0-.41,0-.33-.06-.66-.08-1q-.06-.9,0-1.8c0-.58.11-1.16.13-1.74,0,0-.08.52,0,.19l0-.23c0-.14,0-.27.08-.4a9,9,0,0,1,.2-.9,17,17,0,0,1,.55-1.66l-.07.17.09-.21c.06-.13.12-.27.19-.4s.26-.53.41-.79a15.77,15.77,0,0,1,.92-1.47c.07-.11.15-.21.23-.32s.42-.51,0,0c.2-.23.38-.47.57-.7A24.78,24.78,0,0,1,136,19c.46-.41.94-.81,1.43-1.19l.19-.15-.18.14.38-.28c.25-.19.5-.38.76-.56,1-.7,2-1.36,3-2,1.67-1,3.41-2,5.09-3,1.14-.7,2.25-1.44,3.37-2.16,1.42-.91,2.85-1.81,4.32-2.65.75-.43,1.5-.84,2.27-1.24l1.17-.57.5-.23.29-.13c.42-.18-.43.18-.08,0a17.64,17.64,0,0,1,2.11-.75c.33-.09.66-.17,1-.23l.24,0c.36-.06-.34,0-.26,0l.5,0c.28,0,.55,0,.84,0,.09,0-.63-.11-.3,0l.19,0,.38.11c.19.06.34.22-.26-.12l.15.07.32.2c.25.14-.43-.38-.22-.17l.12.11.13.13c.26.27-.18-.17-.15-.21s.19.29.2.32a1.62,1.62,0,0,1,.1.18c.18.34-.13-.36-.08-.2a7.36,7.36,0,0,1,.25.92s0,.07,0,.1c0,.26,0-.34-.05-.32s0,.2,0,.28,0,.41,0,.62a12.49,12.49,0,0,1-.06,1.36c0,.13,0,.26,0,.38s0-.21,0-.19,0,.18,0,.27c0,.37-.12.74-.19,1.1-.14.72-.31,1.43-.5,2.13-.36,1.35-.77,2.69-1.15,4a33.5,33.5,0,0,0-.95,4.17,38.11,38.11,0,0,0-.35,5c0,1.46-.09,2.93-.24,4.39l-.06.55a1.62,1.62,0,0,0,0,.2c0-.48,0-.24,0-.11L160,30.41c-.14.74-.32,1.47-.53,2.19-.1.35-.21.69-.33,1l-.18.49c0,.09-.07.18-.11.28s-.19.44-.07.18-.12.25-.15.32l-.22.46c-.15.3-.3.59-.46.88A17.52,17.52,0,0,1,157,37.8c-.16.23-.34.45-.49.68.33-.51.06-.09,0,0l-.28.33c-.37.43-.77.84-1.18,1.23-.19.17-.39.35-.59.51a3.11,3.11,0,0,1-.28.23l-.16.13c.09-.08.37-.28.11-.09a19,19,0,0,1-2.79,1.71l-.67.32-.4.18-.19.09.17-.07c-.55.21-1.1.44-1.66.64-1.13.4-2.28.76-3.43,1.09-2.38.68-4.91,1.33-6.92,2.83a9.57,9.57,0,0,0-2.8,3.2,2,2,0,1,0,3.43,2,8.45,8.45,0,0,1,.49-.82l.14-.19s-.31.38-.1.13.19-.23.3-.34a6.35,6.35,0,0,1,.65-.62l.17-.14s-.4.29-.14.11l.37-.25a12,12,0,0,1,1.58-.85l-.16.07.21-.09.43-.16q.44-.16.87-.3c2.35-.77,4.76-1.34,7.07-2.26a23.42,23.42,0,0,0,6.53-3.74,18.74,18.74,0,0,0,4.6-6,26.06,26.06,0,0,0,2.45-9.45c.12-1.53.15-3.06.19-4.59,0-.8,0-1.59.11-2.38a3.7,3.7,0,0,1,.07-.57c0,.05-.07.47,0,.1,0-.09,0-.18,0-.28.06-.37.12-.74.2-1.1.58-2.87,1.62-5.62,2.25-8.48.48-2.19.92-4.67.28-6.88a5,5,0,0,0-3.35-3.5,8.44,8.44,0,0,0-4.59.2A38.47,38.47,0,0,0,150,5.13c-1.35.83-2.67,1.7-4,2.56s-2.55,1.55-3.85,2.3c-4.34,2.52-8.83,5.33-12,9.32a17.91,17.91,0,0,0-3.56,7.07,21.65,21.65,0,0,0-.08,8.26A27.1,27.1,0,0,0,133.68,49a21,21,0,0,0,3,2.5,2,2,0,0,0,2.72-.71,2,2,0,0,0-.71-2.72Z"/></g></g></svg>