<svg xmlns="http://www.w3.org/2000/svg" viewBox="0 0 130 148.96"><defs><style>.cls-1{fill:#9bc961;}.cls-2{fill:#fbe98e;}.cls-3{fill:#020202;}</style></defs><g id="Layer_2" data-name="Layer 2"><g id="Layer_4" data-name="Layer 4"><path class="cls-1" d="M107.69,36.61a14.55,14.55,0,0,1-6-13.17c.75-5.15,6.24-8.18,10.64-10.56,3-1.61,14.23-9.83,13.15-1.7-.41,3.1-1.91,5.61-2,8.94-.07,2.9-.08,5.38-1.38,8.08-1.89,3.91-4.88,5.3-8.94,6.44-2.2.63-4.72,1.09-5.85,3.22"/><path class="cls-2" d="M121.05,63.79c-7.69,1.69-15.28-1.28-22.3-3.52-9.3-3-19.35-3.28-29.09-2.93C52,58,38.85,65.25,25.51,75.45c-10.72,8.19-16.1,22-16.73,34.68-.33,6.76,2.87,14.17-2.14,20,1.27,1.51,2.21.54,3.84,1.07,2.41.79,3.74,2,5.85,3.37,6.34,4,13.81,7.25,20.81,10.06,17.57,7.05,37.21,5.14,53.7-3.59,7.08-3.75,13.41-9.65,19.26-14.89,6.19-5.54,8.36-12.36,11.9-19.38,5.27-10.44,5.21-19.94,4-30.92a20.22,20.22,0,0,1,.57-7.18c.37-1.4,2.09-3,1.26-4.58-2-3.88-6.74,1.41-9.75,0"/><path d="M120.25,49.51a23,23,0,0,1-8.75.09,60.66,60.66,0,0,1-9.07-2.52c-3-1-5.92-2.1-9-2.85a72.73,72.73,0,0,0-9.72-1.62,106.92,106.92,0,0,0-18.85-.2,64,64,0,0,0-16.25,3.38c-10.36,3.65-19.46,9.86-27.93,16.74S7,79.1,4.24,89.46a67.34,67.34,0,0,0-1.55,8.08,47,47,0,0,0-.5,7.77c.1,2.71.49,5.39.66,8.1a29.55,29.55,0,0,1,0,3.88q0,.48-.09,1c-.07.62.08-.39,0,.22,0,.12,0,.25-.07.37a14.08,14.08,0,0,1-.53,2c0,.12-.08.24-.13.37s-.25.6-.09.23c-.13.3-.28.6-.44.89s-.29.52-.46.78-.18.28-.28.42c0,0-.4.53-.19.27a2.08,2.08,0,0,0,0,2.84,4.18,4.18,0,0,0,2.17,1.45,9.41,9.41,0,0,0,2.12.13c.14,0,.55.12.08,0l.5.13s.65.25.34.12l.56.26A15.07,15.07,0,0,1,8.5,130.1a96.46,96.46,0,0,0,9.11,5.84c3.28,1.81,6.66,3.45,10.08,5a102.71,102.71,0,0,0,10.55,4.3,64,64,0,0,0,41.89-1.32,73.68,73.68,0,0,0,9.92-4.59,62.63,62.63,0,0,0,9.21-6.45c2.82-2.32,5.49-4.8,8.12-7.32a59.87,59.87,0,0,0,7.39-7.88,49.65,49.65,0,0,0,4.93-8.84c1.42-3.13,2.79-6.28,4.2-9.42a54.3,54.3,0,0,0,4.7-21.56,98,98,0,0,0-.49-10.7,37.62,37.62,0,0,1-.31-5.61c0-.8.12-1.59.21-2.17s.15-.87.25-1.31c0-.21.09-.42.14-.63s.27-.72.08-.29c.75-1.7,1.81-3.24,1.44-5.2a4.8,4.8,0,0,0-3.06-3.54c-2.31-.78-4.52.63-6.62,1.36l-.74.23c-.12,0-.25,0-.37.08-.4.12.48,0,.06,0-.09,0-.63.08-.68,0,0,.09.51.08.09,0-.14,0-.48-.21.06,0a2.06,2.06,0,0,0-2.75.72,2,2,0,0,0,.72,2.75c2.45,1.14,4.67.06,7-.85a11.16,11.16,0,0,1,1.38-.46,1.55,1.55,0,0,1,.35-.07c-.11-.06-.49,0-.08,0h.33c.32,0-.52-.13,0,0l.2.06c0,.08-.49-.27-.1,0s-.28-.36,0,0c.07.09.18.18.26.27-.36-.4-.07-.07,0,.05l.07.13c.09.18.09.18,0,0l0,.17c0-.25,0-.26,0,0s0,.22,0,0c0,.11,0,.23-.08.34l-.12.33c.14-.41-.06.14-.08.19-.16.33-.34.65-.5,1a10,10,0,0,0-.9,2.58,27.21,27.21,0,0,0-.59,5.69c0,1.8.28,3.58.44,5.37s.27,3.52.34,5.28a53,53,0,0,1-2.6,20c-1.11,3.25-2.64,6.24-4,9.48a96.07,96.07,0,0,1-4.19,8.82,31.23,31.23,0,0,1-5.86,7.67c-2.55,2.45-5.08,4.91-7.69,7.27a79.12,79.12,0,0,1-8.08,6.51,59.62,59.62,0,0,1-9.1,5.09c-1.52.69-2.81,1.22-4.51,1.84s-3.25,1.12-4.9,1.58-3.31.86-5,1.19c-.83.16-1.67.31-2.51.44l-1,.16-.31,0-.84.1a62.92,62.92,0,0,1-10.18.29c-.84-.05-1.69-.12-2.54-.2L50,143.74l-.53-.07c-.25,0-.28,0-.1,0l-.42-.06q-2.55-.37-5-1c-7-1.64-13.14-4.54-19.56-7.72a101,101,0,0,1-9.58-5.36c-1.44-.92-2.81-1.94-4.21-2.93A12.45,12.45,0,0,0,6,124.37a11.44,11.44,0,0,0-2.1-.12c-.46,0,0-.08,0,0l-.12,0c-.2-.07-.17,0,.1.06-.1-.06-.39-.33-.1,0a5.66,5.66,0,0,1-.4-.44v2.84a16.26,16.26,0,0,0,3.38-8.23,36.29,36.29,0,0,0-.16-8,51.26,51.26,0,0,1-.38-7.93c.07-1.28.18-2.56.32-3.84l.12-.94c0,.08,0,.37,0,0,0-.19,0-.38.08-.57.09-.63.2-1.26.31-1.89A61.66,61.66,0,0,1,9,87.55c.39-1.23.82-2.45,1.29-3.65q.18-.47.36-.9s.26-.61.1-.24l.15-.36c.29-.65.58-1.29.89-1.93a49.19,49.19,0,0,1,3.92-6.73c.34-.49.7-1,1.06-1.46s-.24.29.15-.2l.24-.3.72-.88c.82-1,1.68-1.9,2.59-2.79a69.5,69.5,0,0,1,6.25-5.23c-.23.17,0,0,.07-.06l.49-.37.8-.61,1.62-1.19c1.12-.82,2.26-1.61,3.41-2.39,2.16-1.44,4.37-2.81,6.64-4.06,1.17-.65,2.37-1.27,3.58-1.86L45,51.57l.79-.35.52-.23c.58-.24-.35.15.23-.09A63.88,63.88,0,0,1,54,48.34c1.26-.34,2.53-.65,3.82-.91.65-.13,1.3-.26,2-.37l1-.16.4-.06.4-.06.14,0,.34,0,.51-.06.92-.1c.76-.07,1.52-.14,2.28-.19,1.49-.09,3-.14,4.48-.17,3.19-.08,6.39-.06,9.58.12A66.13,66.13,0,0,1,98,49.8c5.93,2.05,12,4.35,18.38,4.2a24.43,24.43,0,0,0,4.9-.62,2,2,0,0,0,1.4-2.47,2.05,2.05,0,0,0-2.47-1.4Z"/><path class="cls-3" d="M105.06,36.41l-.27-.2c-.06,0-.32-.24-.12-.08s-.11-.09-.15-.12l-.29-.25c-.34-.3-.66-.61-1-.93s-.62-.68-.91-1l-.1-.13-.13-.17-.42-.59a20.91,20.91,0,0,1-1.43-2.52l-.27-.59a1.22,1.22,0,0,0-.07-.17c.17.31.08.2,0,.1l-.15-.39c-.18-.44-.33-.89-.47-1.35a19,19,0,0,1-.64-2.76,1,1,0,0,0,0-.18s0,.39,0,.13c0-.1,0-.21,0-.31s0-.5-.06-.76q0-.68,0-1.35c0-.45.09-.89.11-1.33,0,0-.07.4,0,.15,0-.06,0-.12,0-.18l.06-.3c0-.23.09-.46.15-.68.12-.43.26-.84.42-1.26.09-.23,0,.11,0,.13l.06-.16.15-.3a5.65,5.65,0,0,1,.31-.6,12.8,12.8,0,0,1,.69-1.11l.18-.24c.06-.09.32-.39,0,0l.43-.53A20,20,0,0,1,103,14.39c.35-.31.72-.61,1.08-.9l.14-.11s-.26.2-.12.1l.28-.21.57-.42c.75-.53,1.52-1,2.3-1.52,1.27-.78,2.59-1.49,3.86-2.27.86-.53,1.7-1.09,2.55-1.63,1.08-.69,2.16-1.37,3.27-2,.57-.33,1.14-.64,1.72-.94.3-.15.59-.3.89-.43l.38-.18.22-.1-.07,0a15.33,15.33,0,0,1,1.61-.56c.24-.07.49-.13.74-.18l.19,0-.2,0,.38,0c.21,0,.42,0,.63,0S123,3,123.19,3l.15,0,.29.08c.14,0,.26.17-.2-.09l.12.06.24.14c.19.11-.32-.28-.17-.13l.09.09a.94.94,0,0,1,.1.1c.2.2-.14-.13-.12-.16s.15.22.16.24.05.09.08.14c.13.26-.11-.28-.06-.15a5.38,5.38,0,0,1,.18.69s0,0,0,.08c0,.19,0-.26,0-.25a.83.83,0,0,0,0,.22c0,.15,0,.31,0,.47,0,.34,0,.68,0,1l0,.29,0-.15A1.52,1.52,0,0,0,124,6c0,.28-.09.56-.15.83-.11.54-.23,1.08-.38,1.62-.27,1-.58,2-.87,3a26.27,26.27,0,0,0-.72,3.16,31.89,31.89,0,0,0-.27,3.79c0,1.11-.06,2.22-.18,3.33,0,.13,0,.27,0,.41a.88.88,0,0,0,0,.16c0-.37,0-.18,0-.09,0,.28-.08.55-.14.83a16,16,0,0,1-.39,1.66c-.08.26-.17.52-.26.78l-.13.37-.09.21s-.14.34,0,.13a2.38,2.38,0,0,0-.11.25l-.17.35c-.11.22-.22.45-.35.67q-.33.6-.72,1.17c-.12.18-.26.34-.37.52.25-.38,0-.06,0,0l-.22.26a11,11,0,0,1-.89.92,5.34,5.34,0,0,1-.44.39l-.21.18-.13.1.09-.07a14.81,14.81,0,0,1-2.12,1.29l-.51.25-.29.13-.15.07.13-.06c-.42.16-.84.34-1.26.49-.85.31-1.72.57-2.6.83a15.63,15.63,0,0,0-5.24,2.14,7.07,7.07,0,0,0-2.12,2.43,1.51,1.51,0,0,0,2.6,1.52,4.23,4.23,0,0,1,.37-.62l.1-.15s-.23.29-.07.1l.22-.26c.16-.16.32-.32.49-.46l.14-.11-.11.08.28-.19a8.6,8.6,0,0,1,1.2-.64l-.12.05.16-.07.32-.12.66-.23c1.78-.58,3.61-1,5.36-1.71a17.71,17.71,0,0,0,4.94-2.83,14,14,0,0,0,3.48-4.57,19.61,19.61,0,0,0,1.86-7.16c.09-1.16.12-2.32.14-3.48,0-.6,0-1.2.09-1.8a3,3,0,0,1,0-.43s0,.35,0,.08a2.07,2.07,0,0,1,0-.22c0-.28.09-.55.15-.83.44-2.18,1.23-4.26,1.7-6.43a10.7,10.7,0,0,0,.21-5.21A3.75,3.75,0,0,0,124.32.18a6.31,6.31,0,0,0-3.47.16,29.41,29.41,0,0,0-7.23,3.54c-1,.64-2,1.3-3,2S108.65,7,107.67,7.57c-3.29,1.91-6.69,4-9.07,7.06A13.59,13.59,0,0,0,95.9,20a16.43,16.43,0,0,0-.06,6.25,20.52,20.52,0,0,0,5.44,10.87,15.17,15.17,0,0,0,2.26,1.9,1.51,1.51,0,0,0,2.06-.54,1.54,1.54,0,0,0-.54-2.06Z"/></g></g></svg>