<svg xmlns="http://www.w3.org/2000/svg" viewBox="0 0 130 148.5"><defs><style>.cls-1{fill:none;}.cls-2{fill:#9bc961;}</style></defs><g id="Layer_2" data-name="Layer 2"><g id="Layer_3" data-name="Layer 3"><path class="cls-1" d="M39.31,27.16h0l-.15.17-.38.4-.39.42L36.75,30l-2,2.16h0a6,6,0,0,1-1.14,1.22h0a.35.35,0,0,1-.11,0h0c.12-.17.22-.35.34-.52l.92-1.3.83-1.1h0c.23-.29.45-.57.7-.84h0c.27-.31.58-.6.86-.9L38,27.9l.89-.89.67-.61h0l.33-.29h0c.08-.05.15-.12.23-.16h0l.14,0h0c0,.08-.05.16-.08.23h0a7.31,7.31,0,0,1-.46.76l-.48.78-.64,1.11-.61,1-.59.81-.58.69-.42.53-.31.38-.2.23h0l-.07.09h0l.12-.12h0a3.42,3.42,0,0,0,.26-.4l.47-.8.58-1,.52-.89.5-.86.4-.65.25-.4"/><circle class="cls-2" cx="70.9" cy="87.85" r="59.1"/><path d="M56,34.63a4,4,0,0,0-1.82-1.2h0c-.83-.44-.3-.13-1.14-.82-.53-.5-1.08-1-1.58-1.52.09-.12.17-.25.23-.32.65-1,.52-.74,1.26-1.74s1.59-2.44,2-2.92a21,21,0,0,0,4.28-7.4,27.25,27.25,0,0,1-3.49,4.63,19.26,19.26,0,0,1-2.07,1.84c-.75.69-1.36,1.51-2.07,2.25A34.5,34.5,0,0,0,49,30.17a2.08,2.08,0,0,0-.42,1.12,1.33,1.33,0,0,0,.41,1,12.91,12.91,0,0,0,1,1.32,13.46,13.46,0,0,0,2.23,2.17A26.09,26.09,0,0,0,50,37.66l-.93.86L49,38.6A16.39,16.39,0,0,0,46.06,41l-.3.26-.17.11a7.38,7.38,0,0,0-1.46.57,2.44,2.44,0,0,0-.56.39l-.41.28,0,0a2.08,2.08,0,0,0-.58.33l-.06.05a1.84,1.84,0,0,0-.37,3.34,1.68,1.68,0,0,0,.39.16l.29.28C44,47.92,45.35,49,46.5,50.21l0,0,.21.33-.13.11c-.92.81-1.79,1.66-2.76,2.39a28.83,28.83,0,0,0-3.43,3.38c.09-.12.18-.23,0,0l-.06.07a2,2,0,0,0-.92,2.24,7.38,7.38,0,0,0,2.14,2.7c.7.67,1.34,1.39,2,2.11l.69.7c-1.06,1-2.07,2-3,3.07a13.83,13.83,0,0,0-1.1,1.45,4.85,4.85,0,0,0-.33.82c-.58,1.19-1.54,2.18-1.84,3.5v0A1.67,1.67,0,0,0,38,74.33a1.64,1.64,0,0,0,.61.79,3.44,3.44,0,0,1,.3.35l-.23-.3h0c1.93,2.38,2.51,3.76,4.21,5.69-.4.85-.76,1.72-1.24,2.53-.71,1.29-1.56,2.52-2.24,3.83a20.34,20.34,0,0,0-1,2.81s0,0,0,0-.08.18-.11.27a1.76,1.76,0,0,0-.27,1,1.85,1.85,0,0,0,1.16,1.74,18.08,18.08,0,0,0,2,1.88c.91.72,1.75,1.29,2.27,1.66-.35.64-.66,1.3-1,2-.81,1.41-1.59,2.84-2.3,4.3-.24.42-.46.85-.66,1.28a2.07,2.07,0,0,0-.42,2,1.94,1.94,0,0,0,1.91,1.39l.77.5.33.24.16.12a17.15,17.15,0,0,1,1.48,1.07,1.94,1.94,0,0,0,.77,1h0a6.57,6.57,0,0,0,.67.51l0,0c-.39.69-.7,1.43-1.06,2.15-.47,1-1,2-1.41,3h0l.14-.34a2.4,2.4,0,0,1-.2.39,2.72,2.72,0,0,0-.24.24,2.09,2.09,0,0,0-.33.45l0,.05a2.42,2.42,0,0,0-.27.36,2.63,2.63,0,0,0-.38.56,1.15,1.15,0,0,0-.3.51,1.81,1.81,0,0,0,1.13,2.42,10.4,10.4,0,0,0,1.9.57c.78.21,1.61.24,2.38.52l.14.08c.1.11.19.22.3.32a2,2,0,0,0,.44.32,2,2,0,0,0,.39.24c-.1.53-.14,1.08-.2,1.6a19.87,19.87,0,0,0-.19,4.22c0,.12,0,.24,0,.37l0,.14c0,.11,0,.21,0,.31a6.45,6.45,0,0,0-.25,1.22,1.81,1.81,0,0,0,.49,1.4,6.34,6.34,0,0,0,1.22.75A10,10,0,0,0,51,133.9h0l0,.09a1.08,1.08,0,0,0-.08.19,12.28,12.28,0,0,0-.39,3,7.66,7.66,0,0,0,0,2.19c0,.37-.12.72-.1,1.09a.73.73,0,0,0,.48.69h0a11.12,11.12,0,0,1,1,.94,13.9,13.9,0,0,0,2.54,2.37,1.47,1.47,0,0,0,.39.21c.07,0,.11.1.19.13a.66.66,0,0,1,.15.14.43.43,0,0,0,.24.1h0a.33.33,0,0,0,0,.14c.06.08.14.14.2.22,0-.09-.12-.16-.13-.25s0-.14,0-.2l-.17-.07a1.29,1.29,0,0,1-.09-.16,2.35,2.35,0,0,0-.46-.43c-1.18-1.13-1.74-2.7-2.75-4l-.07-.1a5.52,5.52,0,0,0,.18-.53,11.55,11.55,0,0,1,.16-1.16c.15-.62.37-1.21.5-1.83a12,12,0,0,1,.31-1.35,1,1,0,0,1,.07-.15c.05-.1.12-.2.16-.27l.21-.25.2-.22a1.35,1.35,0,0,0,.26-.15,1.07,1.07,0,0,0,.16-.14,1.25,1.25,0,0,0,.39-.95,1.31,1.31,0,0,0-.39-1l0,0a1.3,1.3,0,0,0-.49-.3,2.34,2.34,0,0,0-.8-.48,6,6,0,0,0-.57-.28l-.34-.17a3.87,3.87,0,0,1-.43-.27c-.63-.49-.4-.32-.7-.54,0-.13.07-.26.11-.39l0,.08A3,3,0,0,0,51,129c0-1,0-2.09.12-3.12,0-.36.2-1.36.21-1.61l0-.33c0-.06,0-.11,0-.16.06-.25.1-.5.16-.75a1.85,1.85,0,0,0,0-2.6,1.91,1.91,0,0,0-.87-.47l-.06,0a2,2,0,0,0-1.2-.42,4.67,4.67,0,0,0-2-1.18c-.5-.14-1-.24-1.53-.33.32-.5.3-.79.51-1.12.69-1.35,1.3-2.74,2-4.08a1.78,1.78,0,0,0,.74-.7c.68-1.26-.09-3-1.91-4.25h0a2.37,2.37,0,0,0-.51-.86,2.45,2.45,0,0,0-.7-.49h0a15.61,15.61,0,0,0-1.6-1.21c-.28-.22-.57-.43-.87-.64.57-1.13,1.1-2.29,1.73-3.39.52-.92,1-1.88,1.44-2.82a9,9,0,0,0,.71-1.33,2.61,2.61,0,0,0,.1-1.24,1.89,1.89,0,0,0-1.15-1.61,6.69,6.69,0,0,0-.92-.75c-.4-.34-.26-.15-1.45-1.08a13.63,13.63,0,0,1-1.44-1.3l-.39-.4c.18-.57.34-1.14.54-1.71a22.51,22.51,0,0,1,1.2-2.06,32.05,32.05,0,0,0,2-3.91c.61-1.21,1.34-2.93.27-4.09a2.34,2.34,0,0,0-.41-.29h0l0,0-.07-.09c-.14-.18-.31-.33-.46-.49l-.14-.21C44.4,77,43.36,75.14,42,73.35l-.05-.06L42,73.2a15.49,15.49,0,0,0,1-1.63,10,10,0,0,0,.4-.95,6.05,6.05,0,0,1,1-1.18c1-1,2.41-2.44,3.19-3.15a1.86,1.86,0,0,0,1.26-1.76c-.06-1.41-1.41-2.25-2.27-3.2s-1.94-2-3-3c.4-.43,1-1,1.83-1.74.68-.68,1.43-1.27,2.16-1.88s1.37-1.27,2.07-1.88A1.8,1.8,0,0,0,50.43,50l0,0c-.06-.15-.12-.29-.19-.43a5.8,5.8,0,0,0-1.06-1.72,35,35,0,0,0-2.68-2.63l-.33-.31a5,5,0,0,0,2.07-1.12A15.44,15.44,0,0,1,50,42.1l.18-.15c.22-.15.45-.3.67-.47.83-.63,1.54-1.42,2.32-2.11a8.4,8.4,0,0,1,.76-.7l.26-.2a4.3,4.3,0,0,1,.52-.35h0a2.49,2.49,0,0,0,1.82-.5,1.63,1.63,0,0,0,.34-1.8C56.75,35.33,56.28,35,56,34.63Z"/><path d="M71.05,27.38a4.13,4.13,0,0,0-.56-.62,3,3,0,0,0-.53-.6h0s0,0,0,0a3.67,3.67,0,0,0-.52-.6l-.11-.09h0a4,4,0,0,0-.67-1.05,21.94,21.94,0,0,0-2.21-2.1,3.45,3.45,0,0,0,0-1.2,1.24,1.24,0,0,0-1.52-.86.86.86,0,0,0-.36.17c-.71-.76-1.41-1.54-2.13-2.3C63,19,63.48,20,64,21a9.83,9.83,0,0,0-1,1.83q-.32.62-.6,1.26a1.18,1.18,0,0,0-.31-.78,6.8,6.8,0,0,0,.62-1.44c.07-.31.22-.59.31-.89a.59.59,0,0,0-.38-.71.52.52,0,0,0-.39.07,2,2,0,0,0,.1-.4,1.06,1.06,0,0,0-1.64-1.05,6.35,6.35,0,0,0-.82.82,1.29,1.29,0,0,0-.8-.72c-1.23-.3-1.66,1-2.14,1.84-.4.67-.89,1.3-1.3,2a1.26,1.26,0,0,0-.1,1.47c-.21.44-.41.88-.61,1.32-.11.22-.21.45-.31.68L54,27.43a1.42,1.42,0,0,0-.19,1.1,1.11,1.11,0,0,0,.4.61l-1,1.43a.76.76,0,0,0,.44,1.09s0,.05,0,.08a1.26,1.26,0,0,0,1.8.76h0a1.44,1.44,0,0,0,.3.41,1.63,1.63,0,0,0,.92.47,7.59,7.59,0,0,0-.32,2.91,1.28,1.28,0,0,0,1.55.88l.19-.07-1.35,2.72a27.14,27.14,0,0,1-1.46,2.71l-.13.18,0,0a1.54,1.54,0,0,0-.79-1.45,2.32,2.32,0,0,0,.27-.93A1.48,1.48,0,0,0,54.07,39a1.53,1.53,0,0,0-2,.2,15.56,15.56,0,0,0-1.84,2.28l-.89,1.39a25.07,25.07,0,0,0-2.57,3.55,1.66,1.66,0,0,0-.19,1.7,1.28,1.28,0,0,0,1.28.62,2.47,2.47,0,0,0,1.67-1.39l0,0a1.8,1.8,0,0,0,.53.37,1.45,1.45,0,0,0,1.15-.07l-.11.32q-.27.75-.57,1.5a2.94,2.94,0,0,0-.22.48,1.37,1.37,0,0,0,.22,1.18A1.25,1.25,0,0,0,52.68,51c.65-.91,1.28-1.83,1.89-2.77l1-1.41c-.58,1.19-1.27,2.33-2,3.47h0l-.21.36a6,6,0,0,0-1.07,2,1.17,1.17,0,0,0,.37,1.08,21.92,21.92,0,0,0-2.13,2.84c-.11.1-.23.19-.33.29.05-.16.11-.32.15-.48s.1-.18.16-.27l.36-.58a1.22,1.22,0,0,0-.09-1.77c0-.93-.53-1.74-1.71-1.39-.74.22-1,1-1.36,1.65s-.61,1.24-.9,1.87c-.26.78-1,1.48-.82,2.35a1.09,1.09,0,0,0,.42.62,1.43,1.43,0,0,0,.21,1.56c-.16.48-.31,1-.46,1.45,0,.17-.23.67-.27.79a1.76,1.76,0,0,0-.2.84,1.43,1.43,0,0,0,1.15,1.37,1.63,1.63,0,0,0,1.32-.59,1.13,1.13,0,0,0,0,.32c-.42,1.13-.76,2.09-1.12,3-.06.07-.11.15-.16.22a7.23,7.23,0,0,0-.68,1C45.05,71,44.6,71.7,43.6,73.74c-.2.42-.38.84-.58,1.26a2.34,2.34,0,0,0-.45,1.33,1.19,1.19,0,0,0,1.18,1.18,1.27,1.27,0,0,0,.57-.15,1.8,1.8,0,0,0,.33.1,1.3,1.3,0,0,0,1.09,1.6,1.9,1.9,0,0,0,1.37-.45,3.75,3.75,0,0,0,.51-.38,9.16,9.16,0,0,0-.61.92h0l-.06.08,0,0a18.88,18.88,0,0,0-1.61,3.41,50.19,50.19,0,0,0-2.27,6.29,1.78,1.78,0,0,0,0,1.43,1.19,1.19,0,0,0,.88.57c-.48,1-.94,2.06-1.4,3.09a7.38,7.38,0,0,0-.91,3,1.8,1.8,0,0,0,0,.19,2.61,2.61,0,0,0,3.87,2.31c-.14.74-.29,1.48-.45,2.21a7,7,0,0,0-.25,3,3.48,3.48,0,0,0,.42.84v0a3,3,0,0,0,.67,3.09,2.69,2.69,0,0,0,1,.64,3,3,0,0,0,1.4,3.06l.15.08a3.27,3.27,0,0,0,.32,3.15,2.57,2.57,0,0,0,1.62,1,2.16,2.16,0,0,0,1.08,1.87,2,2,0,0,0,1,.29l0,.71c0,.89,0,1.77,0,2.66a1.62,1.62,0,0,1,0,.22,4,4,0,0,0-.14,2.46l0,.13a2.46,2.46,0,0,0-.4.39c-.06-.24-.12-.49-.17-.74q0,.5,0,1a2.24,2.24,0,0,0-.25.57,4.11,4.11,0,0,0,.21,2.08c.1.46.21.91.32,1.36s.14,1.16.22,1.74a15.61,15.61,0,0,0,1.12,4.42,4,4,0,0,0-.7,2.21l0,.29a1.3,1.3,0,0,0-.17.58,1.49,1.49,0,0,0,.08.84,5,5,0,0,0,0,4.06A4.34,4.34,0,0,0,54,145.66a2.27,2.27,0,0,0,2.41.43,2,2,0,0,0,.87-1.11,1.36,1.36,0,0,0,.62.4,1.14,1.14,0,0,0,1-.22h0a1.18,1.18,0,0,0,1.82,0,1.73,1.73,0,0,0,.16-1.54,2.39,2.39,0,0,1,.13.21l.22.46a1.19,1.19,0,0,0,1.9.4c.23.47.46.94.7,1.4a1.3,1.3,0,0,0,.86.85,1.19,1.19,0,0,0,1.49-.82h.19a.67.67,0,0,0,.12-.06h0a.66.66,0,0,0,.22-.22.56.56,0,0,0,.08-.3,4,4,0,0,0-.32-1.71v0c0-.19,0-.39,0-.6a.47.47,0,0,0,.34-.47,4.05,4.05,0,0,0-.59-1.64A8.65,8.65,0,0,0,65,139.64a3.4,3.4,0,0,0-.07-.34c0-.16-.09-.31-.14-.46a4.86,4.86,0,0,0-.23-1.43,2.75,2.75,0,0,0-.9-1.36,5.12,5.12,0,0,0-.82-.47l-.54-.23,0-.32a.36.36,0,0,0,0-.1l0,0a3,3,0,0,0,.49-.29,4.5,4.5,0,0,0,1-.71c1.59-.92,1.62-2.63,1-4.14l0-.09a3.66,3.66,0,0,0-.73-1.27l-.09-.06a2.4,2.4,0,0,0-1-.6,3.74,3.74,0,0,0-.74-.15h0a3.29,3.29,0,0,0-1.4-.25l-1.34,0,0-.06.06-.1h0a1.47,1.47,0,0,0,.1-.13l0,0a6.86,6.86,0,0,0,.48-.59c.2-.4.46-.77.65-1.18a2.76,2.76,0,0,0,.25-.44l0-.06v0a6.09,6.09,0,0,1,.6-.54l.19-.15c.87-.68.73-.65,1.08-.9a3.33,3.33,0,0,0,1-1.33,2.59,2.59,0,0,0-.12-2h0a3.06,3.06,0,0,0-.35-1.07,2.75,2.75,0,0,0-1.52-1.46A4,4,0,0,0,60.7,117s-.05-.11-.08-.16a.47.47,0,0,0-.06-.1,2.9,2.9,0,0,0-1-1.17l-.36-.27a2.81,2.81,0,0,0-.39-.19,3.12,3.12,0,0,0-.49-.23c0-.08,0-.15,0-.22a5.47,5.47,0,0,1,.15-.58c0-.19.09-.39.15-.58s.17-.3.27-.45a3.71,3.71,0,0,0,.41-.85c.07-.14.13-.28.19-.43s0-.15.05-.23a2.43,2.43,0,0,0,.16-.37l0-.12a1.63,1.63,0,0,0,.11-.23l.1-.15c.12-.14.24-.29.35-.44.28-.22.6-.5.48-.43l.11-.09a1.78,1.78,0,0,0,.27-.21,6.79,6.79,0,0,0,.65-.77,1.14,1.14,0,0,0,.22-.32s0-.09.05-.13a2.35,2.35,0,0,0,.31-1.58,2.69,2.69,0,0,0-.22-.93,3.16,3.16,0,0,0-.22-1.33,1.08,1.08,0,0,0-.08-.19,3,3,0,0,0-.15-.38,1.59,1.59,0,0,0-.12-.27,6.46,6.46,0,0,0-.85-1.49h0a5.58,5.58,0,0,0-1-1.18.94.94,0,0,1-.1-.1,1.9,1.9,0,0,0-.9-.71c-.45-.31-.94-.54-1.39-.84-.09-.07-.21-.19-.33-.3h0a2.2,2.2,0,0,0,.35-.68l0,0,.37-.51a.49.49,0,0,0,.08-.1,12.67,12.67,0,0,1,1.08-1l-.1.07.37-.31.23-.2A5.82,5.82,0,0,0,60.46,95c.26-.34.48-.72.72-1.07a3.83,3.83,0,0,1,.29-.28l.19-.15c.17-.14.34-.27.5-.42A3.93,3.93,0,0,0,63.23,92a3.78,3.78,0,0,0,.58-1.91,7.12,7.12,0,0,0-.31-2,4,4,0,0,0-.21-.47,3.4,3.4,0,0,0-.67-1.11A12,12,0,0,0,60.88,85a5.65,5.65,0,0,0-.86-.69,2.63,2.63,0,0,0-.4-.28l0,0a3.35,3.35,0,0,0-1-.52,3.89,3.89,0,0,0-.44-.16l-.21,0-.17,0a4.52,4.52,0,0,0-.47-.18L57,82.92l-.06-.06a1.3,1.3,0,0,1-.1-.15.08.08,0,0,0,0,0,5.7,5.7,0,0,0,1.66-1c.27-.28.57-.52.85-.8s.66-.57,1-.86l.13-.09c.92-.57,1.89-1.07,2.86-1.56a9.74,9.74,0,0,0,1.35-.54c1.81-.9,1.92-3.06,1-4.66l-.09-.21a4.87,4.87,0,0,0-1.47-1.46l-.39-.25a9,9,0,0,0-1.24-1A3.36,3.36,0,0,0,62,70a6,6,0,0,1-.7-.4L61,69.36a7.8,7.8,0,0,0-.69-.6c-.22-.19-.43-.4-.63-.61a.52.52,0,0,0,.11-.1,2.2,2.2,0,0,0,1.26-1.26,13,13,0,0,0,1.7-1.25,20.3,20.3,0,0,1,1.86-1.43,10.81,10.81,0,0,0,1.74-1.17l.14-.11a2.41,2.41,0,0,0,1-1.81,2.71,2.71,0,0,0-.41-1.51.39.39,0,0,0-.08-.1l-.06-.11a1.72,1.72,0,0,0-.07-.21,5.6,5.6,0,0,0-1-1.71,7.9,7.9,0,0,0-2-1.87A31,31,0,0,0,61,53.18l-.65-.45.3-.47a10.16,10.16,0,0,1,1.61-1.4l.06,0a3.54,3.54,0,0,1,.41-.26,4.25,4.25,0,0,1,.56-.29l-.45.19c3.54-1.52,8.32-3.54,5.21-6.63a8.41,8.41,0,0,0-1.3-1l-.16-.17c-.78-.85-.27-.32-1.32-1.57-.5-.62-1.2-1-1.73-1.64-.22-.21-.43-.43-.64-.65l.21-.24,0-.06,0,0h0a1.74,1.74,0,0,0,.38-.29l.21-.2a4.47,4.47,0,0,0,.41-.35,49.69,49.69,0,0,0,4.26-5c.65-.8,1.53-1.38,2.17-2.19a2.26,2.26,0,0,0,.79-1.58A3,3,0,0,0,71.05,27.38ZM51.29,70a1.1,1.1,0,0,0-.36-.46,1.32,1.32,0,0,0-.48-.23s0-.09.07-.14a1.26,1.26,0,0,0,.89-.13,1.44,1.44,0,0,0,.5-.54,1,1,0,0,0,.34.14Zm14.59,72.11c-.25-.6-.48-1.13-.61-1.54a.2.2,0,0,1,0-.08A4.22,4.22,0,0,1,65.88,142.15Zm-4.8-11.63a3.64,3.64,0,0,0,1,.15.54.54,0,0,1,.06.11,1.47,1.47,0,0,0,.14.28h0a2.83,2.83,0,0,0,.17.4l0,0s0,.06,0,.09v0c-.23.18-.44.38-.64.57a5.78,5.78,0,0,0-.67.53l-.17.12c-.11-.78-.25-1.56-.43-2.32ZM60.23,27.79l.92-1.39c-.3.55-.6,1.12-.88,1.69l-.09,0C60.2,28,60.21,27.91,60.23,27.79ZM54,72.57c.44-.66.9-1.31,1.35-2,0,.11.05.21.08.32A1.09,1.09,0,0,0,55.12,72a1.62,1.62,0,0,0,.33.55c-.17.14-.33.27-.5.39l-.08.08a1.36,1.36,0,0,0-.88-.42Zm3.34,34.22,0-.06a15,15,0,0,0,.4-2.32l.21.33a1.13,1.13,0,0,0,.1.13,1,1,0,0,1,.1.17c0,.12.11.24.17.36a3,3,0,0,1,.21.4c0,.07,0,.15,0,.23s0,0,0,.23a1.5,1.5,0,0,0,.08.47l-.06.06a2.52,2.52,0,0,0-.3.27l.31-.24h0a6.57,6.57,0,0,0-.57.48,3,3,0,0,0-.77.82c-.1.11-.19.22-.28.34C57.14,107.9,57.24,107.34,57.36,106.79Zm.07,11.43h0l.14.09,0,0c0,.07.09.14.13.22a2.92,2.92,0,0,0,1.12,1.29,3.46,3.46,0,0,0,1.67.34h0s0,0,0,.06a2.57,2.57,0,0,0,.05.4l-.71.55-.57.43A4,4,0,0,0,56,119.83h-.18c0-.74,0-1.49,0-2.23a4,4,0,0,0,.46.23A6.83,6.83,0,0,0,57.43,118.22ZM57.15,87h0l.07,0,.18.1.23.17.18.14-.06-.05.13.1.1.07h0l0,0a6.24,6.24,0,0,0,.69.58c.33.28.66.55,1,.85l.06.11c0,.06.05.12.08.19v0h0a1.15,1.15,0,0,1,0,.19,2,2,0,0,0,0,.25l-.06,0c-.23.17-.55.42-.72.57h0a8,8,0,0,0-2,2.35l-.08.09-.35.29a2.81,2.81,0,0,0-3.9-1.6c.28-.66.57-1.31.86-2,.5-1.13,1.06-2.25,1.49-3.42l.21.11.37.15a6.5,6.5,0,0,0,.61.25A3.84,3.84,0,0,0,57.15,87ZM62,74.58c-.3.12-.58.25-.86.39a3.94,3.94,0,0,0-.51-1.32l-.18-.35,0,0A16.37,16.37,0,0,0,62,74.58Zm-.54-16.09c.87.69.51.19,1.5,1.34l.21.34s0,.07,0,.1c-.29.15-.59.29-.87.47a20.87,20.87,0,0,0-2.2,1.67A20.15,20.15,0,0,0,61,60.13a2.19,2.19,0,0,0,.16-1.4,1.42,1.42,0,0,0-1.83-.91,1.39,1.39,0,0,0-.28.12,1.43,1.43,0,0,0-1.69-.87A4.48,4.48,0,0,0,56,58l-.16-.2-.19-.15a11.77,11.77,0,0,0,.78-1.91c.08-.27.16-.55.22-.83A1.58,1.58,0,0,0,57,55h0a18.21,18.21,0,0,0,1.77,1.25C59.93,57.06,59.88,57.23,61.49,58.49Zm1.45-14.42a9.89,9.89,0,0,0,1.38,1.57l-.42.22-.47.22-.17.08a11.14,11.14,0,0,0-1.15.51,11.76,11.76,0,0,0-1.49.68,13.35,13.35,0,0,0-1.2.87l0,0a12.08,12.08,0,0,0,.42-1.33A3.73,3.73,0,0,0,60,45.22a1.57,1.57,0,0,0-.55-.86,11.77,11.77,0,0,0,.91-2.88c.37.38.74.77,1.13,1.14a8,8,0,0,1,1.36,1.31Zm5.64-15.5-.52.43a11.81,11.81,0,0,0-2.6,2.18c-.75.79-1.56,1.54-2.3,2.35-.52.53-1.07,1-1.63,1.5a1.92,1.92,0,0,0-.21.16,2.32,2.32,0,0,0-.79.56l-.61.71v0s0,.05-.06.07a2.62,2.62,0,0,0-.68.76l0,.07a2.11,2.11,0,0,0-.44,1.25,2.73,2.73,0,0,0,.2,1,2.47,2.47,0,0,0-1.46.8c.45-1.32.88-2.64,1.3-4,.11-.19.2-.38.3-.56s.19-.33.28-.5a1.21,1.21,0,0,0,.68,0c.49-.11.74-.57,1-.94s.79-1,1.46-2c.17-.25.34-.49.52-.73a2.73,2.73,0,0,0,1.05-.8q.61-.66,1.17-1.38a.89.89,0,0,0,.09-.12l0-.05,0,0h0c.36-.46.69-.92,1-1.4a1.87,1.87,0,0,0,.38-2,1.37,1.37,0,0,0-.92-.62,1.86,1.86,0,0,0-.3-.53,9.18,9.18,0,0,1,.34-1,17.08,17.08,0,0,1,1,1.48c.09.14.17.28.25.43l0,.07a3.08,3.08,0,0,0,.37.94,1.26,1.26,0,0,0,.2.27l.06.09a.21.21,0,0,1,0,.06,2.62,2.62,0,0,0,.37.61c.15.23.27.46.43.68Z"/><path d="M57.83,87.43l.16.12-.09-.07Z"/><path d="M80.09,114.54l0,0h0Z"/><path d="M81,103.19s0,0,0,0l0,0Z"/><path d="M88.61,45.34a2.93,2.93,0,0,0-.69-.92c-.12-.2-.23-.41-.34-.62l-.1-.2c-.08-.21-.28-.73-.35-.93a3.94,3.94,0,0,0-.88-1.62A4.58,4.58,0,0,0,85,40.16h0a1.45,1.45,0,0,1-.22-.21c-.52-.79-1-1.63-1.58-2.37-.69-.94-1.67-1.62-2.42-2.5l0,0c-.16-.24-.3-.48-.45-.73s-.27-.43-.42-.64l-.34-.46s0-.06,0-.1a6.88,6.88,0,0,1,1.13-2.57c.33-.67,1.13-.89,1.64-1.44L82.4,29c-.12.05.1-.07.15-.13a.89.89,0,0,0,.26-.6,1.5,1.5,0,0,0-.41-1.12,4.86,4.86,0,0,0-1-.67,5.91,5.91,0,0,1-.93-.94c-1.18-1.51-2.58-3.45-4-5,.86,1.36,1.59,2.8,2.37,4.2a8.47,8.47,0,0,0,2.1,3l.07.06h0a1.47,1.47,0,0,0,.13.1c-.47.29-1,.48-1.43.8a3.84,3.84,0,0,0-.76.8,6.07,6.07,0,0,0-1.12,1.72,4.86,4.86,0,0,0-.67,2.34c0,.55.41,1,.66,1.42s.51,1,.83,1.51a26.15,26.15,0,0,0,2,2.34q.47.66.87,1.35a6,6,0,0,0,2,2.57A4.94,4.94,0,0,1,84,43l.07.08a.41.41,0,0,1,0,.09c.22.64.38,1.3.66,1.91a5.43,5.43,0,0,0,.69,1.19c-.21.74-.37,1.49-.63,2.21l-.07.12-.15.16-.35.35a6.38,6.38,0,0,1-.71.43c-.68.25-.2.05-1.28.28a11.33,11.33,0,0,0-2,.62,20.36,20.36,0,0,0-2.25,1.1,7,7,0,0,0-2.69,1.9,3.87,3.87,0,0,0-.81,2.2c0,.1,0,.2,0,.31-.08.42-.15.85-.19,1.28A2.76,2.76,0,0,0,76,60.21h0l0,0,0,0c.18.15.37.28.56.42l.31.26a14.19,14.19,0,0,0,1.39,1,9.87,9.87,0,0,1,1,.55l.15.1c.33.26.65.52,1,.77-.52-.4-.11-.07.21.16l.13.11a15,15,0,0,1,1.9,2.22c0,.38,0,.76,0,1.13v0h0c-.1.19-.23.36-.32.56a.71.71,0,0,0-.1.14l-.07.06-.3.18c-1.11.89-1.14.94-1.67,1.36l-.11.08a6.52,6.52,0,0,0-1.71,2,6.58,6.58,0,0,0-1.3,3.16,6.4,6.4,0,0,0,1.68,4.85,13.88,13.88,0,0,0,1.61,1.36c1,.81.25.19,1.26,1a6.29,6.29,0,0,0,1.48,1h0l.06.06.13.15.33.45a1,1,0,0,0,.13.17l0,.09c-.06.1-.12.19-.17.29l.19-.25h0c-.24.31-.48.63-.69,1s-.34.56-.53.83l-.1.11h0c-.73.54-1.58.91-2.29,1.48a5.91,5.91,0,0,0-1.72,2.17,7.52,7.52,0,0,0-.77,2.86,5,5,0,0,0,.54,2A5.16,5.16,0,0,0,79,95.63a10.94,10.94,0,0,0,1,1.12,24.12,24.12,0,0,0,2,1.9l.27.25a.54.54,0,0,0,0,.11l.06.15,0,.08s0,0,0,.06a4.71,4.71,0,0,0,.19.64c0,.37.1.73.17,1.09,0,.19,0,.38,0,.56l-.25.2a5.23,5.23,0,0,0-1.67,1.4l0,0c-.07.08-.13.17-.19.25.08-.12.14-.19.17-.23l-.18.19a5.73,5.73,0,0,0-.45.39A1.74,1.74,0,0,1,80,104l-.31.14a8.54,8.54,0,0,0-1.1.41c-.9.41-1.93.92-2.2,2a13.69,13.69,0,0,0-.08,2.31,4.13,4.13,0,0,0-.12,1.78,5.7,5.7,0,0,0,2.25,2.59,4.49,4.49,0,0,0,.59.37,7.52,7.52,0,0,0,.62.5,2.75,2.75,0,0,1,.22.26l.13.16.07.09c-.08-.1-.06-.09,0,0l.13.16-.12-.15.08.11.09.13a2.88,2.88,0,0,0,.13.31l0,.1c0,.15,0,.42,0,.63a.43.43,0,0,0,0,.07l-.68.69c-.33.37-.63.77-1,1.11A20.2,20.2,0,0,0,77,119.62c-.68.76-1.6,1.47-1.64,2.55a5.47,5.47,0,0,0-.34,1.49l0,.18a4,4,0,0,0-.11,1.71,6.68,6.68,0,0,0,1.25,2.24,7.21,7.21,0,0,0,.59.64,3.71,3.71,0,0,0,.28.41l0,0c0,.71.09,1.43.12,2.14a.49.49,0,0,1,0,.12,1.1,1.1,0,0,0,0,.18,2.7,2.7,0,0,0,0,.28.94.94,0,0,1,0,.16v0a3.06,3.06,0,0,0-1.17.19c-.69.42-.87,1.16-1.27,1.75h0a3,3,0,0,0-.5,1,3.73,3.73,0,0,0-.33,1.8,3.8,3.8,0,0,0,.67,1.77c.46.75,1,1.44,1.47,2.18a1.19,1.19,0,0,1,.14.4,5,5,0,0,1,.28.91c0,.24.06.49.11.73,0,.09.13.15.16.24a1.37,1.37,0,0,1,.12.44,1.7,1.7,0,0,0,0-.39,2.81,2.81,0,0,1-.08-1.19c0-.38-.1-.74-.11-1.12-.35-1.26-1.13-2.33-1.37-3.62a2.64,2.64,0,0,1,.55-1.7c.17-.29.46-.5.63-.79,0-.05,0-.05,0,0a1.76,1.76,0,0,0,.24-.3h0l.14-.18a3.88,3.88,0,0,0,1.27-.07,1.79,1.79,0,0,0,1.07-1h0a3.8,3.8,0,0,0,.4-1.08,13.9,13.9,0,0,0,.21-2.32,5.64,5.64,0,0,0,0-1.3,3,3,0,0,0-.41-.86,4.25,4.25,0,0,0-.58-.87,4.4,4.4,0,0,1-.71-1.13c0-.06-.05-.12-.08-.17l0-.06c.16-.57.23-1.15.43-1.71a1.26,1.26,0,0,0,.18-.49s0-.09,0-.13a.68.68,0,0,0,.12-.12c.75-.69,1.4-1.49,2.1-2.24a10.87,10.87,0,0,0,1.79-1.92c-.4.5-.09.16.18-.17l.06-.08a3.57,3.57,0,0,0,.89-1.68,5.22,5.22,0,0,0-.31-2.63l0-.1a3.9,3.9,0,0,0-.7-1.15,4.83,4.83,0,0,0-1.13-1.17c-1.08-.94-1-.61-1.64-1.23a5.14,5.14,0,0,1-.42-.41,9.14,9.14,0,0,0,.17-2.15l.25-.12a5.82,5.82,0,0,1,.84-.25A5.58,5.58,0,0,0,83,105.78a4.15,4.15,0,0,0,.43-.51c.05,0,.31-.32.53-.52a2.67,2.67,0,0,0,.79-.53,3.93,3.93,0,0,0,1.1-1,2.75,2.75,0,0,0,.25-1.65,22.79,22.79,0,0,0-.32-2.45,9.56,9.56,0,0,0-.43-1.31l-.11-.21a1.93,1.93,0,0,0-.26-.49,18.09,18.09,0,0,0-2-2,7.39,7.39,0,0,1-.67-.7c-.16-.22-.4-.37-.57-.57-.56-.8-.21-.34-.61-1.2,0-.11-.07-.22-.1-.33V92c.08-.38.22-.73.33-1.09A7.6,7.6,0,0,1,82,90l0,0,0,0a7.53,7.53,0,0,1,1.33-.85A7.12,7.12,0,0,0,85,87.83c.54-.63.91-1.36,1.39-2l-.25.33c.15-.19.29-.38.42-.58a1.63,1.63,0,0,0,.17-.2,2,2,0,0,0,.25-.32,3,3,0,0,0-.2-2.66,3.18,3.18,0,0,0-.49-.81l0,0a4.43,4.43,0,0,0-1.57-1.59,2.18,2.18,0,0,1-.49-.29c-.62-.53-1.25-1-1.89-1.55a10.22,10.22,0,0,1-1.1-1,3.64,3.64,0,0,1-.76-1.59,1.09,1.09,0,0,1,0-.18c0-.22,0-.44,0-.66a6.78,6.78,0,0,1,1.17-2.1,4.34,4.34,0,0,1,.52-.53l.34-.26c.07-.07.09-.08.08-.08.38-.3.75-.62,1.12-.94l.06-.05.17-.11a3,3,0,0,0,.52-.41,3.12,3.12,0,0,0,.62-.73l.06-.09.09-.12A4.21,4.21,0,0,0,85.94,67a9.46,9.46,0,0,0-.12-2.13,2.75,2.75,0,0,0-.61-1A18.62,18.62,0,0,0,83,61.35,19.49,19.49,0,0,0,81,60c-.89-.56-1.06-.52-1.27-.69-1.27-.87-1.19-1-2.35-1.74,0-.11,0-.23,0-.34s.07-.37.1-.55c.19-1.12,0-.44.23-1.27a.27.27,0,0,0,.07-.08,1.52,1.52,0,0,1,.22-.22,13.94,13.94,0,0,1,1.61-.88A12.41,12.41,0,0,1,82.42,53c1-.33,1.39,0,3-.88A6,6,0,0,0,87.59,50c.59-1.34.9-3.16,1.09-3.46A1.87,1.87,0,0,0,88.61,45.34Z"/><path d="M84.8,45.12h0l-.12-.27Z"/><path d="M84.84,45.22a.42.42,0,0,0,0-.1h0Z"/><path d="M95.09,55.38c0-.08.07-.16.11-.25a4,4,0,0,0,.16-.45l0-.09,0,0a13.46,13.46,0,0,0,1.33-1.39c.47-.59,1.1-1,1.52-1.66s.16-.19,1-1.27a3.09,3.09,0,0,0,.24-2.76,7.88,7.88,0,0,0-.58-2.34,4.25,4.25,0,0,0-1.12-1.5A9.12,9.12,0,0,0,97,42.49c-.36-.52-.59-1.11-.9-1.66a.61.61,0,0,1,0-.12,2.06,2.06,0,0,0-.35-.52l-.19-.29c-.47-.62-.51-.59-.73-.73s-.29-.29-.43-.44c-.4-.51-.87-1-1.3-1.44a7.28,7.28,0,0,1-.69-.67l-.08-.14-.08-.19h0v-.22a6.14,6.14,0,0,0,.15-.72l.09-.09,0,0a2,2,0,0,0,.61-.61,3.84,3.84,0,0,0,.37-2.75,3.67,3.67,0,0,0-.3-1.51c-.11-.52-.08-1.07-.17-1.6a4.93,4.93,0,0,0-1-2.15c-.47-.72-1-1.43-1.48-2.12a24.56,24.56,0,0,1,1.57,3.71,9.44,9.44,0,0,1,0,2.19c0,.28.16.54.13.82a15.86,15.86,0,0,1-.19,2c-.13.58-.81.65-1.16,1.06a1.6,1.6,0,0,0-.36.68l-.06.18.1-.23c-.06.14-.12.28-.17.42-.62,1.4,0,2.57.93,3.61a7.2,7.2,0,0,0,.6.88,8.75,8.75,0,0,0,1.22,1.56,4,4,0,0,0,.23.41l.09.14c.06.17.14.35.17.42l.09.21A9.78,9.78,0,0,0,94.3,44a1.13,1.13,0,0,0-.77,0c0-.39,0-.77.07-1.15-.11.44-.22.88-.32,1.32a6.83,6.83,0,0,0-1.21,2.14c-.06-.26-.13-.51-.2-.77v-.23a1.82,1.82,0,0,0-.1-.77,1.49,1.49,0,0,0-.18-.3A1.5,1.5,0,0,0,93,42.35a5.78,5.78,0,0,0-2.15-2.65c-.91-.7-1.86-1.33-2.79-2,0-.28.06-.56.09-.83.09-.75.14-1.5.17-2.25a1.2,1.2,0,0,0,.63-.44,1.73,1.73,0,0,0,.32-1.11c0-.57,0-1.14,0-1.71s0-.85-.08-1.27a1.32,1.32,0,0,0,.31-.36l0,0a1.79,1.79,0,0,0,1.41.33,1.37,1.37,0,0,0,1-1.29,2.7,2.7,0,0,0-.78-1.51c-.57-.69-1.17-1.35-1.75-2a13.15,13.15,0,0,1-1.9-2.85c-.23-.64-.59-1.3-1.31-1.37a1.24,1.24,0,0,0-1.42,1.09.88.88,0,0,0,0,.16c-.11-.12-.22-.23-.34-.34a1.72,1.72,0,0,0-.57-.43,1.92,1.92,0,0,0-.79-.94A1.29,1.29,0,0,0,81.4,21a1.41,1.41,0,0,0-1.56.07l-.18-.22a1,1,0,0,0-.23-.41,1.14,1.14,0,0,0-.61-.44,1.43,1.43,0,0,0-1.25-.28,1.26,1.26,0,0,0-.87,1.54,8.5,8.5,0,0,0,1,1.71c.2.66.39,1.32.63,2a14,14,0,0,0,1.19,2.27,1.36,1.36,0,0,0,2.13.52l.23.18a1.13,1.13,0,0,0,.44.19c0,.45,0,.9,0,1.34a1,1,0,0,0-1.12.69c-.28,1.53-.39,3-.62,4.54-.08.56-.12,1.12-.18,1.69a1.59,1.59,0,0,0,1,2,1.7,1.7,0,0,0,1.84-1,1.34,1.34,0,0,0,.44,0l.2-.08,0,0a1.08,1.08,0,0,0,.48.15c0,.14.07.28.11.41s.09.31.15.47a3.13,3.13,0,0,0,.12.68.25.25,0,0,0,0,.08,1.81,1.81,0,0,0,.68,1.88c.22.58.46,1.15.72,1.72a39.94,39.94,0,0,0,2,4.12A10.92,10.92,0,0,0,89,48.18c-.19.88-.42,1.75-.66,2.62a1.13,1.13,0,0,0-.79-.06c-.69.22-1,1-1.42,1.52a1.17,1.17,0,0,0-1.1.2c-.26.15-.35.44-.49.69l-.29.46a1.35,1.35,0,0,0-.32-.15c-1-.25-1.66.63-2.16,1.33A13.07,13.07,0,0,0,79.66,59c-.4,1.52.28,3.27,2.11,2.85a4.21,4.21,0,0,0,1.46-1,1.26,1.26,0,0,0,2,.46,12,12,0,0,0-.78,2.89c-.31,1.46.68,2.32,1.78,2.1-.07.32-.13.65-.2,1a1.14,1.14,0,0,0-.78.34,1.27,1.27,0,0,0-.31.54h0c-.05.16-.09.32-.14.47-.1.37-.19.75-.29,1.13a1.18,1.18,0,0,0-.11.19,1.19,1.19,0,0,0-.46,0c-.59.15-.82.74-1,1.24a12.29,12.29,0,0,0-.49,1.32,1.12,1.12,0,0,0-.94,0l0,0a.72.72,0,0,0-1,.22,1.46,1.46,0,0,0-.07.88,7.2,7.2,0,0,0,.24,1.21c0,.33,0,.66,0,1a18.17,18.17,0,0,0,.14,3,1.12,1.12,0,0,0,.76.8,1.14,1.14,0,0,0,1.28.26c.72-.33,1-1.21,1.35-1.86l0-.05a1.57,1.57,0,0,0,.54.3,1.8,1.8,0,0,0,.24.48c-.17.63-.34,1.26-.5,1.88a2.2,2.2,0,0,0-.14,1.16A1.14,1.14,0,0,0,86,82.4a2,2,0,0,0,.33-.38,1.28,1.28,0,0,0,.57.61c.74.41,1.5-.07,2.08-.54l.07-.06c0,.12-.11.24-.16.37l-1.11,2.45a1.14,1.14,0,0,0,.11,1.34,3.58,3.58,0,0,0-.45.73v0a1.11,1.11,0,0,0-1.66-.81,1.9,1.9,0,0,0-.69,1c-.16.37-.31.75-.45,1.12-.66-.88-1.75-.84-1.93.38a8.2,8.2,0,0,0-.09,1.3,1.67,1.67,0,0,0-.8,1.37,4.53,4.53,0,0,0,.45,2.53,1.57,1.57,0,0,0-.2,1.58,1.07,1.07,0,0,0,.7.51,1.05,1.05,0,0,0,1.07.29h.05c.09.1.17.2.26.29a3.24,3.24,0,0,1-.17-.32,2.07,2.07,0,0,0,1-.69,1,1,0,0,0,.3,0v.19a11.59,11.59,0,0,0-.17,2.69.81.81,0,0,0,1.36.48,1.64,1.64,0,0,0,.45-1.16,1.34,1.34,0,0,0,.27.07.74.74,0,0,0,.21,0c-.56,1.94-1.08,3.88-1.5,5.85l-.13.43a3.66,3.66,0,0,0-.2,1.18h0a2.12,2.12,0,0,0-1,1.24,1.11,1.11,0,0,0-.64-.29,1,1,0,0,0,0-.34,1.12,1.12,0,0,0-1.4-1c-.68.22-1,1-1.27,1.56-.41,1-.71,1.94-1.07,2.91a4.39,4.39,0,0,0-.31,2.28l0,.09a1.14,1.14,0,0,0,1.48.87h.14c0,.2,0,.41.06.61a2.64,2.64,0,0,0,.39,1.1,1.17,1.17,0,0,0,1.42.32,2.12,2.12,0,0,0,.09.83,1,1,0,0,0,.93.66c-.06.19-.12.38-.17.56a3,3,0,0,0-.27,1,1.23,1.23,0,0,0-1.65-.14,8.75,8.75,0,0,0-1.7,2.48c-.45.74-.89,1.49-1.33,2.24-.39.51-.76,1-1.12,1.56-.62.77-1.38,2-.26,2.72a1.27,1.27,0,0,0,1.18,0,.8.8,0,0,0,.08.16l.22.35c-.07.22-.15.44-.22.66-.15.47-.3,1-.45,1.41a2,2,0,0,0-.12,1.32,1.25,1.25,0,0,0,1.11.88c-.37.82-.72,1.64-1.06,2.48a1.3,1.3,0,0,0-.49.47,1.81,1.81,0,0,0-.18.6v0a1.45,1.45,0,0,0-.34-1.12,1.05,1.05,0,0,0-1.33-.14c-.24-.64-.61-1.13-1.22-1.14a1,1,0,0,0-.52.15,1,1,0,0,0-.3.26,3.15,3.15,0,0,0-.41,2.05c0,.55,0,1.11.08,1.66a13.35,13.35,0,0,0,.14,2.68,14.05,14.05,0,0,0,.81,3.34c.18.89.47,2.21,1.62,2a.93.93,0,0,0,.51-.2,1.23,1.23,0,0,0,.73-.58,2.26,2.26,0,0,0,.19-1.43,1.36,1.36,0,0,0,.86.07,1.59,1.59,0,0,0,1-1.08,1,1,0,0,0,.41.44,1.11,1.11,0,0,0,1.45-.34.89.89,0,0,0,1.33-.07,1.52,1.52,0,0,0,.24-.62,8.92,8.92,0,0,0,.18-1.14l0,.4h0a.29.29,0,0,0,.1.22c-.09,1,0,2.12.48,2.46a1.14,1.14,0,0,0,1.67-.4c0-.09.08-.19.11-.28v0a.73.73,0,0,0,.06-.14,2,2,0,0,0,.11-.26l.18-.55.13-.1a1.9,1.9,0,0,0,.37-1.48.81.81,0,0,0-.06-.31,2.72,2.72,0,0,0,0-.7.81.81,0,0,1,0-.16,4.89,4.89,0,0,0,0-.54c0-.3.1-.61.15-1l.06-.32s0,.08,0,.12c.07.64.11,1.29.2,1.94.15.33.26.68.4,1a10.59,10.59,0,0,1,0-3.37,1,1,0,0,0-.13-.55s0,0,0,0c0-.37.06-.74.11-1.06a9,9,0,0,0,.56-1,3.88,3.88,0,0,0,.58-1.57.79.79,0,0,0-.14-.43c.21-.37.81-.43,1.07-.59a2.77,2.77,0,0,0,.76-.45,3.11,3.11,0,0,0,.28-.23h0c.54-.38,1.12-.69,1.63-1.12l.12-.1a5,5,0,0,0,.92-.79,6.9,6.9,0,0,0,1.51-2,8.46,8.46,0,0,0-.06-2.75,3.16,3.16,0,0,0-.46-1.33c-.13-.15-.24-.32-.37-.47l-.12-.14-.23-.34v0a1.34,1.34,0,0,0-.14-.47,1.71,1.71,0,0,0-.21-.4,2.09,2.09,0,0,0-.27-.39,1.48,1.48,0,0,0-.29-.22l0-.15c.08-.14.17-.27.25-.39l.27-.35h0c.15-.18.32-.34.48-.51a11,11,0,0,0,1.17-1.37c.15-.18.11-.11.63-.75a3.68,3.68,0,0,0,.9-1.64,2.5,2.5,0,0,0-.07-2c0-.12,0-.24-.06-.36a4.13,4.13,0,0,0-.32-.75,1.11,1.11,0,0,0-.07-.16l0,0c-.08-.28-.16-.55-.23-.83l0-.09a9,9,0,0,0-.37-1.77,3.13,3.13,0,0,0-.51-1.13v0c0-.09.2-.45.32-.74a3.45,3.45,0,0,1,.2-.32l-.14.18h0l.35-.46,0,0a4.66,4.66,0,0,0,.68-1.26.61.61,0,0,0,0-.12l0,.06,0-.08,0,0h0a4.87,4.87,0,0,0,.46-2.58,5.88,5.88,0,0,0-.16-1A2.8,2.8,0,0,0,96,99.12a4.52,4.52,0,0,0-.65-.73,1.87,1.87,0,0,0,.06-.91,1.16,1.16,0,0,0-1.32-.9l0-.13c0-.19,0-.38,0-.58.18.23.37.44.57.65-.19-.31-.38-.64-.55-1v-.08c0-.23.1-.47.14-.7h0c.07-.31.2-.59.29-.89.06-.12.12-.28.17-.41a6.13,6.13,0,0,1,.49-.82l0-.06c1.06-1.14.59-.8,1.42-1.64a5.3,5.3,0,0,0,.42-.52,5,5,0,0,0,.8-1.08,3.45,3.45,0,0,0,.27-1.77,5.81,5.81,0,0,0,0-1,4.06,4.06,0,0,0-.51-1.41,3.14,3.14,0,0,0-1.22-1.45l-.12-.06a1.76,1.76,0,0,0-.42-.24l-.46-.22a3.34,3.34,0,0,1-.33-.32h0l-.08-.23a10.09,10.09,0,0,0,1.15-1l.31-.22h0c1.79-.62,2.65-3.38,2.53-5.17a4,4,0,0,0-.59-2.31.36.36,0,0,0-.05-.09l0-.08,0-.09a2.59,2.59,0,0,0-.39-.9,3,3,0,0,0-.94-.87c-.65-.76-.62-.71-.83-1L96,70.72v0a.26.26,0,0,0,0-.08c0-.37,0-.73,0-1.1a3.18,3.18,0,0,0,.23-1.14,1.29,1.29,0,0,1,.08-.28c.39-.52.66-1.12,1-1.66a4,4,0,0,0,1.06-3.08,4.88,4.88,0,0,0-.22-1,2.83,2.83,0,0,0-.28-.94,9.76,9.76,0,0,1-.31-1.18,2,2,0,0,1-.05-.24l0-.22,0-.16a4.41,4.41,0,0,0-1.33-2.42,8.29,8.29,0,0,0-.77-.55l-.09-.09-.15-.17,0-.07,0-.1A2.56,2.56,0,0,1,95,56v-.15A2.16,2.16,0,0,1,95.09,55.38ZM84.66,28a1,1,0,0,0-.3-.31l0-.3.34.32A2.46,2.46,0,0,1,84.66,28Zm-.35,109.25h0c-.07.16-.15.33-.22.53,0-.39,0-.95.07-1.41l0-.1a.75.75,0,0,0,.16.15C84.33,136.68,84.31,137,84.31,137.22Zm0-18.27a2.42,2.42,0,0,0,0-.66,1.05,1.05,0,0,0,.27.2C84.46,118.64,84.38,118.8,84.29,119Zm9.38-57.78c.08-.41.17-.83.25-1.24a2.15,2.15,0,0,1,.14.26,3.91,3.91,0,0,1,.14.68l.09.39a1,1,0,0,0-.63,0Zm-1.85-3.64a4.6,4.6,0,0,0,.29.59,1.45,1.45,0,0,0-.26.51h0l-.13,0C91.75,58.16,91.78,57.83,91.82,57.53Zm-.76,41.15a1.73,1.73,0,0,0-.15-.2v-.57a5.11,5.11,0,0,0,.31,1l0,.06A.94.94,0,0,0,91.06,98.68Zm.33-6A8.06,8.06,0,0,0,91,94a.68.68,0,0,0-.12-.12c.23-.82.49-1.63.74-2.44l.16.42C91.56,92.25,91.49,92.5,91.39,92.72Zm-2.35,12a1.86,1.86,0,0,0,.1-.2s0,.08,0,.12c-.15.77-.29,1.55-.41,2.33a.68.68,0,0,1,0,.14,1.79,1.79,0,0,0-.2-.39C88.7,106.06,88.87,105.39,89,104.72Zm3.12,21.09a6.48,6.48,0,0,1-1.43,1.7c-.59.57-1.26,1-1.82,1.65a10.58,10.58,0,0,0-1.2.76,4.37,4.37,0,0,0-.22-2,1.14,1.14,0,0,0-.82-.82c.12-.3.23-.6.34-.91a2.27,2.27,0,0,0-.11-1.41c0-.28.09-.57.12-.86v-.21c.5-.92,1-1.84,1.48-2.77a20.72,20.72,0,0,0,1.55-3.43c0,.12,0,.24,0,.36a2.74,2.74,0,0,0-.26.55,3.51,3.51,0,0,0,0,2.59l.09.14a20,20,0,0,0-.27,4.89c.24-1.09.63-2.72.94-4.14a1,1,0,0,0,.16.12,1.43,1.43,0,0,0,.19.44,8.68,8.68,0,0,0,.9,1.13.57.57,0,0,1,.11.11,2.47,2.47,0,0,0,.1.29,4.49,4.49,0,0,1,.22,1.59Zm1.25-12.09c0,.07,0,.14-.07.21l-.19.21c0-.21,0-.42,0-.64a4.56,4.56,0,0,0,.13-.53v0l0,.14,0,.18a.87.87,0,0,0,.1.31ZM94.85,88c-.48.53-1,1-1.41,1.62-.35.4-.73.77-1,1.2l-.34.51c-.08-.18-.17-.36-.26-.54.31-1,.6-2,.82-3a1.89,1.89,0,0,0-.19-1.51,1,1,0,0,0-.81-.43l.16-.5c.08-.27.18-.53.28-.8a3.67,3.67,0,0,0,.87,1h0a3.48,3.48,0,0,0,1.22.74h0l.22.1a.42.42,0,0,0,.14.09v0c.1.17.18.36.27.54S94.86,87.66,94.85,88Zm.26-13.33.06.15a9.39,9.39,0,0,0,.47,1c0,.19,0,.81,0,1.14a6.22,6.22,0,0,1-.25.87c-.08.15-.16.28-.25.42a2.56,2.56,0,0,0-1,.6,10.51,10.51,0,0,0-1.17,1c-.16.1-.33.18-.49.27.36-.7.73-1.4,1.1-2.1s.79-1.31.49-2a1.11,1.11,0,0,0-1.47-.6c-.33.1-.51.42-.73.66-.34.39-.69.76-1,1.14l.27-.62a6.74,6.74,0,0,0,.78-2.46,1.75,1.75,0,0,0-.44-1.39c.34-1,.7-2,1-3v.75a2.85,2.85,0,0,0,.18,1.16,1.62,1.62,0,0,0,.06.19,2.85,2.85,0,0,0,.63,1l.24.29a8.61,8.61,0,0,0,1.3,1.33ZM95,63.74l-.06.1a.71.71,0,0,1-.1.14v0c0-.17.07-.33.1-.49C95,63.58,95,63.66,95,63.74Zm-.91-12.69c.42-1.3.8-2.6,1.18-3.91A1.22,1.22,0,0,0,95,45.88a3.88,3.88,0,0,0,.14-.64,3.36,3.36,0,0,0,.39.54,2.18,2.18,0,0,0,.3.31c.07.12.14.24.2.37a10.88,10.88,0,0,1,.26,1.13s0,0,0,.08a4.59,4.59,0,0,0,.16.9c-.18.19-.38.38-.55.58s-.35.46-.57.65A14.74,14.74,0,0,0,94.09,51.05Z"/><path d="M96.2,104.57l0,.05Z"/><path d="M106,108.08l0,0v0Z"/><path d="M122.59,83.7A33.6,33.6,0,0,0,121.8,79q-.09-1.14-.21-2.28c-.18-1.85-.38-3.7-.58-5.55-.05-1.12-.12-2.24-.19-3.36,0-.54,0-1.07,0-1.61,0-.32,0-.64,0-1a1.12,1.12,0,0,0-.43-.9c-.15-1.86-.25-3.74-.28-5.61h0a1.07,1.07,0,0,0-1.42-1c-.14-.31-.28-.59-.37-.82l-.39-.81c-.74-1.88-1.41-3.78-2-5.71-.18-1.32-.36-2.51-.49-3.44-.06-.55-.1-1.11-.11-1.66a1.48,1.48,0,0,0,.12-.29c.41-1.11.16-3.51-1.52-2.94a1,1,0,0,0-.6.63l-.18-.34a26,26,0,0,1-1-2.65c-.31-.74-.37-1.69-1.1-2.17a1.1,1.1,0,0,0-.64-.15,23.09,23.09,0,0,1-1.32-3,2.76,2.76,0,0,1-.08-.27,1.13,1.13,0,0,0-1.4-.93c-1.2.43-.8,1.64-.36,2.81.13.5.26,1,.4,1.51-.33-.5-.66-1-1-1.49.44.94.85,1.91,1.24,2.89a5.29,5.29,0,0,0,.11,1.59c-.18-.22-.35-.44-.51-.67-.66-1.06-1.24-2.16-1.87-3.22a17.14,17.14,0,0,1-1-2.65,15.52,15.52,0,0,0,.35,2,8.06,8.06,0,0,0,.5,1.58,28.92,28.92,0,0,0,1.21,3.08c.25.5.54,1,.78,1.48,0,.08,0,.13.05.14s0,0,0,0a9.12,9.12,0,0,1-.07,1.65.6.6,0,0,1-.06.11,1.33,1.33,0,0,1-.51.46,2.36,2.36,0,0,0-.89.77,3.21,3.21,0,0,0-.56.85,7.41,7.41,0,0,0-.85,3.29,3.87,3.87,0,0,0,.34,2.51,9.2,9.2,0,0,0,1.39,1.4c.21.25.43.48.65.72l.06.08c.12.16.24.32.37.47l.43.6a8.66,8.66,0,0,1,.74,1.16c0,.1.08.21.11.31a4.93,4.93,0,0,0,.24.64,5.82,5.82,0,0,0,.25.84,4.59,4.59,0,0,1-.41,1.39c-.07.24-.13.48-.22.71l0,.07v0c-.09.21-.2.41-.3.61a17.87,17.87,0,0,0-1,2.67c-.17.53-.08.24-.48,1.27a.29.29,0,0,1,0,.09l-.09.22a2.63,2.63,0,0,0-.35,1,.59.59,0,0,0,0,.13,7.39,7.39,0,0,0-.21,3.2A6.63,6.63,0,0,0,107.6,72q-.16.61-.3,1.23a6.89,6.89,0,0,0-.21,2.34,1.39,1.39,0,0,0,1.67,1.22,3.41,3.41,0,0,0,.88-.62,2.39,2.39,0,0,0,.54,1,1,1,0,0,0,.23.24,2.44,2.44,0,0,0-.1.24c-.08.12-.14.25-.22.36-.25.36-.44.76-.68,1.13l0,0a12.76,12.76,0,0,0-2.3,2.57,8,8,0,0,0-.94,3.62,4.61,4.61,0,0,0,.5,2.6,9.62,9.62,0,0,0,.88,1.14c.53.61,1.2,1.08,1.74,1.67.23.35.45.7.64,1.06h0a2.42,2.42,0,0,1,.13.46,2.72,2.72,0,0,1,0,.28c0,.36,0,.72,0,1.08a10.54,10.54,0,0,0-.75.88,9.74,9.74,0,0,0-1.13,1.51,13.47,13.47,0,0,0-.8,2,9.73,9.73,0,0,0-.22,2.22,1.81,1.81,0,0,1,0,.22v.08c-.52,2.92.23,4.14,1.9,4.76l0,.05,0,.06a7.12,7.12,0,0,1-.58.64l-.13.08a6.77,6.77,0,0,0-2.22,1.9l.1-.14-.12.16,0,0a2.37,2.37,0,0,0-.4.83,6,6,0,0,0-.2,2.48,7.66,7.66,0,0,0,.34.92c.07.17.15.34.23.52a.19.19,0,0,1,0,.08,1.83,1.83,0,0,1,.06.25,1.48,1.48,0,0,1,0,.21,4.6,4.6,0,0,1-.13.5h0a8.61,8.61,0,0,0-.79,2.95,19.16,19.16,0,0,1-.25,2.16,5.62,5.62,0,0,0-.16,1.58,3.63,3.63,0,0,0,.31,1.6s0,0,0,0a3.64,3.64,0,0,1-.57,1.25c-.29.46-.64.89-.89,1.37a5.14,5.14,0,0,0-.4,1.49,1.12,1.12,0,0,0,0,.63,4.58,4.58,0,0,1,.28.54.08.08,0,0,1,0,.07,2.25,2.25,0,0,0,.08.24c.09.26.07.51.15.76a1.42,1.42,0,0,1,.08.18,9.22,9.22,0,0,0-.09,1.17,6.66,6.66,0,0,1,.23-.67l0,.12a3.21,3.21,0,0,1,.33,1,8.38,8.38,0,0,0-.11-1.22,2.12,2.12,0,0,0,0-.43c.51-1.22,1.21-2.56,1.75-3.75.25-.59.49-1.19.71-1.8s.59-1.37.89-2a.67.67,0,0,0,.15-.14,12,12,0,0,0,1-1.81,28.26,28.26,0,0,0,1.85-3.69v0a2.78,2.78,0,0,0,0,1.25c-.31.64-.57,1.31-.82,2-.12.33-.24.66-.35,1-.13.17-.25.34-.37.52.23-.82.44-1.64.65-2.47l-.43.77,0-.15c-.14.28-.27.55-.39.83a26.62,26.62,0,0,0-3.11,9,3.7,3.7,0,0,0-.09.8s0,.1.08.12a0,0,0,0,0,0,0s.12-.15,0-.08,0-.28,0-.33c.25-.64.49-1.21.74-1.78a.37.37,0,0,0,.51.14.94.94,0,0,0,.21-.28,18.4,18.4,0,0,0,1-1.81.93.93,0,0,1,0-.1c0,.28-.06.56-.08.84s-.06.65-.08,1-.08.45.06.62a.37.37,0,0,0,.6,0,7.68,7.68,0,0,0,.67-1.92s0-.06,0-.08l.06-.11c.19-.36.37-.73.54-1.1a4.28,4.28,0,0,0-.1,1.63,15.85,15.85,0,0,1,1-2.88c.28-.8.53-1.63.74-2.45a10.27,10.27,0,0,1,1.09,3.63c0,.19.07.78.1.31a11.28,11.28,0,0,0,0-3.23,5,5,0,0,0-.41-1.51l.2-.15a5.65,5.65,0,0,0,2.15-4c0-.13,0-.46,0-.58a1.17,1.17,0,0,0-.34-1c.37-.8,1-1.87,1.42-2.87a8.7,8.7,0,0,0,.72-2.08,1,1,0,0,0-.24-.7,10.31,10.31,0,0,0,1.54-1.18,1.84,1.84,0,0,1,.69-.46c.35-.13.78-.2,1-.58a1.7,1.7,0,0,0-.41-1.61,1.48,1.48,0,0,0,.09-.67,2.06,2.06,0,0,0-.09-.62,1.2,1.2,0,0,0,1.39-1,19.35,19.35,0,0,0-.29-4.36c-.12-1-.25-2-.4-3a.94.94,0,0,0,.28-.21c.51-.51.33-1.26.44-1.91,0-.26.05-.52.08-.78a1.2,1.2,0,0,0,.5-.52,13.69,13.69,0,0,0,.69-3.87,2.74,2.74,0,0,0,.51-1.3A11.09,11.09,0,0,0,122.59,83.7ZM107.45,50.65a1.84,1.84,0,0,1-.22-.17l-.12-.09c0-.12,0-.24,0-.35,0-.57,0-1,0-1.32a7.9,7.9,0,0,0,.59,2.07l-.22-.16C107.28,50.52,107.35,50.58,107.45,50.65Zm.4-11.71c.22.56.43,1.12.64,1.69l.06.21A10.09,10.09,0,0,1,107.85,38.94Zm-3.74,88.43a6.06,6.06,0,0,0-.16-.61s0-.09,0-.13a4.93,4.93,0,0,1,.36-.84,2.49,2.49,0,0,1,.49-.63A16.86,16.86,0,0,0,104.11,127.37Zm7.29-29.2a4.91,4.91,0,0,1,.25-.44c-.05.16-.09.33-.14.49a1.4,1.4,0,0,0-.17.09Zm-.19,22.07.12-.45.06,0ZM110,86.11h0s0-.09,0-.14c0-.22,0-.44,0-.67s0-.35,0-.53.17-.58.26-.87l0,0,0,0a1.3,1.3,0,0,1,.08-.17l.21-.32c.12-.14.25-.28.38-.41a.76.76,0,0,0-.11.22,1.57,1.57,0,0,0-.11.86c0,.18,0,.3,0,.37a18.18,18.18,0,0,0,0,2.09c0,.21,0,.42,0,.63l-.27-.25A8,8,0,0,1,110,86.11Zm.52,33.4c.2-.61.4-1.23.61-1.85a1.75,1.75,0,0,0,.35.2,26.07,26.07,0,0,0-1.15,2.72C110.43,120.23,110.49,119.87,110.55,119.51Zm1.67-1.42a7.17,7.17,0,0,1-.64.67l.18-.82a1,1,0,0,0,.58,0Zm1.16-65.85a1.07,1.07,0,0,0-.66-.43l-.06-.38.11.23c0,.05.08.13.16.11a.09.09,0,0,0,.08-.09,2.22,2.22,0,0,0-.13-.68v.1c-.08-.39-.13-.79-.21-1.18s-.12-.68-.19-1a10,10,0,0,0-.1-1.54c-.08-.57-.18-1.23-.25-1.74a3.41,3.41,0,0,0,.65.48l.07,0a1.12,1.12,0,0,0-.23,1h0c0,.17.07.35.1.52.15.76.35,1.51.52,2.26s.38,1.33.58,2A1.23,1.23,0,0,0,113.38,52.24ZM118,62.15c0,.34,0,.69,0,1L117.73,62ZM117.7,79.9l0,.19c-.14-.58-.28-1.15-.43-1.72.15-.59.26-1.19.35-1.79C117.58,77.69,117.61,78.79,117.7,79.9Zm-.9-12.1c.28,1.16.55,2.32.83,3.48a1.36,1.36,0,0,0-1-.44,11.82,11.82,0,0,0-.06-3.51C116.62,67.49,116.71,67.65,116.8,67.8Zm-1,14.21a4.59,4.59,0,0,0,.78-1.62c0,.43.11.87.17,1.3a1.21,1.21,0,0,0-.52.67,18.33,18.33,0,0,0,.11,3.31l-.12-.09a1.11,1.11,0,0,0-.43-.15,9.67,9.67,0,0,0,.12-1.32A5.91,5.91,0,0,0,115.83,82Zm2.28,23.22a25.08,25.08,0,0,0-2.53,1.29,1.91,1.91,0,0,1-.55.21,16.86,16.86,0,0,0,.76-3.23,1.67,1.67,0,0,0,.36.65,1.24,1.24,0,0,0,.85.4,1.34,1.34,0,0,0,.22.31,1.26,1.26,0,0,0,.94.36Zm.41-29.61c0,.18,0,.37,0,.55-.06-.45-.13-.86-.19-1.22l-.18-1.59c.1.41.19.82.29,1.23,0,.22.11.43.16.65A1,1,0,0,0,118.52,75.62Z"/><path d="M106,108.16v0l0,0Z"/><path d="M44.85,25.35c1-1.16,2-2.27,3.13-3.35-1.17.78-2.32,1.61-3.42,2.5A7.75,7.75,0,0,0,41.77,28a15.05,15.05,0,0,0-.13,3.41,1.27,1.27,0,0,1-.13.19A17.12,17.12,0,0,0,40.44,33c-.06.11-.13.21-.17.27s-.13.15-.19.22a8.22,8.22,0,0,1-.72.68l-.24.14a6.37,6.37,0,0,1-.95.26h-.05a7.16,7.16,0,0,0-2.13.53c-.84.35-1.31,1.15-1.91,1.77L33.9,37a4,4,0,0,0-1.47.08,3.78,3.78,0,0,0-1.54.76,1.86,1.86,0,0,0-.57.86l-.07.14a3.81,3.81,0,0,0-.47,1.5,3.62,3.62,0,0,0-.17.8,6.32,6.32,0,0,0-.06.74.74.74,0,0,1,0,.14,2,2,0,0,0,.46,2,7.44,7.44,0,0,1,1,1l0,0,0,0c0,.4,0,.81,0,1.21s0,.7,0,1.06a1.34,1.34,0,0,0-.07.18A2.65,2.65,0,0,0,30.58,49a4,4,0,0,0,.82,2.51l0,.55a19.83,19.83,0,0,0-2.58,2.52c-.74.92-1,1.52-1.36,1.9a2.17,2.17,0,0,0-.85.43,2.23,2.23,0,0,0-.43.16.8.8,0,0,0-.15,0l-.27.11a2.76,2.76,0,0,0-2,1.68,6.43,6.43,0,0,0,1.44,5.61c.43.54.89,1.06,1.37,1.56a2.85,2.85,0,0,1,.16.3c.08.2.15.41.21.61s.08.76.33,2c0,.06,0,.12,0,.18a3.53,3.53,0,0,1,0,.46c-.06.33-.11.65-.14,1a1.68,1.68,0,0,0-.17.55c0,.13-.07.25-.11.37l-.13,0a3.63,3.63,0,0,0-1.59,1,3,3,0,0,0-.71.79,3.23,3.23,0,0,0-.52,1.07,3.82,3.82,0,0,0-.23,2.06,6.91,6.91,0,0,0,.72,1.81c.23.32.36.69.57,1a19.57,19.57,0,0,0,1.56,1.85c.3.34.65.64.94,1h0l0,0c.31.82.6,1.65,1,2.44,0,.11.05.21.08.32l-.05.07-.21.27c-.26.27-.54.52-.82.78l-.36.28A8.59,8.59,0,0,0,25.9,88l.27-.35a8.47,8.47,0,0,0-.83,1.16c-.23.44-.3.93-.51,1.37a7,7,0,0,0-.51,4,4.77,4.77,0,0,0,.28.83,39.67,39.67,0,0,0,1.56,4.61,9.22,9.22,0,0,0,1.15,1.87,5.34,5.34,0,0,0,1.54,1.7l.27.22.17.12c.16.17.3.34.45.52l0,.06c0,.26,0,.52,0,.78a2.44,2.44,0,0,1,0,.27c0,.06,0,.12,0,.17l0,.08-.14.33c0,.07-.05.14-.07.2l-.06.1c-.57.62-1.24,1.15-1.85,1.74-2.09,1.8-3.64,3.6-2.42,6.47.39,1.08.4,2.36,1.19,3.25a7,7,0,0,0,2.2,1.46l.16.09.18.17.18.19c.07.11.17.24.24.34s.24.37.35.57h0c-.4.4-.82.8-1.21,1.21a4.49,4.49,0,0,0-.46.39,2.08,2.08,0,0,0-.49,1.56c0,.61.11,1.21.16,1.82a2.31,2.31,0,0,0,.58,1.57l.15.18,0,0c.44.57,1,1.08,1.21,1.46a14.81,14.81,0,0,0,1.71,1.65,4.64,4.64,0,0,1,1.05,3.13c.09.77.17,1.54.26,2.3a1.35,1.35,0,0,0,.13.6,2.43,2.43,0,0,1,0-.76,29.41,29.41,0,0,0,.32-4.18,5.42,5.42,0,0,0-.52-1.61,13.36,13.36,0,0,0-.88-1.18c0,.06.05.07,0,0-.18-.27-.41-.53-.58-.8-.29-.61-.69-1.15-1-1.73-.07-.13-.15-.24-.22-.36h0v-.07c.06-.59.11-1.18.17-1.76.63-.41.34-.29,1-.74l.21-.17a4.87,4.87,0,0,0,1-.79l.05-.07a.23.23,0,0,1,.07-.07,1.94,1.94,0,0,0,.5-1.42,5.8,5.8,0,0,0-1.58-3.8,9.09,9.09,0,0,0-2.07-1.51c-.12-.43-.18-.87-.31-1.3s-.35-1.1-.5-1.65v0c.38-.6.14-.33,1.06-1.25l1.43-1.34a3.6,3.6,0,0,0,.69-.66l0,.07.29-.33.08-.1a5.26,5.26,0,0,0,1.2-2.5,5.84,5.84,0,0,0,.08-1.67,5.67,5.67,0,0,0-.15-1.36,4.71,4.71,0,0,0-.88-1.41,3.89,3.89,0,0,0-.84-.83l-.11-.09-.48-.37a1.22,1.22,0,0,1-.17-.15l-.07-.09c-.15-.22-.29-.45-.46-.67-1.12-1.58-.91-1.54-1.6-3.48-.15-.53-.29-1.06-.48-1.58a2.62,2.62,0,0,0-.26-.82,2.68,2.68,0,0,0-.07-.27c0-.15,0-.31,0-.47a5.45,5.45,0,0,1,.22-.79c.18-.59.41-1.16.59-1.75l0,0L29.32,89l.17-.17h0a9.91,9.91,0,0,0,1.13-1,7.73,7.73,0,0,0,.66-.85l.08-.07-.06,0h0l.22-.17a2,2,0,0,0,.6-1.41,7.9,7.9,0,0,0-.46-1.78,19.67,19.67,0,0,1-.87-2A4.48,4.48,0,0,0,30,80c-.69-.73-1.42-1.42-2.06-2.21-.22-.32-.34-.68-.55-1a3.84,3.84,0,0,1-.28-.53c0-.08-.06-.19-.1-.3v0q.08-.28.18-.57l.06-.07c.16-.13.31-.28.46-.42a2.9,2.9,0,0,0,.6-.11,3.12,3.12,0,0,0,.68-.35l.07,0-.06,0,.14-.11.12-.1h0l0,0a1.84,1.84,0,0,0,.44-.52,5.86,5.86,0,0,0,.57-1.73v0a.14.14,0,0,1,0-.07,2.78,2.78,0,0,0,.22-1.11,5.19,5.19,0,0,0,.09-2,8.35,8.35,0,0,0-.17-1,8.12,8.12,0,0,0-.78-3,16.34,16.34,0,0,0-2.07-2.56l-.05-.05a4.1,4.1,0,0,1-.26-.41,4.6,4.6,0,0,1-.3-1c0-.13,0-.27,0-.4a5.18,5.18,0,0,0,.63-.2,2.29,2.29,0,0,0,1-.46,3.55,3.55,0,0,0,2-1.7,12,12,0,0,1,1.24-1.65c.46-.47.94-.9,1.43-1.34a5.17,5.17,0,0,0,1.37-1.43,4.11,4.11,0,0,0,.22-2.09,5.25,5.25,0,0,0-.18-1.11,7.4,7.4,0,0,0-.6-1.15v0h0c.06-.13.11-.25.16-.38a2.65,2.65,0,0,0,.18-.42,4.81,4.81,0,0,0,.07-1.61c0-.61,0-1.22,0-1.83a3.19,3.19,0,0,0-.86-2.09L33,42.22l0-.52c.08-.32.16-.64.21-1,0,0,0,0,0-.07s.07-.15.11-.22h0c.32,0,.65,0,1,0,1,.08,1.66-.66,2.22-1.39s.63-1,.89-1.21l.17-.11.33-.12a7.46,7.46,0,0,0,2.94-1.28,6.93,6.93,0,0,0,1.52-2A19.64,19.64,0,0,0,43.56,32a5.83,5.83,0,0,0-.32-2.3,9.91,9.91,0,0,1-.05-1.44A7,7,0,0,1,44.85,25.35Z"/><path d="M28.93,74.4h0Z"/><path d="M29.84,27.7l.05,0,.18-.15Z"/><path d="M48.17,19.58l-.23,0a1.06,1.06,0,0,0-1-.26c-.67.2-1,.94-1.4,1.44l.17-.23c-.43.57-.88,1.12-1.32,1.69a1.26,1.26,0,0,0-.52-.25,1.06,1.06,0,0,0-1-.26,2.25,2.25,0,0,0-1,.83,1,1,0,0,0-.35-.21c-.73-.36-1.35.26-1.79.79S38.54,24.49,38,25.19l-.68.9a1.44,1.44,0,0,0-1.23-.74,3,3,0,0,0-1.65.81,7.07,7.07,0,0,0-.87.86,1,1,0,0,0-.69.21,2.43,2.43,0,0,0-.35.31,1.18,1.18,0,0,0-1.12-.69,2.74,2.74,0,0,0-1.54.82,16.83,16.83,0,0,0-2.31,2.46c-.82,1-3.43,3.86-3.14,5.12a1.1,1.1,0,0,0,.41.59c-.13.39-.25.78-.36,1.18a2.92,2.92,0,0,0,.09,1.8,5,5,0,0,0,.28,1,2.27,2.27,0,0,1,0,.78l-.38.43,0,0a5.52,5.52,0,0,1-.55.26.53.53,0,0,1-.17-.08,3.34,3.34,0,0,0-1.65-.55,2.81,2.81,0,0,0-1.58.81,6.5,6.5,0,0,0-2.06,2.39,7.59,7.59,0,0,0-.41,1,2.38,2.38,0,0,0,.41,2c.68.84.66.68,1,1.08,0,.06.36.52.52.72a.56.56,0,0,0,0,.08,10,10,0,0,0,0,2,5.45,5.45,0,0,0-1.59.77c-.91.69-.67.53-1,.82a2,2,0,0,0-.23.18L17,52.6a3.18,3.18,0,0,0-.7.62,6.15,6.15,0,0,0-.66,1.14,9.1,9.1,0,0,0-1.11,3.33,2.8,2.8,0,0,0,1,3A12.15,12.15,0,0,0,17,62a1.84,1.84,0,0,0,.48.3,3.91,3.91,0,0,1,.57.31l.05,0c0,.07,0,.14,0,.21V63l-.12.36a1.08,1.08,0,0,1-.08.19l.06-.13a3.58,3.58,0,0,1-.25.42l0,0a2.42,2.42,0,0,1-.31.33c-.15.09-.61.4-.8.5a5.24,5.24,0,0,0-1.92,2c0,.08-.09.15-.14.23a2.57,2.57,0,0,0-.57.88c0,.1-.1.2-.14.3a5.18,5.18,0,0,0-.27,2.14,4,4,0,0,0,.1,1.1,3.34,3.34,0,0,0,.71,1.17c.33.39.7.74,1.05,1.1v.35a5.08,5.08,0,0,0-.7.52,2.16,2.16,0,0,0-.54.76h0v0l0,0a2.47,2.47,0,0,0-.3.66,3,3,0,0,0-.06.43l-.09.14a7.09,7.09,0,0,1-1.24,1.61,4.53,4.53,0,0,0-.48.43A11.93,11.93,0,0,0,10.66,80a16,16,0,0,0-1.52,2.35c-.86,1.25-2.11,3.4-.55,4.58a6.41,6.41,0,0,0,2.65.85,5.73,5.73,0,0,1,.56.14c.33.16.67.32,1,.51a12.69,12.69,0,0,0,1,1.55,12.23,12.23,0,0,1,.93,2.77s0,.08,0,.13l-.12.33h-.52a1.61,1.61,0,0,0-1.45-.07,2.23,2.23,0,0,0-1.21,2.08.31.31,0,0,1,0,.08,8.89,8.89,0,0,0-.17,2.91,5.46,5.46,0,0,0,1,2.65c.7.82,1.56,1.48,2.19,2.36l-.26-.33c.48.64.79,1.38,1.24,2,.08.13.17.25.26.37l0,0h0s0,0,0,0a5.33,5.33,0,0,1-.42.4l-.15.12a1.75,1.75,0,0,0-1.06.84,4,4,0,0,0-.63,2.5,5.26,5.26,0,0,0,.29,2.37,3.08,3.08,0,0,0,.56.69,5.25,5.25,0,0,0,2.21,2c.55.2,1.12.32,1.67.51a3.75,3.75,0,0,1,.36.34l.15.21a1.27,1.27,0,0,0,.13.19l.08.12c0,.26,0,.53,0,.79a1,1,0,0,0,0,.17,3.53,3.53,0,0,0-.11.65,1.94,1.94,0,0,0,0,.24v.09a8.46,8.46,0,0,0-.14.9c-.22.56-.13.54-.31.91-.31.82-.63,1.85,0,2.59a6.8,6.8,0,0,0,1.92,1.7,3.43,3.43,0,0,1,.33.33c0,.33.06.65.12,1a3.83,3.83,0,0,0,.8,2.39,1.68,1.68,0,0,0,.94.47v0a16.22,16.22,0,0,0,.65,2,2.47,2.47,0,0,0,.65,1.09,1.12,1.12,0,0,0,1.68-.3,4.18,4.18,0,0,0,.2-1.62v-.05l0,.05a9.67,9.67,0,0,0,2.18,4,18.78,18.78,0,0,0,2.37,2.67,3,3,0,0,0,1.63.83h0l.17.23a1.16,1.16,0,0,0,2-.82c0-.77-.61-1.37-.92-2-.07-.11-.15-.22-.22-.34a10.49,10.49,0,0,0-1.18-2.31l0,0a1.15,1.15,0,0,0,0-1,4,4,0,0,0-.69-.74v0c-.59-.84-.7-.92-1.09-1.47a9.88,9.88,0,0,0-.5-3c0-1.41,0-2.83,0-4.25,0-.5,0-1,0-1.5a1.79,1.79,0,0,0-.69-1.6,1.08,1.08,0,0,0-.58-.13.9.9,0,0,0-.28,0l-.16-.08a.94.94,0,0,0-.55-.08c.08-.21.16-.41.23-.63a2.69,2.69,0,0,0-.48-3.21,1.09,1.09,0,0,0-.55-.27,3.38,3.38,0,0,0-.11-1,2.54,2.54,0,0,0-.18-.41,17.54,17.54,0,0,0,.61-3.2,3.94,3.94,0,0,0-.17-1.5,13.31,13.31,0,0,0,1.3-5.91,3.71,3.71,0,0,0-2.33-3.54,2.91,2.91,0,0,0-1.1-1.18,14.45,14.45,0,0,0,.36-2.07,3.27,3.27,0,0,0-.33-1.5l0,0a2.28,2.28,0,0,0,.11-1.69,2.05,2.05,0,0,0,.55-.69,6.71,6.71,0,0,0,.38-2.44c1.4.92,2.52-.34,2.49-2a7.93,7.93,0,0,0-1-2.82c.44-1.49-.49-3.18-1.55-4.23a.86.86,0,0,0-.14-.13,2.17,2.17,0,0,0,.19-.41,2.71,2.71,0,0,0-.51-3,10.69,10.69,0,0,0,.58-1.45,3.89,3.89,0,0,0-.23-2.94L25,70.93c.45-1.58.9-3.16,1.21-4.77a6.75,6.75,0,0,0,0-2.9,4.17,4.17,0,0,0-.36-.81c.54-.91,1-1.84,1.58-2.74.71-1.2,1.69-2.51,1.23-4a2.86,2.86,0,0,0-.58-1.12,4.32,4.32,0,0,0,.43-2.81,2.93,2.93,0,0,0-.38-.82l0,0a16.7,16.7,0,0,0,2.44-4.15,2.94,2.94,0,0,0,0-2.07,4.15,4.15,0,0,0,.94-1.67,2.89,2.89,0,0,0-.73-2.71c0-.06.09-.12.13-.19l0,0L31,40a2,2,0,0,0,.23-3l.25-.32c.12-.17.24-.33.37-.49a1.18,1.18,0,0,0,1.22.39,1.46,1.46,0,0,0,.79-.64.43.43,0,0,0,0,0,1.14,1.14,0,0,0,.83,1.26c1,.26,1.5-.75,1.92-1.54a1.41,1.41,0,0,0,1.08-.14,6.6,6.6,0,0,0,1.46-1.74.28.28,0,0,0,.09-.1l.36-.49c.07-.1.21-.2.2-.35s0-.13,0-.2l0,0a16.32,16.32,0,0,0,1-1.71,1.37,1.37,0,0,0,.56-.49h0l0-.07a3.84,3.84,0,0,0,.33-.6l0-.07c.34-.61.72-1.2,1.08-1.8.16-.23.3-.45.45-.66a5.43,5.43,0,0,0,1.09-1l.3-.3a7.69,7.69,0,0,0,1.36-.72,2.13,2.13,0,0,0,1.18-1.14,1.05,1.05,0,0,0,0-.68,1.13,1.13,0,0,0,.19-.31A12.36,12.36,0,0,0,49,21.62,1.2,1.2,0,0,0,48.17,19.58ZM14.93,85.5a3.75,3.75,0,0,0-.17.47,6.44,6.44,0,0,0-1-.59,7.21,7.21,0,0,0-2.29-.77l.43-.63c.36-.56.64-1.16,1-1.7l.1-.12.26-.33a13.16,13.16,0,0,1,1.14-1.22l.07-.06a4.77,4.77,0,0,0,.6,4.6A2.63,2.63,0,0,0,14.93,85.5Zm5.21-18.38L20,67a1.21,1.21,0,0,0-.49-.41l.12-.09a2.76,2.76,0,0,0,.58.38Zm3,24.26h0c0,.12,0,.24.05.36l-.12-.07a1.16,1.16,0,0,0,0-.18S23.13,91.41,23.14,91.38ZM20.53,44.82l.08-.18,0-.07a6.77,6.77,0,0,1,1.58-2l.07,0h.14c.22.09.45.18.68.25h0a11,11,0,0,0-.67,1.09,4.39,4.39,0,0,0-.88,1.94,1.83,1.83,0,0,0,0,.57,10.47,10.47,0,0,0-1.14-1.07h0ZM17.6,58.36a3.32,3.32,0,0,1,.23-1.28,4.74,4.74,0,0,1,.58-1.33c.1-.18.18-.38.28-.57l.11-.09c.32-.25.64-.5,1-.77l.23-.19.14-.09,0,.06,0,.07,0-.06a3.57,3.57,0,0,0-.24,1.21.93.93,0,0,0-.4-.09.94.94,0,0,0-.74,1.52A.82.82,0,0,0,19,57a6.94,6.94,0,0,1,.37.77c0,.1.11.26.15.34s.11.27.15.41A4.68,4.68,0,0,0,20.36,60c0,.15,0,.3.05.45h0a5.08,5.08,0,0,0-.81-.66c-.29-.15-.58-.29-.88-.41l.38.16a.9.9,0,0,1-.24-.12A15.86,15.86,0,0,1,17.6,58.36Zm.64,38-.21,1c-.14-.3-.27-.6-.4-.9s-.24-.53-.36-.79A4,4,0,0,0,18.24,96.37Zm-.75-6.62-.18.66L17,89.68Zm-.71-19.5c0-.32,0-.64,0-1a2.56,2.56,0,0,0,.11-.24L17,69l.06-.07,0,0c0,.19.07.39.1.58v.08a3.69,3.69,0,0,0,.19,1.57c-.18-.2-.46-.54-.57-.67ZM18.7,112c-.44-.18-.41-.17-1.08-.41l-.4-.42-.33-.49a3,3,0,0,0-.32-.47c0-.44,0-.89,0-1.33,0,0,0-.07,0-.1a3.52,3.52,0,0,0,.67-.54,5.15,5.15,0,0,0,.5-.43,38.15,38.15,0,0,0,1.38,4c.08.18.15.37.23.55A3.6,3.6,0,0,0,18.7,112Zm1.5,9.52a4.3,4.3,0,0,1-.29-.45,1.52,1.52,0,0,1,.06-.2l.32-.61c.06.26.12.53.19.79s0,.55,0,.77v.05A3.17,3.17,0,0,1,20.2,121.52Zm8-86-.89.84a6,6,0,0,0-1.8,2.19s0,0,0,.07a8.22,8.22,0,0,1-.33-.87,4.61,4.61,0,0,1,.1-1.62.68.68,0,0,1,0-.14,1,1,0,0,0,1-.29c.21-.19.41-.39.6-.59l.2.07a2,2,0,0,0,1.43-.17C28.43,35.22,28.33,35.39,28.23,35.56Z"/><polygon points="14.11 75.26 14.11 75.26 14.12 75.25 14.11 75.26"/><path d="M14.12,75.25l0,0S14.12,75.24,14.12,75.25Z"/><path d="M64.47,148.5a62.91,62.91,0,0,1-45.61-19.59,68.54,68.54,0,0,1,0-94.44,62.89,62.89,0,0,1,91.22,0,68.54,68.54,0,0,1,0,94.44A62.91,62.91,0,0,1,64.47,148.5Zm0-129.92C31,18.58,3.7,46.89,3.7,81.69S31,144.81,64.47,144.81s60.77-28.32,60.77-63.12S98,18.58,64.47,18.58Z"/><path d="M76,0h-.06a1.55,1.55,0,0,0-1.16.33,1.11,1.11,0,0,0-.29.28c-.46.14-.91.28-1.37.4a15.54,15.54,0,0,1-1.79.43c-1,.05-2-.13-3-.13-2.66.21-2,.48-4.67.37a13.59,13.59,0,0,1-3-.42c-.85-.14-2-.61-2.56.33a1.48,1.48,0,0,0,0,1.25,2.4,2.4,0,0,0,.53.7,7.17,7.17,0,0,1,.52,1c.11.2.23.54.07.14a44.74,44.74,0,0,1,1.58,5.05c0,.17,0,.34,0,.51,0,.34,0,.69-.07,1a1.62,1.62,0,0,0,.23,3c0,.11,0,.21,0,.31a1.13,1.13,0,0,0,.19.62.57.57,0,0,0,.85.05h0c0,.13,0,.28-.05.44a.31.31,0,0,0,.57.11l0-.11a.06.06,0,0,0,0-.05c.11-.29.2-.58.29-.88v.15a1.41,1.41,0,0,0,2.41,1,1.36,1.36,0,0,0,.24-.35,1.48,1.48,0,0,0,.29-.12l0,0a1.25,1.25,0,0,0,1-1,4.9,4.9,0,0,0,.08-.77h0v0l0-.33a5.6,5.6,0,0,1,.09-.63A22.21,22.21,0,0,1,68.83,10a36.34,36.34,0,0,1,5.29-4.9c-.59.45.15-.1.39-.28s.63-.36.93-.57h0a4,4,0,0,0,1.11-1.09L76.62,3l0,0a1.54,1.54,0,0,0,.87-1A1.58,1.58,0,0,0,76,0ZM61.5,4.16a1.46,1.46,0,0,0-.29.6c-.05-.24-.1-.49-.17-.73Z"/></g></g></svg>