<svg xmlns="http://www.w3.org/2000/svg" viewBox="0 0 174.86 199.75"><defs><style>.cls-1{fill:none;}.cls-2{fill:#9bc961;}</style></defs><g id="Layer_2" data-name="Layer 2"><g id="Layer_3" data-name="Layer 3"><path class="cls-1" d="M52.88,36.54h0l-.2.21-.52.55-.52.56-2.2,2.54-2.63,2.91h0A8.06,8.06,0,0,1,45.28,45h0l-.15,0h0c.15-.24.3-.48.46-.71l1.24-1.74,1.11-1.49h0c.3-.38.61-.77.94-1.13h0c.37-.41.78-.8,1.16-1.2l1.1-1.2,1.19-1.19.91-.83h0c.15-.13.29-.26.45-.38h0a1.54,1.54,0,0,1,.3-.22h0a.61.61,0,0,1,.18,0h0a1.51,1.51,0,0,1-.1.3h0a10.57,10.57,0,0,1-.61,1l-.65,1L52,38.72,51.12,40l-.79,1.08-.77.94-.57.71-.42.5-.27.32h0l-.09.11h0l.15-.15h0a4.61,4.61,0,0,0,.36-.54l.63-1.08.78-1.32.7-1.21.67-1.15.54-.87.34-.55"/><circle class="cls-2" cx="95.37" cy="118.17" r="79.5"/><path d="M75.28,46.58A5.48,5.48,0,0,0,72.82,45l-.07,0c-1.11-.59-.4-.17-1.53-1.1-.71-.68-1.45-1.32-2.12-2,.12-.17.23-.34.3-.43.89-1.33.7-1,1.7-2.34s2.14-3.29,2.67-3.94a28.12,28.12,0,0,0,5.77-9.94,37.3,37.3,0,0,1-4.7,6.22,25.82,25.82,0,0,1-2.78,2.47c-1,.94-1.84,2-2.79,3a49.54,49.54,0,0,0-3.39,3.7,2.77,2.77,0,0,0-.56,1.51,1.82,1.82,0,0,0,.54,1.28,16.81,16.81,0,0,0,1.38,1.77,19.33,19.33,0,0,0,3,2.93,31.19,31.19,0,0,0-3,2.58L66,51.81l-.13.1A23.81,23.81,0,0,0,62,55.08c-.13.13-.27.24-.4.36l-.23.14a11,11,0,0,0-2,.76,4.25,4.25,0,0,0-.75.53l-.55.38,0,0a2.8,2.8,0,0,0-.79.45l-.08.06a2.48,2.48,0,0,0-.5,4.49,2.14,2.14,0,0,0,.52.22l.4.38c1.63,1.59,3.43,3,5,4.67l0,0c.1.14.19.29.28.44l-.17.14c-1.23,1.09-2.4,2.24-3.72,3.23a38.68,38.68,0,0,0-4.6,4.54c.12-.16.23-.31,0,0l-.08.1A2.62,2.62,0,0,0,53,79a10.05,10.05,0,0,0,2.88,3.63c.94.9,1.8,1.88,2.67,2.84l.93.94c-1.44,1.31-2.79,2.7-4.09,4.13a19,19,0,0,0-1.49,2,6.43,6.43,0,0,0-.43,1.1c-.79,1.6-2.08,2.93-2.48,4.71v0a2.25,2.25,0,0,0,.12,1.67A2.13,2.13,0,0,0,52,101c.14.15.28.3.41.47l-.31-.4h0c2.61,3.19,3.39,5,5.67,7.64-.54,1.15-1,2.31-1.67,3.4-1,1.75-2.1,3.4-3,5.16a28.2,28.2,0,0,0-1.32,3.78.14.14,0,0,0,0,.06l-.16.36a2.36,2.36,0,0,0-.35,1.33,2.44,2.44,0,0,0,1.55,2.33,22.63,22.63,0,0,0,2.74,2.53c1.22,1,2.35,1.74,3,2.24-.47.86-.89,1.75-1.35,2.62-1.09,1.9-2.13,3.82-3.09,5.79-.33.56-.62,1.14-.89,1.72a2.81,2.81,0,0,0-.56,2.64,2.63,2.63,0,0,0,2.57,1.87c.34.23.69.46,1,.67l.43.31.22.17c1.26.87.73.47,2,1.44a2.65,2.65,0,0,0,1,1.3h0a8.58,8.58,0,0,0,.9.69l.06.05c-.54.93-.95,1.94-1.43,2.89-.63,1.36-1.35,2.67-1.9,4.06h0l.19-.46a4.42,4.42,0,0,1-.27.53,3.22,3.22,0,0,0-.32.32,2.62,2.62,0,0,0-.45.6l0,.07a3.41,3.41,0,0,0-.37.48,3.69,3.69,0,0,0-.5.76,1.6,1.6,0,0,0-.41.68,2.44,2.44,0,0,0,1.52,3.27,15.07,15.07,0,0,0,2.56.76,31.24,31.24,0,0,1,3.19.7l.2.11c.13.14.26.29.4.42a2.52,2.52,0,0,0,.59.44,3.17,3.17,0,0,0,.52.32c-.12.71-.18,1.45-.26,2.15a26.33,26.33,0,0,0-.26,5.68c0,.16,0,.33,0,.49s0,.12,0,.2a2.7,2.7,0,0,0-.06.41,8.54,8.54,0,0,0-.34,1.64,2.41,2.41,0,0,0,.66,1.88,8.13,8.13,0,0,0,1.64,1,13.3,13.3,0,0,0,2.86,1.46h0l0,.13-.1.24a16.9,16.9,0,0,0-.52,4.08,10.42,10.42,0,0,0-.08,2.95c0,.49-.16,1-.13,1.46a1,1,0,0,0,.65.93h0a16,16,0,0,1,1.34,1.26,18.79,18.79,0,0,0,3.41,3.2,2.07,2.07,0,0,0,.53.28c.09,0,.15.14.25.17a.67.67,0,0,1,.21.2c.07.09.21.1.32.12h0a.46.46,0,0,0,0,.2c.08.1.19.18.27.28,0-.11-.16-.2-.18-.33s0-.18,0-.26l-.23-.1a1.48,1.48,0,0,1-.13-.21,2.85,2.85,0,0,0-.62-.58c-1.58-1.52-2.34-3.63-3.69-5.32a1.13,1.13,0,0,1-.1-.13,4.68,4.68,0,0,0,.24-.72c.18-1.13.08-1.05.21-1.55.21-.83.5-1.63.67-2.47.18-.59.21-1.23.43-1.81l.09-.2c.07-.13.16-.27.22-.37a2.88,2.88,0,0,0,.27-.34c.07-.06.17-.18.28-.29a1.75,1.75,0,0,0,.35-.2l.21-.18a1.71,1.71,0,0,0,.53-1.29,1.68,1.68,0,0,0-.53-1.31.2.2,0,0,0-.07-.06,1.73,1.73,0,0,0-.65-.4,3,3,0,0,0-1.08-.64c-.25-.14-.5-.27-.76-.39l-.46-.22c-.2-.11-.39-.24-.58-.37-.86-.66-.54-.42-1-.72.06-.17.11-.35.16-.52l0,.1a3.81,3.81,0,0,0,.2-1.22c.07-1.4,0-2.81.17-4.2.07-.48.26-1.83.28-2.16,0-.15,0-.3,0-.45l0-.22c.09-.33.14-.67.22-1a2.49,2.49,0,0,0,0-3.49,2.46,2.46,0,0,0-1.18-.64l-.09-.05a2.65,2.65,0,0,0-1.6-.57,6.44,6.44,0,0,0-2.7-1.59c-.67-.19-1.36-.32-2.05-.45.42-.67.4-1.06.68-1.5.93-1.81,1.76-3.69,2.72-5.48a2.58,2.58,0,0,0,1-.94c.91-1.7-.12-4-2.57-5.73h0a3.26,3.26,0,0,0-.7-1.17,3,3,0,0,0-.94-.65v0a21.21,21.21,0,0,0-2.15-1.62q-.57-.45-1.17-.87c.76-1.52,1.47-3.07,2.33-4.55.7-1.24,1.3-2.53,1.93-3.8a12.33,12.33,0,0,0,1-1.79,3.64,3.64,0,0,0,.13-1.67,2.52,2.52,0,0,0-1.55-2.16,9.32,9.32,0,0,0-1.23-1c-.54-.46-.35-.21-2-1.45a16.94,16.94,0,0,1-1.94-1.75L56.7,122c.24-.76.45-1.54.72-2.29.47-1,1.06-1.86,1.61-2.78a43.55,43.55,0,0,0,2.71-5.26c.83-1.62,1.81-4,.36-5.49a3.43,3.43,0,0,0-.54-.4h0l0,0-.1-.12a7.69,7.69,0,0,0-.62-.66c0-.07-.11-.16-.19-.28-.9-1.14-2.29-3.62-4.18-6l-.06-.09a.75.75,0,0,1,.07-.12,17.3,17.3,0,0,0,1.4-2.19A12.72,12.72,0,0,0,58.39,95a7.53,7.53,0,0,1,1.28-1.59C61,92,62.91,90.12,64,89.16a2.51,2.51,0,0,0,1.69-2.36c-.08-1.9-1.9-3-3.07-4.31s-2.59-2.76-4-4.07c.53-.58,1.3-1.3,2.46-2.34C62,75.17,63,74.37,64,73.55s1.83-1.71,2.78-2.52a2.43,2.43,0,0,0,1.07-3.76l0-.06c-.07-.19-.16-.38-.25-.57a7.87,7.87,0,0,0-1.42-2.31,50.38,50.38,0,0,0-3.61-3.55l-.45-.42a6.62,6.62,0,0,0,2.78-1.5,21.26,21.26,0,0,1,2.46-2.23l.24-.2c.3-.21.61-.41.9-.63,1.12-.85,2.07-1.91,3.13-2.85a11.13,11.13,0,0,1,1-.93l.35-.28a6,6,0,0,1,.7-.46h0a3.29,3.29,0,0,0,2.44-.68,2.18,2.18,0,0,0,.46-2.42C76.33,47.52,75.7,47.11,75.28,46.58Z"/><path d="M95.57,36.83a5.43,5.43,0,0,0-.75-.84,4.21,4.21,0,0,0-.72-.8h0s0,0,0,0a4.53,4.53,0,0,0-.7-.81l-.15-.12v0a5.12,5.12,0,0,0-.9-1.41,28.38,28.38,0,0,0-3-2.83,4.3,4.3,0,0,0,0-1.6,1.68,1.68,0,0,0-2.05-1.17,1.35,1.35,0,0,0-.48.24c-1-1-1.9-2.08-2.86-3.1.71,1.29,1.4,2.59,2.14,3.86a12.54,12.54,0,0,0-1.36,2.46c-.28.55-.55,1.12-.81,1.69a1.56,1.56,0,0,0-.42-1,9,9,0,0,0,.84-1.94c.09-.41.29-.79.41-1.19a.8.8,0,0,0-.51-1,.65.65,0,0,0-.53.09,2.15,2.15,0,0,0,.14-.54,1.43,1.43,0,0,0-2.21-1.41,7.63,7.63,0,0,0-1.09,1.11,1.83,1.83,0,0,0-1.08-1c-1.66-.4-2.24,1.34-2.89,2.48-.53.91-1.18,1.74-1.74,2.64a1.69,1.69,0,0,0-.14,2c-.27.59-.55,1.18-.82,1.78-.15.29-.28.6-.42.9-.29.55-.58,1.1-.88,1.65a1.87,1.87,0,0,0-.26,1.47,1.63,1.63,0,0,0,.54.83c-.45.64-.9,1.27-1.34,1.91a1,1,0,0,0,.59,1.47s0,.08,0,.12a1.7,1.7,0,0,0,2.43,1h0a1.83,1.83,0,0,0,.39.56,2.16,2.16,0,0,0,1.24.62,10.25,10.25,0,0,0-.43,3.91A1.72,1.72,0,0,0,77.9,50a1.06,1.06,0,0,0,.25-.09c-.6,1.22-1.21,2.44-1.82,3.66a38.52,38.52,0,0,1-2,3.64l-.18.25,0,0a2.05,2.05,0,0,0-1.05-1.95,3.34,3.34,0,0,0,.36-1.25,2,2,0,0,0-.73-1.74,2.06,2.06,0,0,0-2.64.27,20.89,20.89,0,0,0-2.47,3.07c-.39.62-.79,1.25-1.2,1.87A32.1,32.1,0,0,0,63,62.46a2.2,2.2,0,0,0-.26,2.28,1.7,1.7,0,0,0,1.72.83,3.32,3.32,0,0,0,2.25-1.86h0a2.05,2.05,0,0,0,.72.51A1.9,1.9,0,0,0,69,64.14l-.15.42c-.24.68-.49,1.35-.76,2a3.17,3.17,0,0,0-.3.65,1.83,1.83,0,0,0,.3,1.59,1.69,1.69,0,0,0,2.78-.17c.88-1.23,1.72-2.48,2.55-3.73.44-.63.91-1.27,1.37-1.9-.78,1.6-1.71,3.14-2.63,4.67h0c-.1.16-.2.32-.29.48a8.5,8.5,0,0,0-1.44,2.65,1.61,1.61,0,0,0,.5,1.46,28.17,28.17,0,0,0-2.86,3.82l-.45.39c.08-.21.15-.43.21-.65l.21-.36c.16-.26.32-.52.49-.78a1.65,1.65,0,0,0-.13-2.39c0-1.25-.71-2.34-2.29-1.86-1,.3-1.37,1.39-1.83,2.21s-.82,1.68-1.21,2.52c-.36,1-1.38,2-1.11,3.17a1.45,1.45,0,0,0,.57.82,1.92,1.92,0,0,0,.27,2.1l-.61,2c-.06.22-.31.9-.36,1.06a2.62,2.62,0,0,0-.28,1.13,1.93,1.93,0,0,0,1.56,1.84,2.18,2.18,0,0,0,1.77-.79,1.49,1.49,0,0,0,0,.42c-.56,1.53-1,2.82-1.5,4l-.22.3a10.69,10.69,0,0,0-.91,1.29c-1.61,2.92-2.2,3.92-3.55,6.66-.27.56-.52,1.13-.79,1.7a3.22,3.22,0,0,0-.6,1.78,1.59,1.59,0,0,0,1.59,1.59,1.55,1.55,0,0,0,.76-.21,1.81,1.81,0,0,0,.45.14,1.77,1.77,0,0,0,1.46,2.16,2.57,2.57,0,0,0,1.84-.61,4.92,4.92,0,0,0,.69-.51,12.52,12.52,0,0,0-.82,1.23h0l-.08.11,0,0c-1.32,2-1.35,2.92-2.17,4.58a69.36,69.36,0,0,0-3,8.46,2.4,2.4,0,0,0,0,1.93,1.65,1.65,0,0,0,1.19.77c-.65,1.37-1.27,2.76-1.88,4.15a10,10,0,0,0-1.22,4,.83.83,0,0,0,0,.25,3.54,3.54,0,0,0,5.22,3.12c-.2,1-.4,2-.61,3a9.31,9.31,0,0,0-.34,4.09,5,5,0,0,0,.56,1.13v0a4.06,4.06,0,0,0,.9,4.16,3.69,3.69,0,0,0,1.3.86,4.09,4.09,0,0,0,1.89,4.12l.2.1c-.39,1.48-.62,3,.44,4.24a3.34,3.34,0,0,0,2.18,1.37,2.91,2.91,0,0,0,1.44,2.52,2.8,2.8,0,0,0,1.3.39c0,.32,0,.63,0,1,0,1.19-.06,2.39,0,3.58,0,.1,0,.2,0,.3a5.31,5.31,0,0,0-.2,3.3l.06.18a3,3,0,0,0-.54.53c-.08-.33-.16-.67-.23-1,0,.45,0,.89,0,1.34a2.7,2.7,0,0,0-.33.76,5.46,5.46,0,0,0,.28,2.8c.13.62.28,1.23.43,1.84.09.78.19,1.56.29,2.34a21.27,21.27,0,0,0,1.51,5.94,5.54,5.54,0,0,0-1,3l0,.38a2,2,0,0,0-.23.78,2.09,2.09,0,0,0,.11,1.14,6.66,6.66,0,0,0,.06,5.46,6,6,0,0,0,1.88,2.58,3.09,3.09,0,0,0,3.25.58A2.75,2.75,0,0,0,77,195a2.05,2.05,0,0,0,.83.55,1.59,1.59,0,0,0,1.39-.3h0a1.58,1.58,0,0,0,2.45,0,2.37,2.37,0,0,0,.22-2.08,2.61,2.61,0,0,0,.17.28l.29.62a1.6,1.6,0,0,0,2.56.53c.3.64.62,1.27.94,1.9A1.76,1.76,0,0,0,87,197.6a1.6,1.6,0,0,0,2-1.11h.07l.12,0h.06l.16-.07h0a.76.76,0,0,0,.29-.3.73.73,0,0,0,.11-.4,5.47,5.47,0,0,0-.42-2.3l0-.06c0-.26,0-.53,0-.81a.64.64,0,0,0,.46-.63,5.6,5.6,0,0,0-.8-2.21,12.66,12.66,0,0,0-1.53-1.84c0-.15-.06-.3-.1-.45a6.36,6.36,0,0,0-.19-.62,6.18,6.18,0,0,0-.31-1.92,3.77,3.77,0,0,0-1.2-1.82,6.15,6.15,0,0,0-1.11-.64c-.13-.07-.5-.22-.72-.31,0-.14,0-.29,0-.43l0-.14,0,0a4.3,4.3,0,0,0,.65-.39,6,6,0,0,0,1.38-1c2.14-1.24,2.18-3.53,1.29-5.57,0,0,0-.08,0-.12a5.14,5.14,0,0,0-1-1.71l-.12-.09a3.15,3.15,0,0,0-1.37-.79,4.22,4.22,0,0,0-1-.2l-.06,0a4.32,4.32,0,0,0-1.89-.33L80,171.22l0-.09A.83.83,0,0,0,80,171h0l.14-.18,0,0a8.17,8.17,0,0,0,.64-.79c.28-.54.63-1,.88-1.59a3,3,0,0,0,.34-.6l0-.08,0,0a6.93,6.93,0,0,1,.8-.73l.26-.19c1.17-.92,1-.88,1.45-1.21A4.75,4.75,0,0,0,86,163.88a3.51,3.51,0,0,0-.17-2.75l0,0a4,4,0,0,0-.48-1.43,3.68,3.68,0,0,0-2-2,5.15,5.15,0,0,0-1.65-.33,2.14,2.14,0,0,0-.1-.22l-.08-.14a3.94,3.94,0,0,0-1.38-1.57l-.49-.36a2.87,2.87,0,0,0-.53-.25,5.59,5.59,0,0,0-.65-.32c0-.1,0-.2,0-.3a7.34,7.34,0,0,1,.21-.77,7.44,7.44,0,0,1,.2-.78c.11-.21.23-.41.35-.61a5.06,5.06,0,0,0,.57-1.14c.08-.19.17-.38.24-.57s0-.21.08-.32a4.25,4.25,0,0,0,.21-.49c0-.06,0-.11,0-.16l.15-.31.13-.21c.16-.19.32-.39.47-.59.39-.29.81-.68.65-.57l.15-.12a3.37,3.37,0,0,0,.36-.3,6.67,6.67,0,0,0,.87-1,1.59,1.59,0,0,0,.3-.43,1.22,1.22,0,0,1,.07-.17,3.16,3.16,0,0,0,.41-2.13,3.57,3.57,0,0,0-.29-1.25,4.52,4.52,0,0,0-.29-1.79c0-.09-.08-.17-.11-.26l-.2-.5c0-.13-.11-.25-.17-.37a8.89,8.89,0,0,0-1.14-2h0a7.31,7.31,0,0,0-1.4-1.58l-.13-.15a2.66,2.66,0,0,0-1.22-1c-.6-.42-1.26-.72-1.87-1.13-.11-.1-.28-.25-.44-.41h0a2.94,2.94,0,0,0,.48-.91c.08-.11.07-.1,0,0,.18-.22.34-.46.5-.69l.11-.12c.45-.49,1-.91,1.45-1.35l-.13.11.49-.42c.11-.09.22-.18.32-.28a7.36,7.36,0,0,0,1.44-1.6c.36-.46.65-1,1-1.44a3.33,3.33,0,0,1,.39-.36l.26-.21.68-.56a5.48,5.48,0,0,0,1.43-1.45,5.09,5.09,0,0,0,.78-2.57,9.21,9.21,0,0,0-.42-2.77,6,6,0,0,0-.27-.63,4.86,4.86,0,0,0-.91-1.49,16.72,16.72,0,0,0-2.34-2,7.39,7.39,0,0,0-1.16-.93,3.16,3.16,0,0,0-.53-.37l0,0a4.11,4.11,0,0,0-1.33-.69,3.28,3.28,0,0,0-.59-.23L78,112a1.05,1.05,0,0,1-.24-.06q-.32-.14-.63-.24l-.46-.2a.6.6,0,0,1-.08-.08l-.13-.2s0,0,0-.06a7.39,7.39,0,0,0,2.22-1.38c.37-.38.77-.71,1.15-1.08s.89-.77,1.33-1.16l.18-.12c1.24-.77,2.54-1.44,3.84-2.1a13,13,0,0,0,1.82-.72c2.44-1.21,2.58-4.12,1.35-6.28,0-.09-.08-.19-.13-.28a6.43,6.43,0,0,0-2-2l-.53-.35A12.4,12.4,0,0,0,84,94.39a4.47,4.47,0,0,0-.59-.27,8.73,8.73,0,0,1-.93-.55c-.14-.08-.28-.18-.42-.27a12,12,0,0,0-.93-.81,10.88,10.88,0,0,1-.84-.82l.14-.13a3,3,0,0,0,1.7-1.7,17.93,17.93,0,0,0,2.28-1.69,28,28,0,0,1,2.5-1.92,14.15,14.15,0,0,0,2.35-1.57l.19-.15a3.26,3.26,0,0,0,1.3-2.43,3.77,3.77,0,0,0-.55-2l-.11-.13a.64.64,0,0,1-.08-.14c0-.1,0-.19-.09-.29a7.74,7.74,0,0,0-1.42-2.3,11,11,0,0,0-2.74-2.52A42.57,42.57,0,0,0,82,71.53l-.87-.61.4-.63a14.46,14.46,0,0,1,2.16-1.87l.08-.06a4.83,4.83,0,0,1,.56-.36,4.9,4.9,0,0,1,.76-.38l-.61.26c4.76-2,11.19-4.77,7-8.92a11.43,11.43,0,0,0-1.75-1.34l-.21-.23c-1-1.14-.36-.43-1.78-2.11-.68-.83-1.62-1.4-2.33-2.2-.29-.29-.58-.58-.85-.88a4,4,0,0,1,.27-.31l.06-.09.07,0h0a1.92,1.92,0,0,0,.51-.39l.29-.27a4,4,0,0,0,.54-.46,66.1,66.1,0,0,0,5.74-6.72c.88-1.08,2-1.85,2.92-3A3,3,0,0,0,96,38.86,4,4,0,0,0,95.57,36.83ZM69,94.21a1.66,1.66,0,0,0-.49-.62,1.83,1.83,0,0,0-.65-.31l.09-.19a1.64,1.64,0,0,0,1.2-.18,1.75,1.75,0,0,0,.68-.72,1.34,1.34,0,0,0,.46.2C69.85,93,69.42,93.59,69,94.21Zm19.62,97c-.33-.81-.65-1.52-.83-2.07a.76.76,0,0,1,0-.11A5.87,5.87,0,0,1,88.62,191.21Zm-6.46-15.65a4.86,4.86,0,0,0,1.32.21l.08.14a2.64,2.64,0,0,0,.18.38h0a2.58,2.58,0,0,0,.23.54l0,.07,0,.11v.06c-.3.24-.58.5-.86.77a8.8,8.8,0,0,0-.91.7l-.22.17a29.75,29.75,0,0,0-.58-3.13ZM81,37.38l1.23-1.87c-.41.75-.8,1.5-1.19,2.27l-.11.06C81,37.69,81,37.54,81,37.38ZM72.66,97.62c.59-.89,1.21-1.77,1.82-2.64,0,.14.07.29.11.43a1.44,1.44,0,0,0-.45,1.45,2.31,2.31,0,0,0,.44.74c-.22.18-.44.37-.66.53l-.11.1a1.84,1.84,0,0,0-1.18-.57Zm4.5,46,0-.08a20.65,20.65,0,0,0,.54-3.11c.1.14.19.29.28.44s.09.11.14.17a1.76,1.76,0,0,1,.14.23,2.65,2.65,0,0,0,.23.48c.1.18.19.36.28.54s0,.21,0,.31,0,0,0,.31a2.77,2.77,0,0,0,.11.64l-.08.07a4.48,4.48,0,0,0-.4.36l.41-.32h0a8,8,0,0,0-.77.65,4.15,4.15,0,0,0-1,1.1l-.38.45C76.85,145.14,77,144.39,77.16,143.64ZM77.24,159h0l.2.12.06,0c0,.1.12.2.18.3a3.84,3.84,0,0,0,1.5,1.74,4.61,4.61,0,0,0,2.25.45h0a.19.19,0,0,1,0,.07,3.05,3.05,0,0,0,.08.54c-.33.24-.64.49-1,.75l-.77.57a5.36,5.36,0,0,0-4.46-2.45h-.24c.05-1,.06-2,0-3a5.12,5.12,0,0,0,.62.31A11.22,11.22,0,0,0,77.24,159Zm-.37-42h0l.09,0,.24.14a3.62,3.62,0,0,0,.32.22l.24.19-.08-.07.17.14.13.1h0l0,0,0,0a6.22,6.22,0,0,0,.92.78c.44.37.89.74,1.3,1.15,0,0,0,.09.08.14l.1.25,0,.07h0v.59l-.09.08c-.31.23-.73.56-1,.76l0,0a10.68,10.68,0,0,0-2.7,3.16l-.1.12a3.6,3.6,0,0,0-.47.39,3.81,3.81,0,0,0-5.26-2.16c.38-.88.76-1.76,1.16-2.64.68-1.53,1.43-3,2-4.6l.28.14c.2.08.37.16.5.2a7.64,7.64,0,0,0,.83.35A5.23,5.23,0,0,0,76.87,117Zm6.57-16.69a12.24,12.24,0,0,0-1.17.52,5.41,5.41,0,0,0-.67-1.78c-.09-.15-.17-.31-.25-.46l0,0A20.77,20.77,0,0,0,83.44,100.32ZM82.7,78.67c1.18.94.7.26,2,1.81.1.14.19.3.28.45l0,.14a11.91,11.91,0,0,0-1.17.63,29.56,29.56,0,0,0-3,2.25,27.66,27.66,0,0,0,1.16-3.07A2.88,2.88,0,0,0,82.28,79a1.93,1.93,0,0,0-2.46-1.22l-.37.16a1.94,1.94,0,0,0-2.28-1.16A6,6,0,0,0,75.34,78a1.71,1.71,0,0,0-.21-.26,1.64,1.64,0,0,0-.26-.2,17,17,0,0,0,1-2.58c.11-.36.22-.73.31-1.11a2.45,2.45,0,0,0,.45.17l0,0a28.16,28.16,0,0,0,2.37,1.68C80.61,76.75,80.54,77,82.7,78.67Zm2-19.39a12.9,12.9,0,0,0,1.86,2.11l-.57.3-.63.3-.23.09c-1.08.47-1.34.57-1.54.69a14.6,14.6,0,0,0-2,.92c-.25.13-1.13.8-1.61,1.17l0,0a18.55,18.55,0,0,0,.56-1.79,5.17,5.17,0,0,0,.22-2.27,2.12,2.12,0,0,0-.74-1.16,15.32,15.32,0,0,0,1.21-3.88c.51.52,1,1,1.53,1.53a11.79,11.79,0,0,1,1.83,1.77Zm7.58-20.86-.69.59a15.8,15.8,0,0,0-3.49,2.92C87,43,86,44,85,45.11c-.7.7-1.44,1.36-2.2,2l-.28.22a3.33,3.33,0,0,0-1.06.76c-.28.32-.56.63-.82.95l0,0-.09.09a3.3,3.3,0,0,0-.91,1,.36.36,0,0,1,0,.09A2.89,2.89,0,0,0,79,51.91a3.72,3.72,0,0,0,.28,1.33,3.35,3.35,0,0,0-2,1.07q.92-2.66,1.75-5.34c.15-.24.28-.51.41-.75s.24-.44.37-.66a1.75,1.75,0,0,0,.91,0c.66-.16,1-.77,1.39-1.27s1.06-1.31,2-2.62c.23-.34.47-.66.7-1a3.62,3.62,0,0,0,1.42-1.07,23.37,23.37,0,0,0,1.57-1.86l.12-.15.06-.08,0-.06h0c.47-.61.93-1.24,1.36-1.88s1.07-1.83.5-2.74a1.79,1.79,0,0,0-1.23-.82,2.39,2.39,0,0,0-.41-.71c.13-.44.29-.87.46-1.31.49.65,1,1.3,1.41,2,.11.19.22.38.32.58a.31.31,0,0,1,0,.1A4.4,4.4,0,0,0,91,36a1.82,1.82,0,0,0,.27.35l.09.14,0,.07a3.34,3.34,0,0,0,.5.82c.19.31.36.62.57.92Z"/><path d="M77.79,117.6l.21.16-.12-.09Z"/><path d="M107.73,154.07l.06.07,0,0Z"/><path d="M108.88,138.81l0,.05v0Z"/><path d="M119.19,61a4,4,0,0,0-.93-1.24c-.17-.27-.3-.55-.45-.83,0-.09-.1-.18-.14-.27-.11-.29-.38-1-.47-1.26A5.3,5.3,0,0,0,116,55.21,6.21,6.21,0,0,0,114.28,54h0a2.57,2.57,0,0,1-.29-.28c-.71-1.07-1.34-2.2-2.14-3.2-.93-1.26-2.24-2.17-3.25-3.36l0,0c-.22-.31-.41-.65-.62-1s-.36-.58-.55-.86l-.46-.62s0-.09,0-.14a9.45,9.45,0,0,1,1.52-3.46c.45-.89,1.52-1.2,2.21-1.93l.15-.15c-.16.06.15-.09.21-.17a1.22,1.22,0,0,0,.35-.81,2,2,0,0,0-.55-1.5,6.4,6.4,0,0,0-1.35-.91,7.9,7.9,0,0,1-1.25-1.27c-1.59-2-3.48-4.64-5.38-6.7,1.16,1.83,2.14,3.77,3.19,5.66.8,1.43,1.45,3.08,2.82,4.07l.1.08h0s.12.1.17.13c-.63.39-1.33.65-1.93,1.08a5.81,5.81,0,0,0-1,1.08,8,8,0,0,0-1.5,2.31,6.63,6.63,0,0,0-.9,3.15c0,.75.56,1.28.88,1.9s.69,1.4,1.12,2a36.27,36.27,0,0,0,2.68,3.13c.42.59.81,1.2,1.17,1.82a8,8,0,0,0,2.74,3.45,4.88,4.88,0,0,1,.63.34.47.47,0,0,1,.1.1.75.75,0,0,1,.07.12,26.19,26.19,0,0,0,.89,2.58,7,7,0,0,0,.92,1.59c-.27,1-.5,2-.85,3l-.09.15-.2.21-.47.48a7.2,7.2,0,0,1-1,.58c-.91.34-.26.07-1.72.38a14.24,14.24,0,0,0-2.62.83,28.28,28.28,0,0,0-3,1.48,9.29,9.29,0,0,0-3.61,2.55,5.19,5.19,0,0,0-1.09,3l0,.41c-.1.57-.2,1.15-.25,1.73A3.7,3.7,0,0,0,102.16,81h0l.06,0c.1.08.1.07,0,0,.25.2.5.38.76.56l.41.35a22.35,22.35,0,0,0,1.86,1.38,12.84,12.84,0,0,1,1.37.74l.2.13c.44.35.88.7,1.33,1-.7-.54-.15-.1.28.21a1.37,1.37,0,0,1,.18.16,20.63,20.63,0,0,1,2.56,3c0,.51,0,1,0,1.52v0h0c-.13.25-.31.48-.43.74l-.14.19-.09.09c-.13.08-.26.17-.4.24-1.5,1.2-1.54,1.26-2.24,1.82l-.15.12a12.39,12.39,0,0,0-4.05,6.91,8.6,8.6,0,0,0,2.26,6.52,16.86,16.86,0,0,0,2.17,1.83c1.36,1.09.32.26,1.68,1.37a8.3,8.3,0,0,0,2,1.38h0a.6.6,0,0,1,.08.08,1.81,1.81,0,0,1,.18.21c.15.2.29.4.44.59l.17.24,0,.12c-.08.13-.16.26-.23.39l.25-.33h0a11.71,11.71,0,0,0-.93,1.29c-.25.36-.47.75-.72,1.11a1.63,1.63,0,0,1-.14.14l0,0c-1,.72-2.12,1.21-3.07,2a7.8,7.8,0,0,0-2.32,2.92,10,10,0,0,0-1,3.85,6.46,6.46,0,0,0,.72,2.74,6.61,6.61,0,0,0,1,1.87,13.05,13.05,0,0,0,1.38,1.5,28.38,28.38,0,0,0,2.7,2.56l.36.35s.05.09.07.14a1.67,1.67,0,0,0,.08.2l.06.1s0,.06,0,.09c0,.3.18.57.25.87.06.49.14,1,.24,1.46,0,.25,0,.5,0,.75l-.33.27a7,7,0,0,0-2.26,1.89l0,0c-.08.11-.17.22-.25.34.11-.16.19-.26.24-.32a2.81,2.81,0,0,1-.26.27c-.21.16-.4.34-.6.52a3.79,3.79,0,0,1-.34.2l-.43.18a13.07,13.07,0,0,0-1.47.56c-1.21.55-2.6,1.24-3,2.64a18.83,18.83,0,0,0-.11,3.1,5.54,5.54,0,0,0-.15,2.39c.44,1.54,1.82,2.54,3,3.49.25.2.54.33.8.5a10.57,10.57,0,0,0,.83.67,3.27,3.27,0,0,1,.3.35c.06.07.11.15.18.22a.94.94,0,0,0,.09.12c-.1-.13-.08-.12,0,.05l.17.22-.15-.2.1.15.12.17c0,.14.11.28.17.42a.5.5,0,0,1,0,.13c0,.2,0,.56,0,.84l0,.1-.91.93c-.45.5-.86,1-1.34,1.5a26.65,26.65,0,0,0-2.45,2.53c-.91,1-2.14,2-2.2,3.42a6.9,6.9,0,0,0-.45,2c0,.08,0,.15,0,.23a5.17,5.17,0,0,0-.14,2.31,9,9,0,0,0,1.68,3,6.45,6.45,0,0,0,.79.86,5.28,5.28,0,0,0,.37.55l.06.07c.06,1,.12,1.92.16,2.88a.92.92,0,0,1,0,.16,2,2,0,0,1,0,.24c0,.13,0,.25,0,.38a.78.78,0,0,1,0,.21l0,0a4.2,4.2,0,0,0-1.58.26c-.92.57-1.16,1.57-1.7,2.35,0,.05,0,0,0,0a4.23,4.23,0,0,0-.67,1.3,4.72,4.72,0,0,0,.45,4.81c.62,1,1.35,1.94,2,2.94a1.58,1.58,0,0,1,.19.54,7.17,7.17,0,0,1,.37,1.22c.07.32.08.65.15,1,.06.12.16.21.21.33a1.72,1.72,0,0,1,.16.59,1.58,1.58,0,0,0,0-.53,3.9,3.9,0,0,1-.09-1.6c0-.5-.14-1-.16-1.49-.47-1.71-1.52-3.14-1.84-4.88a3.55,3.55,0,0,1,.75-2.29c.22-.38.61-.66.84-1.06,0-.07,0-.06,0,0a4.23,4.23,0,0,0,.33-.41h0l.19-.25a4.62,4.62,0,0,0,1.7-.09,2.41,2.41,0,0,0,1.44-1.34h0a5.12,5.12,0,0,0,.53-1.46,17.28,17.28,0,0,0,.29-3.13,7.32,7.32,0,0,0,0-1.75,3.61,3.61,0,0,0-.56-1.15,5.24,5.24,0,0,0-.78-1.16,6,6,0,0,1-.94-1.53,1.63,1.63,0,0,1-.11-.23l0-.07c.21-.77.31-1.56.57-2.31a1.48,1.48,0,0,0,.25-.66l0-.16.15-.16c1-.95,1.89-2,2.83-3a14.81,14.81,0,0,0,2.41-2.59c-.54.67-.12.21.24-.23l.09-.1a4.89,4.89,0,0,0,1.19-2.27,6.84,6.84,0,0,0-.42-3.53.65.65,0,0,0,0-.13,5.06,5.06,0,0,0-1-1.55,6.26,6.26,0,0,0-1.51-1.57c-1.45-1.27-1.33-.83-2.2-1.66-.14-.11-.37-.36-.57-.56a12.05,12.05,0,0,0,.23-2.88l.34-.16a8.56,8.56,0,0,1,1.12-.35,7.3,7.3,0,0,0,3.27-2,4.38,4.38,0,0,0,.59-.69c.06-.05.41-.42.71-.69a4,4,0,0,0,1.06-.71,5.23,5.23,0,0,0,1.47-1.42,3.77,3.77,0,0,0,.35-2.22,29.86,29.86,0,0,0-.44-3.3,12,12,0,0,0-.58-1.75,2,2,0,0,0-.15-.28,3,3,0,0,0-.34-.67,26.4,26.4,0,0,0-2.73-2.66,7.26,7.26,0,0,1-.9-.94c-.23-.29-.54-.49-.78-.76-.74-1.08-.28-.46-.81-1.63,0-.14-.1-.29-.14-.44s0-.22,0-.32c.1-.5.29-1,.44-1.47a11,11,0,0,1,.79-1.32l0-.05,0,0a10.18,10.18,0,0,1,1.77-1.14,9.69,9.69,0,0,0,2.19-1.64c.72-.84,1.23-1.83,1.87-2.73l-.34.44q.3-.37.57-.78a2,2,0,0,0,.23-.27,2.65,2.65,0,0,0,.33-.42,4,4,0,0,0-.27-3.58,4.37,4.37,0,0,0-.65-1.1l0,0a5.85,5.85,0,0,0-2.12-2.13,3.37,3.37,0,0,1-.66-.39c-.84-.72-1.68-1.41-2.54-2.1a13,13,0,0,1-1.48-1.29c-.88-1.46-.62-.78-1-2.13v-.25c0-.29,0-.59,0-.88a9.13,9.13,0,0,1,1.58-2.83,5.88,5.88,0,0,1,.7-.71c.15-.12.31-.23.45-.35l.11-.11c.52-.4,1-.83,1.51-1.26l.08-.07a1.82,1.82,0,0,1,.23-.15,4.14,4.14,0,0,0,.7-.55,3.93,3.93,0,0,0,.83-1l.08-.13.12-.15a5.71,5.71,0,0,0,1-3.07,13.66,13.66,0,0,0-.16-2.86,3.56,3.56,0,0,0-.83-1.31,23.73,23.73,0,0,0-3-3.43A25.93,25.93,0,0,0,109,80.68c-1.19-.75-1.43-.71-1.71-.93-1.7-1.17-1.59-1.29-3.16-2.33,0-.16,0-.31,0-.47s.09-.49.14-.73c.26-1.51-.06-.6.31-1.71l.09-.12a4,4,0,0,1,.29-.29,19,19,0,0,1,2.18-1.18,16.85,16.85,0,0,1,3.74-1.63c1.32-.44,1.88-.07,4-1.18a8.18,8.18,0,0,0,3-2.9c.79-1.79,1.21-4.25,1.47-4.66A2.45,2.45,0,0,0,119.19,61Z"/><path d="M114.06,60.68h0l-.15-.37Z"/><path d="M114.12,60.82l-.05-.12h0Z"/><path d="M127.91,74.49c0-.11.09-.22.14-.33a6.56,6.56,0,0,0,.23-.62l.05-.1,0-.06a16.73,16.73,0,0,0,1.8-1.87c.62-.8,1.48-1.37,2-2.23s.22-.27,1.31-1.72a4.18,4.18,0,0,0,.33-3.71,10.89,10.89,0,0,0-.79-3.14,5.9,5.9,0,0,0-1.5-2,14.35,14.35,0,0,0-1.15-1.52c-.48-.7-.79-1.5-1.21-2.24a.87.87,0,0,1-.07-.17,2.91,2.91,0,0,0-.47-.69l-.25-.39c-.64-.84-.69-.79-1-1a6.35,6.35,0,0,1-.58-.58c-.54-.69-1.18-1.29-1.76-1.94a9.77,9.77,0,0,1-.92-.9,1.43,1.43,0,0,1-.1-.19c0-.07-.07-.17-.11-.26h0c0-.1,0-.2,0-.3a7.92,7.92,0,0,0,.19-1l.13-.12.06,0a2.72,2.72,0,0,0,.81-.81c.81-1.07.61-2.47.5-3.71a5,5,0,0,0-.41-2c-.14-.69-.1-1.44-.22-2.15a6.8,6.8,0,0,0-1.29-2.89c-.64-1-1.29-1.93-2-2.85a33.67,33.67,0,0,1,2.12,5,12.58,12.58,0,0,1,0,2.94c0,.38.22.73.18,1.11a21.06,21.06,0,0,1-.25,2.64c-.18.78-1.09.87-1.57,1.42a2.26,2.26,0,0,0-.48.92,2.17,2.17,0,0,0-.07.24l.13-.31-.24.56c-.83,1.88,0,3.46,1.26,4.86a9.41,9.41,0,0,0,.8,1.18,11.57,11.57,0,0,0,1.65,2.1,5.86,5.86,0,0,0,.3.55l.13.19a5.9,5.9,0,0,0,.23.57c0,.09.08.19.11.28a15.33,15.33,0,0,0,.85,1.95,1.46,1.46,0,0,0-1,.06l.09-1.54q-.23.88-.42,1.77a8.89,8.89,0,0,0-1.63,2.88c-.09-.34-.18-.69-.28-1v-.31a2.4,2.4,0,0,0-.13-1,1.47,1.47,0,0,0-.24-.4,2,2,0,0,0,2-2.54c-.39-1.52-1.75-2.59-2.9-3.57s-2.49-1.79-3.74-2.68l.12-1.12c.12-1,.18-2,.22-3a1.5,1.5,0,0,0,.84-.59,2.32,2.32,0,0,0,.44-1.49c0-.77,0-1.54,0-2.3a16.37,16.37,0,0,0-.1-1.72,1.75,1.75,0,0,0,.42-.48l0,0a2.44,2.44,0,0,0,1.89.45,1.86,1.86,0,0,0,1.41-1.74,3.67,3.67,0,0,0-1-2c-.76-.93-1.57-1.82-2.35-2.74a17.6,17.6,0,0,1-2.56-3.85c-.31-.84-.8-1.74-1.76-1.83a1.68,1.68,0,0,0-1.92,1.46,1.64,1.64,0,0,0,0,.22l-.45-.46a2.52,2.52,0,0,0-.77-.58,2.69,2.69,0,0,0-1.07-1.26,1.74,1.74,0,0,0-2.34.62,1.91,1.91,0,0,0-2.1.09l-.24-.3a1.64,1.64,0,0,0-.3-.55A1.49,1.49,0,0,0,106,27a1.89,1.89,0,0,0-1.68-.39,1.7,1.7,0,0,0-1.18,2.07,11.3,11.3,0,0,0,1.38,2.31c.26.88.52,1.77.85,2.63a19.79,19.79,0,0,0,1.6,3.06,1.84,1.84,0,0,0,2.87.7l.3.24a1.81,1.81,0,0,0,.59.26c0,.6,0,1.2.07,1.8a1.29,1.29,0,0,0-1.51.93c-.37,2-.51,4-.83,6.1-.1.75-.16,1.51-.24,2.27a2.15,2.15,0,0,0,1.27,2.66A2.28,2.28,0,0,0,112,50.23a1.53,1.53,0,0,0,.6,0,1.17,1.17,0,0,0,.26-.1l0,0a1.39,1.39,0,0,0,.63.21c.06.18.1.37.16.55a4.15,4.15,0,0,0,.2.63,4.9,4.9,0,0,0,.15.92.45.45,0,0,1,0,.11,2.46,2.46,0,0,0,.91,2.52c.3.78.63,1.55,1,2.31a54.25,54.25,0,0,0,2.65,5.55,15.78,15.78,0,0,0,1.21,1.91c-.26,1.18-.56,2.36-.89,3.52a1.54,1.54,0,0,0-1.06-.08c-.93.3-1.4,1.29-1.91,2a1.59,1.59,0,0,0-1.48.26,2.15,2.15,0,0,0-.66.93c-.12.21-.26.41-.39.62a2.44,2.44,0,0,0-.43-.2c-1.3-.34-2.24.84-2.91,1.78a17.92,17.92,0,0,0-2.9,5.71c-.52,2,.39,4.4,2.85,3.83a5.5,5.5,0,0,0,2-1.36,1.7,1.7,0,0,0,2.68.63,16.14,16.14,0,0,0-1,3.88c-.41,2,.92,3.13,2.39,2.83-.09.43-.17.87-.26,1.3a1.56,1.56,0,0,0-1,.46,1.69,1.69,0,0,0-.42.72h0v0c-.06.21-.11.43-.18.63-.14.5-.26,1-.38,1.52-.06.08-.11.17-.16.25a1.46,1.46,0,0,0-.62,0c-.79.19-1.09,1-1.38,1.67a17.67,17.67,0,0,0-.66,1.76,1.58,1.58,0,0,0-1.27.07l0,0a1,1,0,0,0-1.41.29,2.09,2.09,0,0,0-.09,1.19,10.21,10.21,0,0,0,.32,1.63c0,.45,0,.89,0,1.29a25,25,0,0,0,.18,4,2.7,2.7,0,0,0,2.74,1.42c1-.44,1.33-1.62,1.83-2.49l0-.07a2.69,2.69,0,0,0,.73.4,3,3,0,0,0,.32.65c-.22.84-.45,1.68-.66,2.53a2.76,2.76,0,0,0-.19,1.55,1.53,1.53,0,0,0,2.41.8,3.58,3.58,0,0,0,.44-.51,1.68,1.68,0,0,0,.77.82c1,.54,2-.1,2.78-.73l.1-.08-.21.49c-.5,1.1-1,2.2-1.49,3.3a1.56,1.56,0,0,0,.15,1.81,3.87,3.87,0,0,0-.61,1v0a1.5,1.5,0,0,0-2.23-1.09,2.49,2.49,0,0,0-.93,1.39c-.21.5-.41,1-.61,1.5-.88-1.18-2.35-1.13-2.6.52a12.75,12.75,0,0,0-.11,1.75,2.24,2.24,0,0,0-1.09,1.83,6.05,6.05,0,0,0,.61,3.4,2.14,2.14,0,0,0-.27,2.13,3.62,3.62,0,0,0,2.39,1.08l.06,0,.36.4-.24-.43a2.75,2.75,0,0,0,1.3-.93,1.75,1.75,0,0,0,.4,0v.19a.17.17,0,0,1,0,.07,16.25,16.25,0,0,0-.24,3.61,1.11,1.11,0,0,0,1.84.65,2.29,2.29,0,0,0,.61-1.56,1.05,1.05,0,0,0,.35.08,1.37,1.37,0,0,0,.28,0c-.74,2.6-1.44,5.21-2,7.86-.06.19-.12.38-.17.58a4.53,4.53,0,0,0-.27,1.58l-.06,0a2.85,2.85,0,0,0-1.29,1.66,1.55,1.55,0,0,0-.86-.39,1.36,1.36,0,0,0,0-.45A1.52,1.52,0,0,0,111,141c-.91.3-1.36,1.29-1.71,2.11-.55,1.27-1,2.6-1.43,3.9a5.85,5.85,0,0,0-.42,3.08.54.54,0,0,1,0,.11,1.54,1.54,0,0,0,2,1.17h.18c0,.28,0,.55.08.82a3.74,3.74,0,0,0,.52,1.48,1.56,1.56,0,0,0,1.91.44,3,3,0,0,0,.13,1.11,1.37,1.37,0,0,0,1.25.89l-.24.76a4.17,4.17,0,0,0-.35,1.32,1.66,1.66,0,0,0-2.22-.19c-1.08.84-1.58,2.21-2.29,3.34s-1.19,2-1.78,3c-.53.68-1,1.38-1.51,2.1-.84,1-1.86,2.71-.35,3.65a1.68,1.68,0,0,0,1.58.06,2.25,2.25,0,0,0,.12.21,4.57,4.57,0,0,0,.29.47l-.3.89-.6,1.9a2.58,2.58,0,0,0-.16,1.77,1.69,1.69,0,0,0,1.49,1.19c-.51,1.09-1,2.21-1.42,3.33a1.72,1.72,0,0,0-.67.64,2.25,2.25,0,0,0-.24.8v0a2,2,0,0,0-.45-1.52,1.43,1.43,0,0,0-1.8-.18c-.32-.86-.81-1.52-1.63-1.53a1.36,1.36,0,0,0-1.11.55c-.65.74-.52,1.82-.56,2.76q0,1.11.12,2.22a17.55,17.55,0,0,0,.19,3.62,18.68,18.68,0,0,0,1.09,4.48c.24,1.2.63,3,2.17,2.76a1.25,1.25,0,0,0,.69-.26,1.72,1.72,0,0,0,1-.78,3.11,3.11,0,0,0,.26-1.93,1.77,1.77,0,0,0,1.16.09,2.11,2.11,0,0,0,1.33-1.45,1.45,1.45,0,0,0,2.51.14,1.19,1.19,0,0,0,1.79-.1,2,2,0,0,0,.32-.84,11.87,11.87,0,0,0,.25-1.52l0,.53h0a.38.38,0,0,0,.14.29c-.13,1.38,0,2.86.65,3.31a1.51,1.51,0,0,0,2.23-.53c.06-.13.11-.25.16-.38v0c0-.07.06-.14.08-.18s.1-.23.14-.35.17-.5.25-.75a1,1,0,0,0,.17-.14,2.48,2.48,0,0,0,.5-2,1.41,1.41,0,0,0-.07-.41,4.93,4.93,0,0,0,0-.94,1.77,1.77,0,0,1,0-.23c0-.24,0-.48,0-.72.06-.4.13-.83.2-1.36,0-.14.06-.29.08-.43l0,.16c.09.87.15,1.74.27,2.61.2.45.35.91.54,1.36a13.84,13.84,0,0,1,0-4.54,1.31,1.31,0,0,0-.17-.73s0,0,0-.06c.05-.5.09-1,.15-1.42a15.16,15.16,0,0,0,.76-1.36,5.42,5.42,0,0,0,.77-2.12,1.05,1.05,0,0,0-.18-.58c.28-.49,1.09-.58,1.43-.79a3.66,3.66,0,0,0,1-.6l.38-.3,0,0c.73-.52,1.52-.94,2.2-1.51l.16-.14a7.33,7.33,0,0,0,1.24-1.05,9.23,9.23,0,0,0,2-2.76,11.48,11.48,0,0,0-.07-3.7,4.66,4.66,0,0,0-.62-1.79c-.17-.21-.32-.44-.5-.63l-.16-.2c-.11-.15-.21-.3-.31-.46h0a1.9,1.9,0,0,0-.17-.63,2.22,2.22,0,0,0-.29-.55,2.8,2.8,0,0,0-.37-.53,2.19,2.19,0,0,0-.39-.29,1.46,1.46,0,0,1,0-.2,6,6,0,0,1,.34-.53l.36-.46h0A6.76,6.76,0,0,1,126,159a13.91,13.91,0,0,0,1.58-1.85c.2-.24.15-.15.85-1a4.9,4.9,0,0,0,1.21-2.21,3.36,3.36,0,0,0-.1-2.64,4.17,4.17,0,0,0-.08-.49,4.72,4.72,0,0,0-.43-1l-.09-.21s0-.05,0-.08c-.11-.37-.22-.73-.31-1.11a.81.81,0,0,0,0-.11,12.07,12.07,0,0,0-.49-2.39,4.37,4.37,0,0,0-.69-1.52l0,0c0-.12.27-.61.42-1a3.87,3.87,0,0,1,.27-.43l-.19.25v0l.46-.62,0,0a6.42,6.42,0,0,0,.91-1.69l.07-.16,0,.07,0-.1s0,0,0,0h0a6.44,6.44,0,0,0,.61-3.48,9.4,9.4,0,0,0-.2-1.32,3.86,3.86,0,0,0-.69-2.53,8.12,8.12,0,0,0-.87-1,2.65,2.65,0,0,0,.07-1.22,1.57,1.57,0,0,0-1.77-1.22.94.94,0,0,1,0-.16c0-.26,0-.52,0-.78.25.3.5.59.77.87-.26-.42-.51-.86-.75-1.3a.37.37,0,0,1,0-.11c.06-.32.13-.63.19-.95h0c.09-.4.27-.79.39-1.18l.23-.56a8.6,8.6,0,0,1,.65-1.1l.07-.08c1.43-1.54.79-1.08,1.92-2.2l.56-.7a6.85,6.85,0,0,0,1.07-1.46,4.69,4.69,0,0,0,.37-2.38,7.82,7.82,0,0,0-.07-1.37,5.51,5.51,0,0,0-.69-1.89,4.22,4.22,0,0,0-1.63-2l-.17-.08a3.25,3.25,0,0,0-.57-.33l-.62-.29a4.47,4.47,0,0,1-.44-.43h0l-.11-.3a13.42,13.42,0,0,0,1.55-1.38c.14-.1.28-.19.41-.3l.06,0c2.4-.83,3.56-4.54,3.4-6.95a5.38,5.38,0,0,0-.79-3.11l-.06-.12,0-.11-.05-.12a3.46,3.46,0,0,0-.53-1.21,4.27,4.27,0,0,0-1.26-1.17l-1.12-1.3a2.35,2.35,0,0,0-.19-.25v0a.49.49,0,0,1,0-.11c0-.49,0-1,0-1.47a4.79,4.79,0,0,0,.3-1.55,2.54,2.54,0,0,1,.1-.37c.53-.69.89-1.51,1.37-2.23.85-1.2,1.75-2.61,1.42-4.14A7.32,7.32,0,0,0,132,83.9a3.74,3.74,0,0,0-.38-1.27,12.8,12.8,0,0,1-.41-1.59,1.83,1.83,0,0,1-.07-.32c0-.1,0-.2,0-.3l0-.22A5.9,5.9,0,0,0,129.24,77a12.42,12.42,0,0,0-1-.75l-.12-.12c-.07-.07-.13-.15-.2-.23l0-.09a.5.5,0,0,1,0-.13c0-.12-.06-.25-.08-.37a1.34,1.34,0,0,1,0-.2A2.46,2.46,0,0,1,127.91,74.49Zm-14-36.86a1.27,1.27,0,0,0-.41-.42c0-.14,0-.27,0-.4l.46.43C114,37.37,113.91,37.5,113.88,37.63Zm-.48,146.94v0l-.3.71c0-.53.08-1.28.1-1.9l0-.13a1.39,1.39,0,0,0,.21.21C113.43,183.84,113.41,184.21,113.4,184.57Zm0-24.57a3.31,3.31,0,0,0,0-.89,1.41,1.41,0,0,0,.37.27ZM126,82.28c.1-.56.22-1.11.33-1.67.07.12.13.23.19.36a4.65,4.65,0,0,1,.19.9c0,.18.08.35.11.53a1.49,1.49,0,0,0-.84-.06Zm-2.5-4.9a6.63,6.63,0,0,0,.4.8,2,2,0,0,0-.35.69h0l-.18,0C123.42,78.22,123.46,77.79,123.5,77.38Zm-1,55.35a1.89,1.89,0,0,0-.2-.27c0-.25,0-.5,0-.76a5.93,5.93,0,0,0,.41,1.38l-.06.08A1.4,1.4,0,0,0,122.48,132.73Zm.45-8a10.14,10.14,0,0,0-.56,1.69l-.16-.17c.32-1.09.66-2.18,1-3.27.07.19.14.38.22.57C123.16,124.08,123.06,124.43,122.93,124.72Zm-3.16,16.14.14-.27v.16c-.2,1-.39,2.08-.54,3.13l0,.2a1.92,1.92,0,0,0-.28-.53C119.31,142.66,119.54,141.76,119.77,140.86Zm4.2,28.36a9,9,0,0,1-1.93,2.3c-.8.76-1.7,1.4-2.45,2.22a12.16,12.16,0,0,0-1.61,1,5.93,5.93,0,0,0-.3-2.74,1.53,1.53,0,0,0-1.1-1.1c.16-.4.32-.81.46-1.22a3,3,0,0,0-.16-1.9,11,11,0,0,0,.17-1.15v-.29c.67-1.23,1.35-2.47,2-3.72a27,27,0,0,0,2.08-4.62c0,.16,0,.32,0,.48a4.4,4.4,0,0,0-.34.74,4.75,4.75,0,0,0,0,3.5l.13.17a27,27,0,0,0-.37,6.59c.32-1.47.85-3.66,1.27-5.57.07,0,.13.11.21.16a2.38,2.38,0,0,0,.25.59,11.68,11.68,0,0,0,1.21,1.52,1.07,1.07,0,0,1,.16.14l.12.41a5.72,5.72,0,0,1,.3,2.13ZM125.64,153c0,.09-.06.19-.09.28l-.25.29c0-.28,0-.57,0-.85s.12-.48.17-.72v0a1.29,1.29,0,0,1,0,.19,2.17,2.17,0,0,0,0,.25,1.23,1.23,0,0,0,.13.41S125.65,152.92,125.64,153Zm2-34.63c-.65.71-1.32,1.4-1.9,2.17a19.72,19.72,0,0,0-1.4,1.63c-.18.25-.33.48-.45.68-.12-.24-.24-.48-.35-.73.41-1.34.79-2.68,1.1-4a2.6,2.6,0,0,0-.26-2,1.41,1.41,0,0,0-1.09-.58l.21-.66c.11-.37.24-.73.37-1.09A5.15,5.15,0,0,0,125,115v0a4.63,4.63,0,0,0,1.65,1l0,0,.3.13a1.37,1.37,0,0,0,.2.13s0,0,0,0c.13.24.24.48.36.72C127.59,117.49,127.6,117.91,127.59,118.33Zm.34-17.93a1.13,1.13,0,0,0,.09.2,9.79,9.79,0,0,0,.63,1.3c0,.26,0,1.09,0,1.54a7.84,7.84,0,0,1-.34,1.17,6.32,6.32,0,0,1-.33.56,3.34,3.34,0,0,0-1.31.82,12.82,12.82,0,0,0-1.57,1.38l-.66.36c.49-1,1-1.89,1.49-2.83s1-1.76.65-2.66a1.51,1.51,0,0,0-2-.81c-.44.14-.68.57-1,.89-.45.53-.93,1-1.41,1.53l.36-.83a9.19,9.19,0,0,0,1.06-3.3,2.37,2.37,0,0,0-.61-1.87l1.42-4v1a3.74,3.74,0,0,0,.25,1.56l.07.26a3.76,3.76,0,0,0,.85,1.39l.32.4a12.35,12.35,0,0,0,1.75,1.79Zm-.15-14.67-.08.14a1.27,1.27,0,0,1-.13.19v0c0-.22.09-.44.13-.66Zm-1.21-17.06c.55-1.75,1.07-3.51,1.58-5.27a1.63,1.63,0,0,0-.37-1.69,5.3,5.3,0,0,0,.19-.86,6.07,6.07,0,0,0,.52.73,4,4,0,0,0,.41.41c.09.16.19.33.27.5a13.37,13.37,0,0,1,.35,1.52.41.41,0,0,1,0,.11,5.49,5.49,0,0,0,.22,1.21c-.25.26-.51.51-.74.78a10.77,10.77,0,0,1-.77.88A17.65,17.65,0,0,0,126.57,68.67Z"/><path d="M129.4,140.66a.43.43,0,0,0,0,.07Z"/><path d="M142.62,145.37l0,.06,0,0Z"/><path d="M164.89,112.58a44.87,44.87,0,0,0-1.06-6.27c-.08-1-.17-2-.28-3.06-.24-2.49-.51-5-.78-7.46-.07-1.51-.16-3-.26-4.53l-.06-2.16V87.81a1.52,1.52,0,0,0-.58-1.21c-.2-2.51-.34-5-.37-7.55h0a1.45,1.45,0,0,0-1.92-1.36c-.19-.41-.37-.79-.5-1.1s-.34-.73-.52-1.09c-1-2.53-1.89-5.09-2.68-7.68-.24-1.77-.47-3.38-.66-4.62-.08-.75-.13-1.49-.14-2.24.06-.13.11-.26.16-.4.55-1.49.21-4.72-2.05-3.94a1.25,1.25,0,0,0-.8.85l-.25-.47a34.55,34.55,0,0,1-1.35-3.56c-.41-1-.49-2.28-1.47-2.92a1.52,1.52,0,0,0-.86-.2,31,31,0,0,1-1.78-4c0-.12-.07-.25-.11-.37a1.5,1.5,0,0,0-1.87-1.25c-1.62.58-1.08,2.2-.5,3.78l.54,2c-.43-.67-.88-1.34-1.34-2,.59,1.26,1.14,2.56,1.66,3.89a7.25,7.25,0,0,0,.16,2.13,8.49,8.49,0,0,1-.68-.9c-.89-1.42-1.67-2.9-2.53-4.33a23.78,23.78,0,0,1-1.39-3.57,18,18,0,0,0,.47,2.72,10.26,10.26,0,0,0,.67,2.12,41,41,0,0,0,1.62,4.15c.34.67.73,1.31,1.06,2,0,.12,0,.18.07.19s0,0,0,0a12.7,12.7,0,0,1-.1,2.22.61.61,0,0,1-.07.14,1.8,1.8,0,0,1-.69.63,3.07,3.07,0,0,0-1.2,1,4.15,4.15,0,0,0-.75,1.15,9.87,9.87,0,0,0-1.14,4.42,5,5,0,0,0,.46,3.38,11.46,11.46,0,0,0,1.87,1.88c.27.34.57.65.87,1l.07.11c.16.22.33.43.5.63l.58.81a12.13,12.13,0,0,1,1,1.55l.15.43a6.8,6.8,0,0,0,.31.86,8.66,8.66,0,0,0,.34,1.13,6,6,0,0,1-.55,1.86,9.72,9.72,0,0,1-.29,1l0,.1v0c-.12.28-.27.55-.4.82a26.16,26.16,0,0,0-1.35,3.59c-.22.72-.11.32-.63,1.71,0,0,0,.08,0,.12l-.12.29a3.58,3.58,0,0,0-.47,1.28l0,.18a10.11,10.11,0,0,0-.28,4.3,8.81,8.81,0,0,0,2.23,3.34,16,16,0,0,0-.4,1.66,9.59,9.59,0,0,0-.3,3.15c.26,1.06,1.08,2,2.25,1.63a4.89,4.89,0,0,0,1.19-.83,3.31,3.31,0,0,0,.72,1.39,1.88,1.88,0,0,0,.31.32c0,.11-.09.22-.14.32a4.85,4.85,0,0,1-.29.49c-.33.48-.59,1-.91,1.51l0,0a16.9,16.9,0,0,0-3.09,3.45,10.56,10.56,0,0,0-1.27,4.87,6.31,6.31,0,0,0,.67,3.49,12.65,12.65,0,0,0,1.19,1.54c.71.82,1.61,1.46,2.34,2.25a13.8,13.8,0,0,1,.85,1.43h0a4.27,4.27,0,0,1,.18.61c0,.13,0,.26,0,.38,0,.49,0,1,0,1.45a12.7,12.7,0,0,0-1,1.19,11.56,11.56,0,0,0-1.52,2,17.24,17.24,0,0,0-1.09,2.71,13.6,13.6,0,0,0-.29,3c0,.16,0,.25,0,.3v.11c-.71,3.92.3,5.57,2.54,6.39l0,.08a.56.56,0,0,0-.05.08,10.36,10.36,0,0,1-.77.85l-.19.11a9.16,9.16,0,0,0-3,2.55,2.09,2.09,0,0,1,.14-.17,1.56,1.56,0,0,0-.16.2l0,.06a3.18,3.18,0,0,0-.54,1.11,7.89,7.89,0,0,0-.27,3.34,7,7,0,0,0,.46,1.23c.09.24.2.47.3.7l0,.12c0,.11,0,.22.07.33a2.83,2.83,0,0,1,0,.29c0,.22-.11.44-.18.67h0a11.52,11.52,0,0,0-1.06,4,24.65,24.65,0,0,1-.34,2.91,7.28,7.28,0,0,0-.21,2.13,4.7,4.7,0,0,0,.41,2.14l0,0a4.58,4.58,0,0,1-.78,1.69c-.38.62-.85,1.19-1.19,1.84a7,7,0,0,0-.54,2,1.59,1.59,0,0,0,0,.84c.12.25.29.47.39.73a.13.13,0,0,1,0,.1c0,.1.09.21.11.32.12.35.09.69.21,1l.11.24a10.63,10.63,0,0,0-.13,1.58c.09-.29.19-.6.31-.9a.75.75,0,0,1,0,.16,4.25,4.25,0,0,1,.44,1.33,9,9,0,0,0-.15-1.64,2.24,2.24,0,0,0,0-.58c.69-1.64,1.63-3.45,2.36-5,.34-.8.65-1.61,1-2.43s.79-1.84,1.2-2.75a1.7,1.7,0,0,0,.19-.19,15.12,15.12,0,0,0,1.4-2.44,35.43,35.43,0,0,0,2.48-5v.05a3.85,3.85,0,0,0,0,1.69c-.42.85-.76,1.75-1.1,2.63-.16.44-.32.88-.47,1.33-.17.23-.34.46-.5.7.31-1.11.59-2.21.88-3.32-.2.34-.39.69-.59,1l0-.21c-.19.37-.36.74-.53,1.12a36.13,36.13,0,0,0-4.19,12.11,5.47,5.47,0,0,0-.11,1.07.34.34,0,0,0,.1.16h0s.16-.2.06-.11,0-.37,0-.44c.34-.87.67-1.64,1-2.41a.5.5,0,0,0,.69.19,1.13,1.13,0,0,0,.28-.37,23,23,0,0,0,1.39-2.43.83.83,0,0,0,.07-.13c0,.37-.07.75-.11,1.12s-.07.87-.09,1.31c0,.27-.12.6.07.83a.49.49,0,0,0,.8-.05,9.91,9.91,0,0,0,.91-2.58.5.5,0,0,1,0-.12l.07-.14c.26-.48.5-1,.73-1.48a5.79,5.79,0,0,0-.13,2.19,21.62,21.62,0,0,1,1.34-3.87c.38-1.08.71-2.19,1-3.3a14.16,14.16,0,0,1,1.47,4.89c.05.25.08,1,.12.41a15,15,0,0,0-.06-4.34,6.79,6.79,0,0,0-.55-2l.27-.21a7.6,7.6,0,0,0,2.89-5.4,6.69,6.69,0,0,0,0-.77,1.54,1.54,0,0,0-.45-1.38c.5-1.08,1.32-2.52,1.91-3.86a11.49,11.49,0,0,0,1-2.8,1.4,1.4,0,0,0-.33-1,14.43,14.43,0,0,0,2.08-1.58,2.39,2.39,0,0,1,.93-.62c.47-.17,1.05-.27,1.29-.77a2.31,2.31,0,0,0-.55-2.17,1.94,1.94,0,0,0,.11-.91,2.53,2.53,0,0,0-.12-.83,1.63,1.63,0,0,0,1.88-1.3,26.89,26.89,0,0,0-.39-5.87c-.16-1.35-.35-2.69-.54-4a1.29,1.29,0,0,0,.38-.28c.68-.68.44-1.7.58-2.56,0-.35.08-.7.11-1a1.72,1.72,0,0,0,.68-.71,18.33,18.33,0,0,0,.92-5.2,3.67,3.67,0,0,0,.69-1.76A15,15,0,0,0,164.89,112.58ZM144.53,68.13l-.3-.22-.16-.14c0-.15,0-.31,0-.46,0-.77-.06-1.33-.06-1.78a10.31,10.31,0,0,0,.8,2.78l-.3-.21Zm.54-15.75c.29.75.58,1.5.85,2.27l.09.28A13,13,0,0,1,145.07,52.38Zm-5,119a7.58,7.58,0,0,0-.21-.82.7.7,0,0,1,.06-.19,7.44,7.44,0,0,1,.49-1.13,3.32,3.32,0,0,1,.65-.84A22.14,22.14,0,0,0,140,171.33Zm9.8-39.28c.1-.2.22-.4.34-.59-.06.22-.13.43-.18.65a1.71,1.71,0,0,0-.23.13A1.07,1.07,0,0,1,149.84,132.05Zm-.25,29.69c0-.21.11-.41.16-.62a.3.3,0,0,0,.08.08Q149.7,161.47,149.59,161.74ZM148,115.82h0a1.8,1.8,0,0,1-.05-.19c0-.3,0-.6,0-.9s0-.48.06-.72a12,12,0,0,1,.34-1.17.24.24,0,0,1,0-.07l0-.06.11-.21c.09-.15.19-.3.29-.44s.33-.38.5-.56a2.09,2.09,0,0,0-.14.3,2.19,2.19,0,0,0-.15,1.16c0,.25.06.4.07.5a23.92,23.92,0,0,0,0,2.81c0,.28,0,.56.07.84l-.36-.33A7.7,7.7,0,0,1,148,115.82Zm.69,44.94c.27-.83.54-1.67.82-2.49a2.27,2.27,0,0,0,.48.27,33.64,33.64,0,0,0-1.56,3.65C148.54,161.72,148.62,161.24,148.7,160.76Zm2.24-1.92a9.71,9.71,0,0,1-.86.9c.09-.36.17-.73.25-1.1a1.38,1.38,0,0,0,.78,0Zm1.57-88.57a1.51,1.51,0,0,0-.88-.58l-.09-.51c.05.1.09.2.15.3s.11.19.22.16a.15.15,0,0,0,.1-.13,2.78,2.78,0,0,0-.18-.91v.13c-.1-.53-.17-1.06-.28-1.59s-.16-.91-.26-1.36a13.08,13.08,0,0,0-.13-2.07c-.11-.77-.24-1.66-.34-2.34a5.72,5.72,0,0,0,.88.65l.1,0a1.47,1.47,0,0,0-.31,1.39h0c0,.23.09.47.13.7.2,1,.47,2,.7,3s.5,1.79.78,2.68A1.59,1.59,0,0,0,152.51,70.27Zm6.14,13.32c0,.47,0,.93.07,1.4l-.36-1.57Zm-.33,23.88c0,.08,0,.17,0,.26-.18-.78-.37-1.55-.56-2.32.19-.79.34-1.59.46-2.4C158.15,104.5,158.2,106,158.32,107.47ZM157.11,91.2c.37,1.56.74,3.12,1.12,4.68a1.91,1.91,0,0,0-1.39-.6c.39-1.5,0-3.18-.08-4.71C156.87,90.78,157,91,157.11,91.2Zm-1.31,19.11a6,6,0,0,0,1-2.18c.07.59.15,1.17.23,1.76a1.61,1.61,0,0,0-.7.89,23.67,23.67,0,0,0,.16,4.45l-.17-.12a1.52,1.52,0,0,0-.58-.19,15.28,15.28,0,0,0,.16-1.78A7.9,7.9,0,0,0,155.8,110.31Zm3.07,31.23a35.13,35.13,0,0,0-3.4,1.74,3.51,3.51,0,0,1-.74.28,23,23,0,0,0,1-4.34,2.22,2.22,0,0,0,.49.87,1.64,1.64,0,0,0,1.14.54,1.58,1.58,0,0,0,1.56.9Zm.55-39.83c0,.25,0,.5,0,.75-.09-.61-.18-1.16-.26-1.64l-.24-2.14.39,1.65.21.88A1.43,1.43,0,0,0,159.42,101.71Z"/><path d="M142.54,145.49l0,0,0,0A.21.21,0,0,0,142.54,145.49Z"/><path d="M60.33,34.09c1.34-1.56,2.75-3.05,4.21-4.49-1.58,1-3.12,2.16-4.6,3.35a10.45,10.45,0,0,0-3.76,4.74c-.47,2.14-.06,2.89-.17,4.59-.06.09-.11.18-.17.26a20.77,20.77,0,0,0-1.44,1.81l-.23.37c-.09.09-.17.19-.26.29a11.27,11.27,0,0,1-1,.91,3.3,3.3,0,0,1-.32.18,8.42,8.42,0,0,1-1.28.36h-.06a9.46,9.46,0,0,0-2.87.72c-1.13.46-1.76,1.54-2.57,2.38l-.25.24a5.36,5.36,0,0,0-4,1.13,2.5,2.5,0,0,0-.77,1.15l-.09.19a4.87,4.87,0,0,0-.63,2,3.84,3.84,0,0,0-.23,1.07,6.63,6.63,0,0,0-.08,1,1.21,1.21,0,0,0,0,.18,2.64,2.64,0,0,0,.61,2.71,9.65,9.65,0,0,1,1.32,1.39l0,.05,0,0c0,.54,0,1.08,0,1.62s0,.95,0,1.43a2.44,2.44,0,0,0-.1.24,3.77,3.77,0,0,0-.44,1.9,5.49,5.49,0,0,0,1.1,3.37c0,.25,0,.5,0,.75a27.12,27.12,0,0,0-3.47,3.39c-1,1.24-1.39,2-1.83,2.55a3,3,0,0,0-.68.27,2,2,0,0,0-.45.31,2.86,2.86,0,0,0-.58.21l-.2,0-.37.15A3.73,3.73,0,0,0,32,79.26,8.65,8.65,0,0,0,33.9,86.8c.58.73,1.2,1.42,1.83,2.09a3.3,3.3,0,0,1,.23.41c.1.28.19.55.28.82.19.47.11,1,.43,2.7l0,.23c0,.21,0,.42,0,.63-.08.43-.15.87-.2,1.3a2.83,2.83,0,0,0-.23.75,4.1,4.1,0,0,1-.14.5l-.18,0a4.93,4.93,0,0,0-2.13,1.4,4.05,4.05,0,0,0-1,1.06,4.21,4.21,0,0,0-.69,1.43,5.09,5.09,0,0,0-.31,2.78,9,9,0,0,0,1,2.43c.3.43.47.94.76,1.37a25.12,25.12,0,0,0,2.1,2.49c.41.46.87.86,1.27,1.31h0l0,.06c.41,1.11.81,2.22,1.32,3.29,0,.14.07.29.11.43l-.07.09-.28.36c-.35.37-.73.7-1.1,1l-.48.38a11.47,11.47,0,0,0-1.67,2.12l.37-.47a11.49,11.49,0,0,0-1.12,1.57c-.3.59-.4,1.24-.67,1.84a9.44,9.44,0,0,0-.7,5.41,6.8,6.8,0,0,0,.38,1.1,52.12,52.12,0,0,0,2.1,6.21,12.11,12.11,0,0,0,1.55,2.52,7,7,0,0,0,2.07,2.28l.36.29.23.18q.32.33.6.69l.06.09c0,.34,0,.69,0,1,0,.12,0,.24,0,.36l-.06.24s0,.08,0,.1l-.18.45a2.15,2.15,0,0,0-.1.27.83.83,0,0,0-.07.13c-.78.83-1.67,1.54-2.49,2.34-2.82,2.41-4.91,4.84-3.26,8.7.52,1.45.53,3.17,1.6,4.37a9.31,9.31,0,0,0,2.95,2l.22.11.24.24.24.25c.11.15.23.32.32.46s.34.5.48.76v0c-.54.54-1.1,1.07-1.63,1.63a6.1,6.1,0,0,0-.62.52,2.84,2.84,0,0,0-.66,2.1c.05.81.15,1.63.22,2.45a3.11,3.11,0,0,0,.79,2.11l.2.24,0,0c.59.75,1.29,1.44,1.62,2a19.49,19.49,0,0,0,2.31,2.23c1.14,1.08,1.27,2.73,1.41,4.2.11,1,.22,2.07.34,3.1a2,2,0,0,0,.18.81,3.55,3.55,0,0,1,0-1,39.39,39.39,0,0,0,.43-5.62,7.25,7.25,0,0,0-.7-2.17,14.88,14.88,0,0,0-1.19-1.58c.06.08.07.09,0,0-.25-.36-.55-.71-.78-1.07a26,26,0,0,0-1.39-2.33c-.09-.17-.2-.32-.29-.49h0v-.1c.07-.79.15-1.58.23-2.37.85-.55.45-.39,1.31-1l.29-.23a5.69,5.69,0,0,0,1.28-1.06l.07-.09.1-.1a2.65,2.65,0,0,0,.68-1.91A7.79,7.79,0,0,0,42,157a12.15,12.15,0,0,0-2.78-2c-.16-.58-.24-1.18-.41-1.76-.19-.75-.48-1.47-.68-2.22a0,0,0,0,1,0,0c.5-.8.19-.44,1.42-1.68.65-.59,1.29-1.19,1.93-1.79a5.54,5.54,0,0,0,.92-.89l-.06.09.39-.45.1-.13a7.12,7.12,0,0,0,1.62-3.37,7.65,7.65,0,0,0,.11-2.24,7.37,7.37,0,0,0-.21-1.82,6.29,6.29,0,0,0-1.18-1.91,5.4,5.4,0,0,0-1.13-1.11l-.15-.12-.65-.5a2.09,2.09,0,0,1-.22-.2l-.1-.12c-.2-.3-.39-.61-.62-.9-1.5-2.13-1.22-2.07-2.14-4.69-.2-.71-.41-1.42-.65-2.12a3.68,3.68,0,0,0-.35-1.11c0-.11-.06-.23-.1-.35s0-.42,0-.64a8,8,0,0,1,.3-1.06c.24-.79.55-1.56.79-2.35l0,0c.38-.56.78-1.11,1.16-1.67l.24-.24h0a13.15,13.15,0,0,0,1.52-1.37,12.43,12.43,0,0,0,.89-1.14.52.52,0,0,1,.11-.1l-.09.06h0l.29-.23a2.69,2.69,0,0,0,.8-1.9,10.49,10.49,0,0,0-.61-2.39,26.68,26.68,0,0,1-1.17-2.73,6.36,6.36,0,0,0-1.14-2.13c-.94-1-1.92-1.91-2.77-3-.3-.43-.47-.92-.75-1.36a4.79,4.79,0,0,1-.37-.71c0-.11-.09-.26-.13-.41v0a5.15,5.15,0,0,1,.24-.76.61.61,0,0,0,.07-.1c.22-.17.42-.37.63-.56a4.34,4.34,0,0,0,.8-.15,3.33,3.33,0,0,0,.92-.47L39,100a.28.28,0,0,0-.08.06l.19-.15.16-.13h0l0,0a2.47,2.47,0,0,0,.6-.69,8.12,8.12,0,0,0,.76-2.34v.06a.44.44,0,0,0,0-.1A3.46,3.46,0,0,0,41,95.18a7.34,7.34,0,0,0,.12-2.64c0-.46-.14-.92-.23-1.37a10.78,10.78,0,0,0-1.05-4c-.63-1.36-1.91-2.26-2.79-3.45L37,83.69a5.07,5.07,0,0,1-.36-.54,7.8,7.8,0,0,1-.4-1.41c0-.18,0-.36,0-.53a6.36,6.36,0,0,0,.84-.28,3,3,0,0,0,1.35-.61A4.87,4.87,0,0,0,41.07,78a15.24,15.24,0,0,1,1.66-2.23c.62-.63,1.27-1.22,1.92-1.8a6.93,6.93,0,0,0,1.85-1.93,5.53,5.53,0,0,0,.3-2.8,7.45,7.45,0,0,0-.24-1.5,11.42,11.42,0,0,0-.81-1.55v0h0a4.4,4.4,0,0,0,.21-.5,2.87,2.87,0,0,0,.24-.57A6,6,0,0,0,46.29,63c0-.82,0-1.65,0-2.47a4.23,4.23,0,0,0-1.16-2.81l-.75-.9c0-.23,0-.47,0-.7.09-.43.21-.86.27-1.3,0,0,0-.07,0-.1s.1-.19.14-.29h0l1.31,0c1.36.11,2.22-.89,3-1.87s.85-1.3,1.19-1.64l.23-.13a2.75,2.75,0,0,1,.45-.17A10.14,10.14,0,0,0,55,48.83,9.33,9.33,0,0,0,57,46.13c.42-1.1,1.3-2,1.57-3.15a7.73,7.73,0,0,0-.43-3.08A15.88,15.88,0,0,1,58.1,38,9.47,9.47,0,0,1,60.33,34.09Z"/><path d="M38.92,100.07h0Z"/><path d="M40.14,37.26l.06,0,.25-.19Z"/><path d="M64.79,26.34a1.53,1.53,0,0,0-.3,0A1.44,1.44,0,0,0,63.07,26c-.9.28-1.29,1.27-1.88,1.94l.23-.31c-.58.76-1.18,1.51-1.78,2.27a1.74,1.74,0,0,0-.7-.33,1.42,1.42,0,0,0-1.4-.35,3,3,0,0,0-1.32,1.12,1.24,1.24,0,0,0-.46-.29c-1-.49-1.82.35-2.41,1.06-.78.89-1.5,1.82-2.21,2.76-.3.41-.6.81-.91,1.21a1.92,1.92,0,0,0-1.66-1,4.1,4.1,0,0,0-2.21,1.09,9.09,9.09,0,0,0-1.17,1.15,1.51,1.51,0,0,0-.94.28,5.71,5.71,0,0,0-.47.42,1.59,1.59,0,0,0-1.51-.92c-.83,0-1.43.63-2.07,1.09a23.23,23.23,0,0,0-3.1,3.32c-1.11,1.38-4.62,5.19-4.22,6.89a1.35,1.35,0,0,0,.55.79c-.18.52-.34,1-.49,1.59a3.93,3.93,0,0,0,.12,2.42,7.23,7.23,0,0,0,.38,1.38,3.08,3.08,0,0,1,0,1l-.51.58-.06,0c-.23.14-.49.22-.73.35a.7.7,0,0,1-.23-.11,4.55,4.55,0,0,0-2.22-.74,3.81,3.81,0,0,0-2.13,1.09,8.92,8.92,0,0,0-2.78,3.21c-.36.88-.12.16-.54,1.29A3.22,3.22,0,0,0,24.78,63c.93,1.13.89.91,1.32,1.45,0,.08.48.69.69,1l.07.11a13.1,13.1,0,0,0,0,2.66,7.24,7.24,0,0,0-2.13,1c-1.23.93-.91.72-1.39,1.1l-.31.25-.22.16a3.92,3.92,0,0,0-.93.84A8,8,0,0,0,21,73.12a11.88,11.88,0,0,0-1.49,4.47,3.76,3.76,0,0,0,1.38,4.09,16,16,0,0,0,1.95,1.64,2.73,2.73,0,0,0,.66.42,4.75,4.75,0,0,1,.77.41l.06.07a2.62,2.62,0,0,1,0,.28v.22c-.05.16-.11.33-.15.49l-.11.25.07-.16a4.45,4.45,0,0,1-.33.55l-.05.07a5.77,5.77,0,0,1-.42.44c-.2.12-.82.53-1.08.67a7,7,0,0,0-2.58,2.63,2.9,2.9,0,0,1-.19.29,3.6,3.6,0,0,0-.76,1.2,1.62,1.62,0,0,0-.19.4,6.84,6.84,0,0,0-.36,2.88,4.8,4.8,0,0,0,.13,1.47,4.54,4.54,0,0,0,.95,1.58c.45.52.94,1,1.42,1.48,0,.11,0,.22,0,.33v.14a5.8,5.8,0,0,0-.94.71,2.68,2.68,0,0,0-.72,1h0v0l0,.06a3.46,3.46,0,0,0-.41.87c0,.2-.06.39-.08.59l-.12.19a9.73,9.73,0,0,1-1.67,2.16,4.66,4.66,0,0,0-.63.59,14,14,0,0,0-1.73,2,20.63,20.63,0,0,0-2,3.17c-1.16,1.68-2.84,4.57-.75,6.16a8.52,8.52,0,0,0,3.56,1.14,6.49,6.49,0,0,1,.76.19c.45.22.9.43,1.34.68A16.73,16.73,0,0,0,18.53,121a17.08,17.08,0,0,1,1.26,3.73,1.09,1.09,0,0,0,.05.17c-.05.15-.1.3-.16.45H19a2.2,2.2,0,0,0-1.95-.09c-1.16.41-1.51,1.67-1.62,2.8a.81.81,0,0,0,0,.11,12,12,0,0,0-.23,3.92,7.18,7.18,0,0,0,1.29,3.55c.94,1.1,2.1,2,2.94,3.19L19,138.4c.63.86,1.05,1.85,1.66,2.73.11.17.23.33.35.49l0,0v0l0,0a7.27,7.27,0,0,1-.57.54l-.2.16a2.33,2.33,0,0,0-1.42,1.13,5.36,5.36,0,0,0-.85,3.37,7.11,7.11,0,0,0,.39,3.18,4.25,4.25,0,0,0,.75.94,7.17,7.17,0,0,0,3,2.75c.73.27,1.5.42,2.24.68.14.13.34.3.48.46a3,3,0,0,1,.2.29,2.35,2.35,0,0,0,.19.25l.1.17c0,.35,0,.7,0,1,0,.07,0,.15,0,.23a5.22,5.22,0,0,0-.15.88c0,.1,0,.21,0,.32v.11a10.4,10.4,0,0,0-.18,1.21c-.3.76-.18.73-.43,1.23-.41,1.1-.84,2.49,0,3.49a8.93,8.93,0,0,0,2.58,2.28l.45.45c0,.44.08.87.15,1.31a5.15,5.15,0,0,0,1.09,3.21,2.29,2.29,0,0,0,1.26.63v0a25,25,0,0,0,.88,2.7,3.3,3.3,0,0,0,.88,1.47,1.51,1.51,0,0,0,2.26-.4,5.5,5.5,0,0,0,.27-2.18v-.08l0,.07c.31,2,1.75,3.74,2.93,5.33a24.75,24.75,0,0,0,3.19,3.59,4.06,4.06,0,0,0,2.18,1.12h.08A3.71,3.71,0,0,0,43,184a1.56,1.56,0,0,0,2.65-1.1c0-1-.82-1.84-1.24-2.74l-.29-.46a13.46,13.46,0,0,0-1.6-3.11l0,0a1.53,1.53,0,0,0-.06-1.41,5.13,5.13,0,0,0-.92-1l0,0c-.79-1.13-.94-1.23-1.47-2a12.91,12.91,0,0,0-.67-4c0-1.9,0-3.81-.05-5.71,0-.68,0-1.35-.06-2a2.42,2.42,0,0,0-.92-2.15,1.52,1.52,0,0,0-.78-.18,2.47,2.47,0,0,0-.38,0,1,1,0,0,0-.21-.11,1.34,1.34,0,0,0-.74-.1c.1-.28.21-.56.3-.84.64-1.39.66-3.3-.63-4.33a1.68,1.68,0,0,0-.75-.36A4.62,4.62,0,0,0,35,151a2.21,2.21,0,0,0-.24-.54,22.76,22.76,0,0,0,.82-4.31,5.22,5.22,0,0,0-.23-2,17.91,17.91,0,0,0,1.75-7.95A5,5,0,0,0,34,131.39a4,4,0,0,0-1.48-1.59A20.22,20.22,0,0,0,33,127a4.4,4.4,0,0,0-.45-2l.06,0a3.13,3.13,0,0,0,.16-2.28,2.67,2.67,0,0,0,.73-.93,9.26,9.26,0,0,0,.52-3.27c1.88,1.24,3.38-.47,3.34-2.65A11,11,0,0,0,36.06,112c.6-2-.65-4.28-2.08-5.68l-.19-.19a2.69,2.69,0,0,0,.26-.54,3.66,3.66,0,0,0-.69-4.05,15.54,15.54,0,0,0,.78-1.95,5.27,5.27,0,0,0-.31-4,2.13,2.13,0,0,0-.16-.25c.61-2.12,1.21-4.25,1.63-6.42a9.16,9.16,0,0,0,0-3.9A4.81,4.81,0,0,0,34.79,84c.73-1.22,1.4-2.47,2.14-3.69.94-1.61,2.26-3.37,1.65-5.34a3.88,3.88,0,0,0-.79-1.5,5.69,5.69,0,0,0,.58-3.78,3.5,3.5,0,0,0-.51-1.11l0,0c1.19-1.8,2.66-3.48,3.29-5.58a4,4,0,0,0,0-2.79,5.6,5.6,0,0,0,1.26-2.24,3.88,3.88,0,0,0-1-3.64l.17-.26,0,0,.14-.15a2.73,2.73,0,0,0,.32-4.09l.33-.44.49-.66a1.59,1.59,0,0,0,1.64.54,2,2,0,0,0,1.07-.88s0,0,0,.08a1.53,1.53,0,0,0,1.11,1.7c1.36.35,2-1,2.58-2.07a2,2,0,0,0,1.46-.19,9,9,0,0,0,2-2.35.49.49,0,0,0,.12-.13l.49-.67c.09-.12.28-.26.26-.46s0-.18,0-.27l0,0A21.27,21.27,0,0,0,55,41.62a1.85,1.85,0,0,0,.76-.66h0a.41.41,0,0,1,0-.09,7,7,0,0,0,.44-.81.93.93,0,0,1,0-.1c.47-.82,1-1.61,1.46-2.42.2-.31.4-.6.59-.88a6.87,6.87,0,0,0,1.47-1.28l.41-.4a10.33,10.33,0,0,0,1.83-1,2.86,2.86,0,0,0,1.59-1.54,1.56,1.56,0,0,0,0-.91,2,2,0,0,0,.25-.41,18.39,18.39,0,0,0,2.06-2.08A1.62,1.62,0,0,0,64.79,26.34ZM20.08,115a4.26,4.26,0,0,0-.22.63,8.26,8.26,0,0,0-1.38-.8,9.57,9.57,0,0,0-3.08-1c.14-.21.32-.48.58-.85.48-.75.87-1.56,1.39-2.29l.13-.15.35-.46a19.66,19.66,0,0,1,1.53-1.63l.09-.08a6.47,6.47,0,0,0,.81,6.19C20.21,114.69,20.14,114.85,20.08,115Zm7-24.72c-.06-.06-.11-.12-.17-.17a1.54,1.54,0,0,0-.66-.54l.16-.14a3.66,3.66,0,0,0,.78.52C27.17,90.07,27.13,90.18,27.1,90.29Zm4,32.62h0c0,.16.05.32.07.48l-.15-.1c0-.08,0-.16.05-.24A.77.77,0,0,0,31.12,122.91Zm-3.5-62.62.1-.25a1,1,0,0,0,0-.1,9.09,9.09,0,0,1,2.13-2.65l.09-.06h.19a7.22,7.22,0,0,0,.92.34h0A16.56,16.56,0,0,0,30.2,59,6,6,0,0,0,29,61.66a2.78,2.78,0,0,0-.05.76A13,13,0,0,0,27.42,61h0C27.47,60.78,27.56,60.46,27.62,60.29ZM23.67,78.5A4.64,4.64,0,0,1,24,76.78,6.5,6.5,0,0,1,24.77,75c.13-.25.23-.52.37-.76a.86.86,0,0,1,.14-.13c.44-.33.87-.67,1.3-1l.3-.26.2-.13,0,.09a.3.3,0,0,0,0,.1l0-.09a4.78,4.78,0,0,0-.33,1.63,1.22,1.22,0,0,0-.54-.12,1.27,1.27,0,0,0-1,2,1,1,0,0,0,.34.32,9.19,9.19,0,0,1,.49,1c.06.14.15.35.21.47a4.29,4.29,0,0,1,.19.54,6.36,6.36,0,0,0,1,2c0,.21.05.41.07.61v0a7.18,7.18,0,0,0-1.09-.89,10.52,10.52,0,0,0-1.18-.55l.5.22a1.82,1.82,0,0,1-.31-.16A21.27,21.27,0,0,1,23.67,78.5Zm.86,51.13c-.09.46-.19.92-.28,1.38l-.54-1.21c-.17-.34-.31-.71-.48-1.06A5.36,5.36,0,0,0,24.53,129.63Zm-1-8.91c-.07.3-.15.6-.24.89-.12-.33-.24-.66-.37-1C23.11,120.67,23.32,120.7,23.52,120.72Zm-.95-26.23c0-.43,0-.86,0-1.29l.15-.32.08-.12.07-.09.06-.08c.05.27.09.53.14.79a.37.37,0,0,0,0,.11,4.82,4.82,0,0,0,.26,2.11l-.77-.9Zm2.58,56.16c-.59-.25-.55-.22-1.45-.55-.19-.19-.37-.37-.54-.57a7.48,7.48,0,0,1-.43-.66,5.47,5.47,0,0,0-.44-.63c0-.59,0-1.19,0-1.79a.57.57,0,0,0,0-.13,4.89,4.89,0,0,0,.91-.72c.21-.17.47-.39.67-.58a47.77,47.77,0,0,0,1.86,5.32l.3.74A4.92,4.92,0,0,0,25.15,150.65Zm2,12.81a6.33,6.33,0,0,1-.39-.61,2,2,0,0,1,.08-.26l.43-.83c.08.36.17.71.26,1.07s0,.74,0,1v.07A4.84,4.84,0,0,1,27.17,163.46ZM38,47.83c-.41.37-.81.75-1.21,1.13a8.13,8.13,0,0,0-2.41,2.94l0,.1a10.9,10.9,0,0,1-.45-1.17A6.88,6.88,0,0,1,34,48.65l0-.18a1.42,1.42,0,0,0,1.33-.4c.27-.25.54-.52.8-.79a1.07,1.07,0,0,0,.27.09,2.68,2.68,0,0,0,1.93-.23Z"/><path d="M19,101.24h0v0Z"/><path d="M19,101.22l0-.06Z"/><path d="M86.72,199.75A84.66,84.66,0,0,1,25.37,173.4a92.19,92.19,0,0,1,0-127,84.59,84.59,0,0,1,122.7,0,92.22,92.22,0,0,1,0,127A84.67,84.67,0,0,1,86.72,199.75ZM86.72,25C41.64,25,5,63.08,5,109.89s36.67,84.89,81.75,84.89,81.74-38.08,81.74-84.89S131.79,25,86.72,25Z"/><path d="M102.22,0c-.2,0-.18,0-.08,0a2.09,2.09,0,0,0-1.57.45,1.71,1.71,0,0,0-.39.37c-.61.19-1.22.39-1.84.55a24.61,24.61,0,0,1-2.4.57c-1.34.07-2.67-.18-4-.17-3.58.28-2.7.64-6.28.5a19.26,19.26,0,0,1-4-.57c-1.15-.19-2.7-.82-3.45.44a1.94,1.94,0,0,0-.05,1.68,3.11,3.11,0,0,0,.71,1,11.11,11.11,0,0,1,.7,1.32c.14.28.3.73.09.19a60.11,60.11,0,0,1,2.12,6.8l0,.68c0,.46-.06.93-.08,1.39a2.17,2.17,0,0,0,.31,4c0,.15,0,.29.06.41a1.72,1.72,0,0,0,.25.84.77.77,0,0,0,1.15.08l0,0c0,.18-.06.37-.08.59a.42.42,0,0,0,.77.15,1,1,0,0,0,0-.14.1.1,0,0,0,0-.07c.15-.39.27-.79.39-1.19a1.27,1.27,0,0,1,0,.2,1.9,1.9,0,0,0,3.24,1.34,1.59,1.59,0,0,0,.32-.46,1.36,1.36,0,0,0,.39-.17l0,0a1.7,1.7,0,0,0,1.36-1.37,6.1,6.1,0,0,0,.1-1v0l0-.46c0-.28.06-.5.12-.84a31.51,31.51,0,0,1,2.41-3.58A49.49,49.49,0,0,1,99.7,6.83c-.79.61.19-.13.52-.37s.86-.49,1.26-.78h0A5.35,5.35,0,0,0,103,4.21a.83.83,0,0,0,.08-.12l0,0a2.11,2.11,0,0,0,1.18-1.36A2.13,2.13,0,0,0,102.22,0ZM82.72,5.6a1.9,1.9,0,0,0-.38.81c-.07-.33-.15-.66-.23-1C82.31,5.49,82.52,5.54,82.72,5.6Z"/></g></g></svg>